<?xml version="1.0" encoding="utf-8" standalone="no"?>
<!DOCTYPE svg PUBLIC "-//W3C//DTD SVG 1.1//EN"
  "http://www.w3.org/Graphics/SVG/1.1/DTD/svg11.dtd">
<svg xmlns:xlink="http://www.w3.org/1999/xlink" width="648pt" height="288pt" viewBox="0 0 648 288" xmlns="http://www.w3.org/2000/svg" version="1.1">
 <metadata>
  <rdf:RDF xmlns:dc="http://purl.org/dc/elements/1.1/" xmlns:cc="http://creativecommons.org/ns#" xmlns:rdf="http://www.w3.org/1999/02/22-rdf-syntax-ns#">
   <cc:Work>
    <dc:type rdf:resource="http://purl.org/dc/dcmitype/StillImage"/>
    <dc:date>2025-11-29T18:25:12.416959</dc:date>
    <dc:format>image/svg+xml</dc:format>
    <dc:creator>
     <cc:Agent>
      <dc:title>Matplotlib v3.9.4, https://matplotlib.org/</dc:title>
     </cc:Agent>
    </dc:creator>
   </cc:Work>
  </rdf:RDF>
 </metadata>
 <defs>
  <style type="text/css">*{stroke-linejoin: round; stroke-linecap: butt}</style>
 </defs>
 <g id="figure_1">
  <g id="patch_1">
   <path d="M 0 288 
L 648 288 
L 648 0 
L 0 0 
z
" style="fill: #ffffff"/>
  </g>
  <g id="axes_1">
   <g id="patch_2">
    <path d="M 54.02 241.504 
L 637.2 241.504 
L 637.2 29.184 
L 54.02 29.184 
z
" style="fill: #ffffff"/>
   </g>
   <g id="patch_3">
    <path d="M 41.342174 241.504 
L 54.02 241.504 
L 54.02 212.306311 
L 41.342174 212.306311 
z
" clip-path="url(#pfbe04d6952)" style="fill: #1f77b4; opacity: 0.4"/>
   </g>
   <g id="patch_4">
    <path d="M 66.697826 241.504 
L 79.375652 241.504 
L 79.375652 211.312348 
L 66.697826 211.312348 
z
" clip-path="url(#pfbe04d6952)" style="fill: #1f77b4; opacity: 0.4"/>
   </g>
   <g id="patch_5">
    <path d="M 92.053478 241.504 
L 104.731304 241.504 
L 104.731304 204.913705 
L 92.053478 204.913705 
z
" clip-path="url(#pfbe04d6952)" style="fill: #1f77b4; opacity: 0.4"/>
   </g>
   <g id="patch_6">
    <path d="M 117.40913 241.504 
L 130.086957 241.504 
L 130.086957 190.376984 
L 117.40913 190.376984 
z
" clip-path="url(#pfbe04d6952)" style="fill: #1f77b4; opacity: 0.4"/>
   </g>
   <g id="patch_7">
    <path d="M 142.764783 241.504 
L 155.442609 241.504 
L 155.442609 165.279396 
L 142.764783 165.279396 
z
" clip-path="url(#pfbe04d6952)" style="fill: #1f77b4; opacity: 0.4"/>
   </g>
   <g id="patch_8">
    <path d="M 168.120435 241.504 
L 180.798261 241.504 
L 180.798261 137.013549 
L 168.120435 137.013549 
z
" clip-path="url(#pfbe04d6952)" style="fill: #1f77b4; opacity: 0.4"/>
   </g>
   <g id="patch_9">
    <path d="M 193.476087 241.504 
L 206.153913 241.504 
L 206.153913 98.621694 
L 193.476087 98.621694 
z
" clip-path="url(#pfbe04d6952)" style="fill: #1f77b4; opacity: 0.4"/>
   </g>
   <g id="patch_10">
    <path d="M 218.831739 241.504 
L 231.509565 241.504 
L 231.509565 62.528382 
L 218.831739 62.528382 
z
" clip-path="url(#pfbe04d6952)" style="fill: #1f77b4; opacity: 0.4"/>
   </g>
   <g id="patch_11">
    <path d="M 244.187391 241.504 
L 256.865217 241.504 
L 256.865217 48.612887 
L 244.187391 48.612887 
z
" clip-path="url(#pfbe04d6952)" style="fill: #1f77b4; opacity: 0.4"/>
   </g>
   <g id="patch_12">
    <path d="M 269.543043 241.504 
L 282.22087 241.504 
L 282.22087 39.294476 
L 269.543043 39.294476 
z
" clip-path="url(#pfbe04d6952)" style="fill: #1f77b4; opacity: 0.4"/>
   </g>
   <g id="patch_13">
    <path d="M 294.898696 241.504 
L 307.576522 241.504 
L 307.576522 49.731097 
L 294.898696 49.731097 
z
" clip-path="url(#pfbe04d6952)" style="fill: #1f77b4; opacity: 0.4"/>
   </g>
   <g id="patch_14">
    <path d="M 320.254348 241.504 
L 332.932174 241.504 
L 332.932174 71.78467 
L 320.254348 71.78467 
z
" clip-path="url(#pfbe04d6952)" style="fill: #1f77b4; opacity: 0.4"/>
   </g>
   <g id="patch_15">
    <path d="M 345.61 241.504 
L 358.287826 241.504 
L 358.287826 95.950417 
L 345.61 95.950417 
z
" clip-path="url(#pfbe04d6952)" style="fill: #1f77b4; opacity: 0.4"/>
   </g>
   <g id="patch_16">
    <path d="M 370.965652 241.504 
L 383.643478 241.504 
L 383.643478 123.284423 
L 370.965652 123.284423 
z
" clip-path="url(#pfbe04d6952)" style="fill: #1f77b4; opacity: 0.4"/>
   </g>
   <g id="patch_17">
    <path d="M 396.321304 241.504 
L 408.99913 241.504 
L 408.99913 143.971296 
L 396.321304 143.971296 
z
" clip-path="url(#pfbe04d6952)" style="fill: #1f77b4; opacity: 0.4"/>
   </g>
   <g id="patch_18">
    <path d="M 421.676957 241.504 
L 434.354783 241.504 
L 434.354783 165.217273 
L 421.676957 165.217273 
z
" clip-path="url(#pfbe04d6952)" style="fill: #1f77b4; opacity: 0.4"/>
   </g>
   <g id="patch_19">
    <path d="M 447.032609 241.504 
L 459.710435 241.504 
L 459.710435 184.599569 
L 447.032609 184.599569 
z
" clip-path="url(#pfbe04d6952)" style="fill: #1f77b4; opacity: 0.4"/>
   </g>
   <g id="patch_20">
    <path d="M 472.388261 241.504 
L 485.066087 241.504 
L 485.066087 196.899872 
L 472.388261 196.899872 
z
" clip-path="url(#pfbe04d6952)" style="fill: #1f77b4; opacity: 0.4"/>
   </g>
   <g id="patch_21">
    <path d="M 497.743913 241.504 
L 510.421739 241.504 
L 510.421739 209.635034 
L 497.743913 209.635034 
z
" clip-path="url(#pfbe04d6952)" style="fill: #1f77b4; opacity: 0.4"/>
   </g>
   <g id="patch_22">
    <path d="M 523.099565 241.504 
L 535.777391 241.504 
L 535.777391 215.785185 
L 523.099565 215.785185 
z
" clip-path="url(#pfbe04d6952)" style="fill: #1f77b4; opacity: 0.4"/>
   </g>
   <g id="patch_23">
    <path d="M 548.455217 241.504 
L 561.133043 241.504 
L 561.133043 222.742932 
L 548.455217 222.742932 
z
" clip-path="url(#pfbe04d6952)" style="fill: #1f77b4; opacity: 0.4"/>
   </g>
   <g id="patch_24">
    <path d="M 573.81087 241.504 
L 586.488696 241.504 
L 586.488696 226.283928 
L 573.81087 226.283928 
z
" clip-path="url(#pfbe04d6952)" style="fill: #1f77b4; opacity: 0.4"/>
   </g>
   <g id="patch_25">
    <path d="M 599.166522 241.504 
L 611.844348 241.504 
L 611.844348 230.756766 
L 599.166522 230.756766 
z
" clip-path="url(#pfbe04d6952)" style="fill: #1f77b4; opacity: 0.4"/>
   </g>
   <g id="patch_26">
    <path d="M 624.522174 241.504 
L 637.2 241.504 
L 637.2 227.277892 
L 624.522174 227.277892 
z
" clip-path="url(#pfbe04d6952)" style="fill: #1f77b4; opacity: 0.4"/>
   </g>
   <g id="patch_27">
    <path d="M 54.02 241.504 
L 66.697826 241.504 
L 66.697826 222.887775 
L 54.02 222.887775 
z
" clip-path="url(#pfbe04d6952)" style="fill: #d62728; opacity: 0.4"/>
   </g>
   <g id="patch_28">
    <path d="M 79.375652 241.504 
L 92.053478 241.504 
L 92.053478 221.228903 
L 79.375652 221.228903 
z
" clip-path="url(#pfbe04d6952)" style="fill: #d62728; opacity: 0.4"/>
   </g>
   <g id="patch_29">
    <path d="M 104.731304 241.504 
L 117.40913 241.504 
L 117.40913 213.118864 
L 104.731304 213.118864 
z
" clip-path="url(#pfbe04d6952)" style="fill: #d62728; opacity: 0.4"/>
   </g>
   <g id="patch_30">
    <path d="M 130.086957 241.504 
L 142.764783 241.504 
L 142.764783 196.898787 
L 130.086957 196.898787 
z
" clip-path="url(#pfbe04d6952)" style="fill: #d62728; opacity: 0.4"/>
   </g>
   <g id="patch_31">
    <path d="M 155.442609 241.504 
L 168.120435 241.504 
L 168.120435 176.316491 
L 155.442609 176.316491 
z
" clip-path="url(#pfbe04d6952)" style="fill: #d62728; opacity: 0.4"/>
   </g>
   <g id="patch_32">
    <path d="M 180.798261 241.504 
L 193.476087 241.504 
L 193.476087 146.948321 
L 180.798261 146.948321 
z
" clip-path="url(#pfbe04d6952)" style="fill: #d62728; opacity: 0.4"/>
   </g>
   <g id="patch_33">
    <path d="M 206.153913 241.504 
L 218.831739 241.504 
L 218.831739 124.154197 
L 206.153913 124.154197 
z
" clip-path="url(#pfbe04d6952)" style="fill: #d62728; opacity: 0.4"/>
   </g>
   <g id="patch_34">
    <path d="M 231.509565 241.504 
L 244.187391 241.504 
L 244.187391 84.587038 
L 231.509565 84.587038 
z
" clip-path="url(#pfbe04d6952)" style="fill: #d62728; opacity: 0.4"/>
   </g>
   <g id="patch_35">
    <path d="M 256.865217 241.504 
L 269.543043 241.504 
L 269.543043 59.151007 
L 256.865217 59.151007 
z
" clip-path="url(#pfbe04d6952)" style="fill: #d62728; opacity: 0.4"/>
   </g>
   <g id="patch_36">
    <path d="M 282.22087 241.504 
L 294.898696 241.504 
L 294.898696 48.890579 
L 282.22087 48.890579 
z
" clip-path="url(#pfbe04d6952)" style="fill: #d62728; opacity: 0.4"/>
   </g>
   <g id="patch_37">
    <path d="M 307.576522 241.504 
L 320.254348 241.504 
L 320.254348 43.299568 
L 307.576522 43.299568 
z
" clip-path="url(#pfbe04d6952)" style="fill: #d62728; opacity: 0.4"/>
   </g>
   <g id="patch_38">
    <path d="M 332.932174 241.504 
L 345.61 241.504 
L 345.61 52.76128 
L 332.932174 52.76128 
z
" clip-path="url(#pfbe04d6952)" style="fill: #d62728; opacity: 0.4"/>
   </g>
   <g id="patch_39">
    <path d="M 358.287826 241.504 
L 370.965652 241.504 
L 370.965652 69.902953 
L 358.287826 69.902953 
z
" clip-path="url(#pfbe04d6952)" style="fill: #d62728; opacity: 0.4"/>
   </g>
   <g id="patch_40">
    <path d="M 383.643478 241.504 
L 396.321304 241.504 
L 396.321304 93.557232 
L 383.643478 93.557232 
z
" clip-path="url(#pfbe04d6952)" style="fill: #d62728; opacity: 0.4"/>
   </g>
   <g id="patch_41">
    <path d="M 408.99913 241.504 
L 421.676957 241.504 
L 421.676957 118.747504 
L 408.99913 118.747504 
z
" clip-path="url(#pfbe04d6952)" style="fill: #d62728; opacity: 0.4"/>
   </g>
   <g id="patch_42">
    <path d="M 434.354783 241.504 
L 447.032609 241.504 
L 447.032609 148.97583 
L 434.354783 148.97583 
z
" clip-path="url(#pfbe04d6952)" style="fill: #d62728; opacity: 0.4"/>
   </g>
   <g id="patch_43">
    <path d="M 459.710435 241.504 
L 472.388261 241.504 
L 472.388261 175.026258 
L 459.710435 175.026258 
z
" clip-path="url(#pfbe04d6952)" style="fill: #d62728; opacity: 0.4"/>
   </g>
   <g id="patch_44">
    <path d="M 485.066087 241.504 
L 497.743913 241.504 
L 497.743913 188.911627 
L 485.066087 188.911627 
z
" clip-path="url(#pfbe04d6952)" style="fill: #d62728; opacity: 0.4"/>
   </g>
   <g id="patch_45">
    <path d="M 510.421739 241.504 
L 523.099565 241.504 
L 523.099565 203.411394 
L 510.421739 203.411394 
z
" clip-path="url(#pfbe04d6952)" style="fill: #d62728; opacity: 0.4"/>
   </g>
   <g id="patch_46">
    <path d="M 535.777391 241.504 
L 548.455217 241.504 
L 548.455217 216.436607 
L 535.777391 216.436607 
z
" clip-path="url(#pfbe04d6952)" style="fill: #d62728; opacity: 0.4"/>
   </g>
   <g id="patch_47">
    <path d="M 561.133043 241.504 
L 573.81087 241.504 
L 573.81087 225.652561 
L 561.133043 225.652561 
z
" clip-path="url(#pfbe04d6952)" style="fill: #d62728; opacity: 0.4"/>
   </g>
   <g id="patch_48">
    <path d="M 586.488696 241.504 
L 599.166522 241.504 
L 599.166522 232.349487 
L 586.488696 232.349487 
z
" clip-path="url(#pfbe04d6952)" style="fill: #d62728; opacity: 0.4"/>
   </g>
   <g id="patch_49">
    <path d="M 611.844348 241.504 
L 624.522174 241.504 
L 624.522174 235.298592 
L 611.844348 235.298592 
z
" clip-path="url(#pfbe04d6952)" style="fill: #d62728; opacity: 0.4"/>
   </g>
   <g id="patch_50">
    <path d="M 637.2 241.504 
L 649.877826 241.504 
L 649.877826 235.66723 
L 637.2 235.66723 
z
" clip-path="url(#pfbe04d6952)" style="fill: #d62728; opacity: 0.4"/>
   </g>
   <g id="matplotlib.axis_1">
    <g id="xtick_1">
     <g id="line2d_1">
      <defs>
       <path id="m501bff7995" d="M 0 0 
L 0 3.5 
" style="stroke: #000000; stroke-width: 0.8"/>
      </defs>
      <g>
       <use xlink:href="#m501bff7995" x="54.02" y="241.504" style="stroke: #000000; stroke-width: 0.8"/>
      </g>
     </g>
     <g id="text_1">
      <!-- 0 -->
      <g transform="translate(50.83875 256.102438) scale(0.1 -0.1)">
       <defs>
        <path id="DejaVuSans-30" d="M 2034 4250 
Q 1547 4250 1301 3770 
Q 1056 3291 1056 2328 
Q 1056 1369 1301 889 
Q 1547 409 2034 409 
Q 2525 409 2770 889 
Q 3016 1369 3016 2328 
Q 3016 3291 2770 3770 
Q 2525 4250 2034 4250 
z
M 2034 4750 
Q 2819 4750 3233 4129 
Q 3647 3509 3647 2328 
Q 3647 1150 3233 529 
Q 2819 -91 2034 -91 
Q 1250 -91 836 529 
Q 422 1150 422 2328 
Q 422 3509 836 4129 
Q 1250 4750 2034 4750 
z
" transform="scale(0.015625)"/>
       </defs>
       <use xlink:href="#DejaVuSans-30"/>
      </g>
     </g>
    </g>
    <g id="xtick_2">
     <g id="line2d_2">
      <g>
       <use xlink:href="#m501bff7995" x="180.798261" y="241.504" style="stroke: #000000; stroke-width: 0.8"/>
      </g>
     </g>
     <g id="text_2">
      <!-- 5 -->
      <g transform="translate(177.617011 256.102438) scale(0.1 -0.1)">
       <defs>
        <path id="DejaVuSans-35" d="M 691 4666 
L 3169 4666 
L 3169 4134 
L 1269 4134 
L 1269 2991 
Q 1406 3038 1543 3061 
Q 1681 3084 1819 3084 
Q 2600 3084 3056 2656 
Q 3513 2228 3513 1497 
Q 3513 744 3044 326 
Q 2575 -91 1722 -91 
Q 1428 -91 1123 -41 
Q 819 9 494 109 
L 494 744 
Q 775 591 1075 516 
Q 1375 441 1709 441 
Q 2250 441 2565 725 
Q 2881 1009 2881 1497 
Q 2881 1984 2565 2268 
Q 2250 2553 1709 2553 
Q 1456 2553 1204 2497 
Q 953 2441 691 2322 
L 691 4666 
z
" transform="scale(0.015625)"/>
       </defs>
       <use xlink:href="#DejaVuSans-35"/>
      </g>
     </g>
    </g>
    <g id="xtick_3">
     <g id="line2d_3">
      <g>
       <use xlink:href="#m501bff7995" x="307.576522" y="241.504" style="stroke: #000000; stroke-width: 0.8"/>
      </g>
     </g>
     <g id="text_3">
      <!-- 10 -->
      <g transform="translate(301.214022 256.102438) scale(0.1 -0.1)">
       <defs>
        <path id="DejaVuSans-31" d="M 794 531 
L 1825 531 
L 1825 4091 
L 703 3866 
L 703 4441 
L 1819 4666 
L 2450 4666 
L 2450 531 
L 3481 531 
L 3481 0 
L 794 0 
L 794 531 
z
" transform="scale(0.015625)"/>
       </defs>
       <use xlink:href="#DejaVuSans-31"/>
       <use xlink:href="#DejaVuSans-30" x="63.623047"/>
      </g>
     </g>
    </g>
    <g id="xtick_4">
     <g id="line2d_4">
      <g>
       <use xlink:href="#m501bff7995" x="434.354783" y="241.504" style="stroke: #000000; stroke-width: 0.8"/>
      </g>
     </g>
     <g id="text_4">
      <!-- 15 -->
      <g transform="translate(427.992283 256.102438) scale(0.1 -0.1)">
       <use xlink:href="#DejaVuSans-31"/>
       <use xlink:href="#DejaVuSans-35" x="63.623047"/>
      </g>
     </g>
    </g>
    <g id="xtick_5">
     <g id="line2d_5">
      <g>
       <use xlink:href="#m501bff7995" x="561.133043" y="241.504" style="stroke: #000000; stroke-width: 0.8"/>
      </g>
     </g>
     <g id="text_5">
      <!-- 20 -->
      <g transform="translate(554.770543 256.102438) scale(0.1 -0.1)">
       <defs>
        <path id="DejaVuSans-32" d="M 1228 531 
L 3431 531 
L 3431 0 
L 469 0 
L 469 531 
Q 828 903 1448 1529 
Q 2069 2156 2228 2338 
Q 2531 2678 2651 2914 
Q 2772 3150 2772 3378 
Q 2772 3750 2511 3984 
Q 2250 4219 1831 4219 
Q 1534 4219 1204 4116 
Q 875 4013 500 3803 
L 500 4441 
Q 881 4594 1212 4672 
Q 1544 4750 1819 4750 
Q 2544 4750 2975 4387 
Q 3406 4025 3406 3419 
Q 3406 3131 3298 2873 
Q 3191 2616 2906 2266 
Q 2828 2175 2409 1742 
Q 1991 1309 1228 531 
z
" transform="scale(0.015625)"/>
       </defs>
       <use xlink:href="#DejaVuSans-32"/>
       <use xlink:href="#DejaVuSans-30" x="63.623047"/>
      </g>
     </g>
    </g>
    <g id="text_6">
     <!-- Discordances $K_{ij}$ (nombre de différences par site) -->
     <g transform="translate(222.36 270.182125) scale(0.1 -0.1)">
      <defs>
       <path id="DejaVuSans-44" d="M 1259 4147 
L 1259 519 
L 2022 519 
Q 2988 519 3436 956 
Q 3884 1394 3884 2338 
Q 3884 3275 3436 3711 
Q 2988 4147 2022 4147 
L 1259 4147 
z
M 628 4666 
L 1925 4666 
Q 3281 4666 3915 4102 
Q 4550 3538 4550 2338 
Q 4550 1131 3912 565 
Q 3275 0 1925 0 
L 628 0 
L 628 4666 
z
" transform="scale(0.015625)"/>
       <path id="DejaVuSans-69" d="M 603 3500 
L 1178 3500 
L 1178 0 
L 603 0 
L 603 3500 
z
M 603 4863 
L 1178 4863 
L 1178 4134 
L 603 4134 
L 603 4863 
z
" transform="scale(0.015625)"/>
       <path id="DejaVuSans-73" d="M 2834 3397 
L 2834 2853 
Q 2591 2978 2328 3040 
Q 2066 3103 1784 3103 
Q 1356 3103 1142 2972 
Q 928 2841 928 2578 
Q 928 2378 1081 2264 
Q 1234 2150 1697 2047 
L 1894 2003 
Q 2506 1872 2764 1633 
Q 3022 1394 3022 966 
Q 3022 478 2636 193 
Q 2250 -91 1575 -91 
Q 1294 -91 989 -36 
Q 684 19 347 128 
L 347 722 
Q 666 556 975 473 
Q 1284 391 1588 391 
Q 1994 391 2212 530 
Q 2431 669 2431 922 
Q 2431 1156 2273 1281 
Q 2116 1406 1581 1522 
L 1381 1569 
Q 847 1681 609 1914 
Q 372 2147 372 2553 
Q 372 3047 722 3315 
Q 1072 3584 1716 3584 
Q 2034 3584 2315 3537 
Q 2597 3491 2834 3397 
z
" transform="scale(0.015625)"/>
       <path id="DejaVuSans-63" d="M 3122 3366 
L 3122 2828 
Q 2878 2963 2633 3030 
Q 2388 3097 2138 3097 
Q 1578 3097 1268 2742 
Q 959 2388 959 1747 
Q 959 1106 1268 751 
Q 1578 397 2138 397 
Q 2388 397 2633 464 
Q 2878 531 3122 666 
L 3122 134 
Q 2881 22 2623 -34 
Q 2366 -91 2075 -91 
Q 1284 -91 818 406 
Q 353 903 353 1747 
Q 353 2603 823 3093 
Q 1294 3584 2113 3584 
Q 2378 3584 2631 3529 
Q 2884 3475 3122 3366 
z
" transform="scale(0.015625)"/>
       <path id="DejaVuSans-6f" d="M 1959 3097 
Q 1497 3097 1228 2736 
Q 959 2375 959 1747 
Q 959 1119 1226 758 
Q 1494 397 1959 397 
Q 2419 397 2687 759 
Q 2956 1122 2956 1747 
Q 2956 2369 2687 2733 
Q 2419 3097 1959 3097 
z
M 1959 3584 
Q 2709 3584 3137 3096 
Q 3566 2609 3566 1747 
Q 3566 888 3137 398 
Q 2709 -91 1959 -91 
Q 1206 -91 779 398 
Q 353 888 353 1747 
Q 353 2609 779 3096 
Q 1206 3584 1959 3584 
z
" transform="scale(0.015625)"/>
       <path id="DejaVuSans-72" d="M 2631 2963 
Q 2534 3019 2420 3045 
Q 2306 3072 2169 3072 
Q 1681 3072 1420 2755 
Q 1159 2438 1159 1844 
L 1159 0 
L 581 0 
L 581 3500 
L 1159 3500 
L 1159 2956 
Q 1341 3275 1631 3429 
Q 1922 3584 2338 3584 
Q 2397 3584 2469 3576 
Q 2541 3569 2628 3553 
L 2631 2963 
z
" transform="scale(0.015625)"/>
       <path id="DejaVuSans-64" d="M 2906 2969 
L 2906 4863 
L 3481 4863 
L 3481 0 
L 2906 0 
L 2906 525 
Q 2725 213 2448 61 
Q 2172 -91 1784 -91 
Q 1150 -91 751 415 
Q 353 922 353 1747 
Q 353 2572 751 3078 
Q 1150 3584 1784 3584 
Q 2172 3584 2448 3432 
Q 2725 3281 2906 2969 
z
M 947 1747 
Q 947 1113 1208 752 
Q 1469 391 1925 391 
Q 2381 391 2643 752 
Q 2906 1113 2906 1747 
Q 2906 2381 2643 2742 
Q 2381 3103 1925 3103 
Q 1469 3103 1208 2742 
Q 947 2381 947 1747 
z
" transform="scale(0.015625)"/>
       <path id="DejaVuSans-61" d="M 2194 1759 
Q 1497 1759 1228 1600 
Q 959 1441 959 1056 
Q 959 750 1161 570 
Q 1363 391 1709 391 
Q 2188 391 2477 730 
Q 2766 1069 2766 1631 
L 2766 1759 
L 2194 1759 
z
M 3341 1997 
L 3341 0 
L 2766 0 
L 2766 531 
Q 2569 213 2275 61 
Q 1981 -91 1556 -91 
Q 1019 -91 701 211 
Q 384 513 384 1019 
Q 384 1609 779 1909 
Q 1175 2209 1959 2209 
L 2766 2209 
L 2766 2266 
Q 2766 2663 2505 2880 
Q 2244 3097 1772 3097 
Q 1472 3097 1187 3025 
Q 903 2953 641 2809 
L 641 3341 
Q 956 3463 1253 3523 
Q 1550 3584 1831 3584 
Q 2591 3584 2966 3190 
Q 3341 2797 3341 1997 
z
" transform="scale(0.015625)"/>
       <path id="DejaVuSans-6e" d="M 3513 2113 
L 3513 0 
L 2938 0 
L 2938 2094 
Q 2938 2591 2744 2837 
Q 2550 3084 2163 3084 
Q 1697 3084 1428 2787 
Q 1159 2491 1159 1978 
L 1159 0 
L 581 0 
L 581 3500 
L 1159 3500 
L 1159 2956 
Q 1366 3272 1645 3428 
Q 1925 3584 2291 3584 
Q 2894 3584 3203 3211 
Q 3513 2838 3513 2113 
z
" transform="scale(0.015625)"/>
       <path id="DejaVuSans-65" d="M 3597 1894 
L 3597 1613 
L 953 1613 
Q 991 1019 1311 708 
Q 1631 397 2203 397 
Q 2534 397 2845 478 
Q 3156 559 3463 722 
L 3463 178 
Q 3153 47 2828 -22 
Q 2503 -91 2169 -91 
Q 1331 -91 842 396 
Q 353 884 353 1716 
Q 353 2575 817 3079 
Q 1281 3584 2069 3584 
Q 2775 3584 3186 3129 
Q 3597 2675 3597 1894 
z
M 3022 2063 
Q 3016 2534 2758 2815 
Q 2500 3097 2075 3097 
Q 1594 3097 1305 2825 
Q 1016 2553 972 2059 
L 3022 2063 
z
" transform="scale(0.015625)"/>
       <path id="DejaVuSans-20" transform="scale(0.015625)"/>
       <path id="DejaVuSans-Oblique-4b" d="M 1081 4666 
L 1716 4666 
L 1331 2700 
L 3781 4666 
L 4622 4666 
L 1850 2438 
L 3878 0 
L 3109 0 
L 1247 2272 
L 806 0 
L 172 0 
L 1081 4666 
z
" transform="scale(0.015625)"/>
       <path id="DejaVuSans-Oblique-69" d="M 1172 4863 
L 1747 4863 
L 1606 4134 
L 1031 4134 
L 1172 4863 
z
M 909 3500 
L 1484 3500 
L 800 0 
L 225 0 
L 909 3500 
z
" transform="scale(0.015625)"/>
       <path id="DejaVuSans-Oblique-6a" d="M 928 3500 
L 1503 3500 
L 813 -63 
L 809 -78 
Q 694 -675 544 -897 
Q 403 -1106 132 -1218 
Q -138 -1331 -506 -1331 
L -722 -1331 
L -628 -844 
L -481 -844 
Q -144 -844 -1 -703 
Q 141 -563 238 -63 
L 928 3500 
z
M 1197 4863 
L 1772 4863 
L 1631 4134 
L 1056 4134 
L 1197 4863 
z
" transform="scale(0.015625)"/>
       <path id="DejaVuSans-28" d="M 1984 4856 
Q 1566 4138 1362 3434 
Q 1159 2731 1159 2009 
Q 1159 1288 1364 580 
Q 1569 -128 1984 -844 
L 1484 -844 
Q 1016 -109 783 600 
Q 550 1309 550 2009 
Q 550 2706 781 3412 
Q 1013 4119 1484 4856 
L 1984 4856 
z
" transform="scale(0.015625)"/>
       <path id="DejaVuSans-6d" d="M 3328 2828 
Q 3544 3216 3844 3400 
Q 4144 3584 4550 3584 
Q 5097 3584 5394 3201 
Q 5691 2819 5691 2113 
L 5691 0 
L 5113 0 
L 5113 2094 
Q 5113 2597 4934 2840 
Q 4756 3084 4391 3084 
Q 3944 3084 3684 2787 
Q 3425 2491 3425 1978 
L 3425 0 
L 2847 0 
L 2847 2094 
Q 2847 2600 2669 2842 
Q 2491 3084 2119 3084 
Q 1678 3084 1418 2786 
Q 1159 2488 1159 1978 
L 1159 0 
L 581 0 
L 581 3500 
L 1159 3500 
L 1159 2956 
Q 1356 3278 1631 3431 
Q 1906 3584 2284 3584 
Q 2666 3584 2933 3390 
Q 3200 3197 3328 2828 
z
" transform="scale(0.015625)"/>
       <path id="DejaVuSans-62" d="M 3116 1747 
Q 3116 2381 2855 2742 
Q 2594 3103 2138 3103 
Q 1681 3103 1420 2742 
Q 1159 2381 1159 1747 
Q 1159 1113 1420 752 
Q 1681 391 2138 391 
Q 2594 391 2855 752 
Q 3116 1113 3116 1747 
z
M 1159 2969 
Q 1341 3281 1617 3432 
Q 1894 3584 2278 3584 
Q 2916 3584 3314 3078 
Q 3713 2572 3713 1747 
Q 3713 922 3314 415 
Q 2916 -91 2278 -91 
Q 1894 -91 1617 61 
Q 1341 213 1159 525 
L 1159 0 
L 581 0 
L 581 4863 
L 1159 4863 
L 1159 2969 
z
" transform="scale(0.015625)"/>
       <path id="DejaVuSans-66" d="M 2375 4863 
L 2375 4384 
L 1825 4384 
Q 1516 4384 1395 4259 
Q 1275 4134 1275 3809 
L 1275 3500 
L 2222 3500 
L 2222 3053 
L 1275 3053 
L 1275 0 
L 697 0 
L 697 3053 
L 147 3053 
L 147 3500 
L 697 3500 
L 697 3744 
Q 697 4328 969 4595 
Q 1241 4863 1831 4863 
L 2375 4863 
z
" transform="scale(0.015625)"/>
       <path id="DejaVuSans-e9" d="M 3597 1894 
L 3597 1613 
L 953 1613 
Q 991 1019 1311 708 
Q 1631 397 2203 397 
Q 2534 397 2845 478 
Q 3156 559 3463 722 
L 3463 178 
Q 3153 47 2828 -22 
Q 2503 -91 2169 -91 
Q 1331 -91 842 396 
Q 353 884 353 1716 
Q 353 2575 817 3079 
Q 1281 3584 2069 3584 
Q 2775 3584 3186 3129 
Q 3597 2675 3597 1894 
z
M 3022 2063 
Q 3016 2534 2758 2815 
Q 2500 3097 2075 3097 
Q 1594 3097 1305 2825 
Q 1016 2553 972 2059 
L 3022 2063 
z
M 2466 5119 
L 3088 5119 
L 2070 3944 
L 1591 3944 
L 2466 5119 
z
" transform="scale(0.015625)"/>
       <path id="DejaVuSans-70" d="M 1159 525 
L 1159 -1331 
L 581 -1331 
L 581 3500 
L 1159 3500 
L 1159 2969 
Q 1341 3281 1617 3432 
Q 1894 3584 2278 3584 
Q 2916 3584 3314 3078 
Q 3713 2572 3713 1747 
Q 3713 922 3314 415 
Q 2916 -91 2278 -91 
Q 1894 -91 1617 61 
Q 1341 213 1159 525 
z
M 3116 1747 
Q 3116 2381 2855 2742 
Q 2594 3103 2138 3103 
Q 1681 3103 1420 2742 
Q 1159 2381 1159 1747 
Q 1159 1113 1420 752 
Q 1681 391 2138 391 
Q 2594 391 2855 752 
Q 3116 1113 3116 1747 
z
" transform="scale(0.015625)"/>
       <path id="DejaVuSans-74" d="M 1172 4494 
L 1172 3500 
L 2356 3500 
L 2356 3053 
L 1172 3053 
L 1172 1153 
Q 1172 725 1289 603 
Q 1406 481 1766 481 
L 2356 481 
L 2356 0 
L 1766 0 
Q 1100 0 847 248 
Q 594 497 594 1153 
L 594 3053 
L 172 3053 
L 172 3500 
L 594 3500 
L 594 4494 
L 1172 4494 
z
" transform="scale(0.015625)"/>
       <path id="DejaVuSans-29" d="M 513 4856 
L 1013 4856 
Q 1481 4119 1714 3412 
Q 1947 2706 1947 2009 
Q 1947 1309 1714 600 
Q 1481 -109 1013 -844 
L 513 -844 
Q 928 -128 1133 580 
Q 1338 1288 1338 2009 
Q 1338 2731 1133 3434 
Q 928 4138 513 4856 
z
" transform="scale(0.015625)"/>
      </defs>
      <use xlink:href="#DejaVuSans-44" transform="translate(0 0.015625)"/>
      <use xlink:href="#DejaVuSans-69" transform="translate(77.001953 0.015625)"/>
      <use xlink:href="#DejaVuSans-73" transform="translate(104.785156 0.015625)"/>
      <use xlink:href="#DejaVuSans-63" transform="translate(156.884766 0.015625)"/>
      <use xlink:href="#DejaVuSans-6f" transform="translate(211.865234 0.015625)"/>
      <use xlink:href="#DejaVuSans-72" transform="translate(273.046875 0.015625)"/>
      <use xlink:href="#DejaVuSans-64" transform="translate(314.160156 0.015625)"/>
      <use xlink:href="#DejaVuSans-61" transform="translate(377.636719 0.015625)"/>
      <use xlink:href="#DejaVuSans-6e" transform="translate(438.916016 0.015625)"/>
      <use xlink:href="#DejaVuSans-63" transform="translate(502.294922 0.015625)"/>
      <use xlink:href="#DejaVuSans-65" transform="translate(557.275391 0.015625)"/>
      <use xlink:href="#DejaVuSans-73" transform="translate(618.798828 0.015625)"/>
      <use xlink:href="#DejaVuSans-20" transform="translate(670.898438 0.015625)"/>
      <use xlink:href="#DejaVuSans-Oblique-4b" transform="translate(702.685547 0.015625)"/>
      <use xlink:href="#DejaVuSans-Oblique-69" transform="translate(768.261719 -16.390625) scale(0.7)"/>
      <use xlink:href="#DejaVuSans-Oblique-6a" transform="translate(787.709961 -16.390625) scale(0.7)"/>
      <use xlink:href="#DejaVuSans-20" transform="translate(809.892578 0.015625)"/>
      <use xlink:href="#DejaVuSans-28" transform="translate(841.679688 0.015625)"/>
      <use xlink:href="#DejaVuSans-6e" transform="translate(880.693359 0.015625)"/>
      <use xlink:href="#DejaVuSans-6f" transform="translate(944.072266 0.015625)"/>
      <use xlink:href="#DejaVuSans-6d" transform="translate(1005.253906 0.015625)"/>
      <use xlink:href="#DejaVuSans-62" transform="translate(1102.666016 0.015625)"/>
      <use xlink:href="#DejaVuSans-72" transform="translate(1166.142578 0.015625)"/>
      <use xlink:href="#DejaVuSans-65" transform="translate(1207.255859 0.015625)"/>
      <use xlink:href="#DejaVuSans-20" transform="translate(1268.779297 0.015625)"/>
      <use xlink:href="#DejaVuSans-64" transform="translate(1300.566406 0.015625)"/>
      <use xlink:href="#DejaVuSans-65" transform="translate(1364.042969 0.015625)"/>
      <use xlink:href="#DejaVuSans-20" transform="translate(1425.566406 0.015625)"/>
      <use xlink:href="#DejaVuSans-64" transform="translate(1457.353516 0.015625)"/>
      <use xlink:href="#DejaVuSans-69" transform="translate(1520.830078 0.015625)"/>
      <use xlink:href="#DejaVuSans-66" transform="translate(1548.613281 0.015625)"/>
      <use xlink:href="#DejaVuSans-66" transform="translate(1583.818359 0.015625)"/>
      <use xlink:href="#DejaVuSans-e9" transform="translate(1619.023438 0.015625)"/>
      <use xlink:href="#DejaVuSans-72" transform="translate(1680.546875 0.015625)"/>
      <use xlink:href="#DejaVuSans-65" transform="translate(1721.660156 0.015625)"/>
      <use xlink:href="#DejaVuSans-6e" transform="translate(1783.183594 0.015625)"/>
      <use xlink:href="#DejaVuSans-63" transform="translate(1846.5625 0.015625)"/>
      <use xlink:href="#DejaVuSans-65" transform="translate(1901.542969 0.015625)"/>
      <use xlink:href="#DejaVuSans-73" transform="translate(1963.066406 0.015625)"/>
      <use xlink:href="#DejaVuSans-20" transform="translate(2015.166016 0.015625)"/>
      <use xlink:href="#DejaVuSans-70" transform="translate(2046.953125 0.015625)"/>
      <use xlink:href="#DejaVuSans-61" transform="translate(2110.429688 0.015625)"/>
      <use xlink:href="#DejaVuSans-72" transform="translate(2171.708984 0.015625)"/>
      <use xlink:href="#DejaVuSans-20" transform="translate(2212.822266 0.015625)"/>
      <use xlink:href="#DejaVuSans-73" transform="translate(2244.609375 0.015625)"/>
      <use xlink:href="#DejaVuSans-69" transform="translate(2296.708984 0.015625)"/>
      <use xlink:href="#DejaVuSans-74" transform="translate(2324.492188 0.015625)"/>
      <use xlink:href="#DejaVuSans-65" transform="translate(2363.701172 0.015625)"/>
      <use xlink:href="#DejaVuSans-29" transform="translate(2425.224609 0.015625)"/>
     </g>
    </g>
   </g>
   <g id="matplotlib.axis_2">
    <g id="ytick_1">
     <g id="line2d_6">
      <defs>
       <path id="mef3aa7dea4" d="M 0 0 
L -3.5 0 
" style="stroke: #000000; stroke-width: 0.8"/>
      </defs>
      <g>
       <use xlink:href="#mef3aa7dea4" x="54.02" y="241.504" style="stroke: #000000; stroke-width: 0.8"/>
      </g>
     </g>
     <g id="text_7">
      <!-- 0.00 -->
      <g transform="translate(24.754375 245.303219) scale(0.1 -0.1)">
       <defs>
        <path id="DejaVuSans-2e" d="M 684 794 
L 1344 794 
L 1344 0 
L 684 0 
L 684 794 
z
" transform="scale(0.015625)"/>
       </defs>
       <use xlink:href="#DejaVuSans-30"/>
       <use xlink:href="#DejaVuSans-2e" x="63.623047"/>
       <use xlink:href="#DejaVuSans-30" x="95.410156"/>
       <use xlink:href="#DejaVuSans-30" x="159.033203"/>
      </g>
     </g>
    </g>
    <g id="ytick_2">
     <g id="line2d_7">
      <g>
       <use xlink:href="#mef3aa7dea4" x="54.02" y="200.265682" style="stroke: #000000; stroke-width: 0.8"/>
      </g>
     </g>
     <g id="text_8">
      <!-- 0.02 -->
      <g transform="translate(24.754375 204.0649) scale(0.1 -0.1)">
       <use xlink:href="#DejaVuSans-30"/>
       <use xlink:href="#DejaVuSans-2e" x="63.623047"/>
       <use xlink:href="#DejaVuSans-30" x="95.410156"/>
       <use xlink:href="#DejaVuSans-32" x="159.033203"/>
      </g>
     </g>
    </g>
    <g id="ytick_3">
     <g id="line2d_8">
      <g>
       <use xlink:href="#mef3aa7dea4" x="54.02" y="159.027363" style="stroke: #000000; stroke-width: 0.8"/>
      </g>
     </g>
     <g id="text_9">
      <!-- 0.04 -->
      <g transform="translate(24.754375 162.826582) scale(0.1 -0.1)">
       <defs>
        <path id="DejaVuSans-34" d="M 2419 4116 
L 825 1625 
L 2419 1625 
L 2419 4116 
z
M 2253 4666 
L 3047 4666 
L 3047 1625 
L 3713 1625 
L 3713 1100 
L 3047 1100 
L 3047 0 
L 2419 0 
L 2419 1100 
L 313 1100 
L 313 1709 
L 2253 4666 
z
" transform="scale(0.015625)"/>
       </defs>
       <use xlink:href="#DejaVuSans-30"/>
       <use xlink:href="#DejaVuSans-2e" x="63.623047"/>
       <use xlink:href="#DejaVuSans-30" x="95.410156"/>
       <use xlink:href="#DejaVuSans-34" x="159.033203"/>
      </g>
     </g>
    </g>
    <g id="ytick_4">
     <g id="line2d_9">
      <g>
       <use xlink:href="#mef3aa7dea4" x="54.02" y="117.789045" style="stroke: #000000; stroke-width: 0.8"/>
      </g>
     </g>
     <g id="text_10">
      <!-- 0.06 -->
      <g transform="translate(24.754375 121.588264) scale(0.1 -0.1)">
       <defs>
        <path id="DejaVuSans-36" d="M 2113 2584 
Q 1688 2584 1439 2293 
Q 1191 2003 1191 1497 
Q 1191 994 1439 701 
Q 1688 409 2113 409 
Q 2538 409 2786 701 
Q 3034 994 3034 1497 
Q 3034 2003 2786 2293 
Q 2538 2584 2113 2584 
z
M 3366 4563 
L 3366 3988 
Q 3128 4100 2886 4159 
Q 2644 4219 2406 4219 
Q 1781 4219 1451 3797 
Q 1122 3375 1075 2522 
Q 1259 2794 1537 2939 
Q 1816 3084 2150 3084 
Q 2853 3084 3261 2657 
Q 3669 2231 3669 1497 
Q 3669 778 3244 343 
Q 2819 -91 2113 -91 
Q 1303 -91 875 529 
Q 447 1150 447 2328 
Q 447 3434 972 4092 
Q 1497 4750 2381 4750 
Q 2619 4750 2861 4703 
Q 3103 4656 3366 4563 
z
" transform="scale(0.015625)"/>
       </defs>
       <use xlink:href="#DejaVuSans-30"/>
       <use xlink:href="#DejaVuSans-2e" x="63.623047"/>
       <use xlink:href="#DejaVuSans-30" x="95.410156"/>
       <use xlink:href="#DejaVuSans-36" x="159.033203"/>
      </g>
     </g>
    </g>
    <g id="ytick_5">
     <g id="line2d_10">
      <g>
       <use xlink:href="#mef3aa7dea4" x="54.02" y="76.550727" style="stroke: #000000; stroke-width: 0.8"/>
      </g>
     </g>
     <g id="text_11">
      <!-- 0.08 -->
      <g transform="translate(24.754375 80.349946) scale(0.1 -0.1)">
       <defs>
        <path id="DejaVuSans-38" d="M 2034 2216 
Q 1584 2216 1326 1975 
Q 1069 1734 1069 1313 
Q 1069 891 1326 650 
Q 1584 409 2034 409 
Q 2484 409 2743 651 
Q 3003 894 3003 1313 
Q 3003 1734 2745 1975 
Q 2488 2216 2034 2216 
z
M 1403 2484 
Q 997 2584 770 2862 
Q 544 3141 544 3541 
Q 544 4100 942 4425 
Q 1341 4750 2034 4750 
Q 2731 4750 3128 4425 
Q 3525 4100 3525 3541 
Q 3525 3141 3298 2862 
Q 3072 2584 2669 2484 
Q 3125 2378 3379 2068 
Q 3634 1759 3634 1313 
Q 3634 634 3220 271 
Q 2806 -91 2034 -91 
Q 1263 -91 848 271 
Q 434 634 434 1313 
Q 434 1759 690 2068 
Q 947 2378 1403 2484 
z
M 1172 3481 
Q 1172 3119 1398 2916 
Q 1625 2713 2034 2713 
Q 2441 2713 2670 2916 
Q 2900 3119 2900 3481 
Q 2900 3844 2670 4047 
Q 2441 4250 2034 4250 
Q 1625 4250 1398 4047 
Q 1172 3844 1172 3481 
z
" transform="scale(0.015625)"/>
       </defs>
       <use xlink:href="#DejaVuSans-30"/>
       <use xlink:href="#DejaVuSans-2e" x="63.623047"/>
       <use xlink:href="#DejaVuSans-30" x="95.410156"/>
       <use xlink:href="#DejaVuSans-38" x="159.033203"/>
      </g>
     </g>
    </g>
    <g id="ytick_6">
     <g id="line2d_11">
      <g>
       <use xlink:href="#mef3aa7dea4" x="54.02" y="35.312408" style="stroke: #000000; stroke-width: 0.8"/>
      </g>
     </g>
     <g id="text_12">
      <!-- 0.10 -->
      <g transform="translate(24.754375 39.111627) scale(0.1 -0.1)">
       <use xlink:href="#DejaVuSans-30"/>
       <use xlink:href="#DejaVuSans-2e" x="63.623047"/>
       <use xlink:href="#DejaVuSans-31" x="95.410156"/>
       <use xlink:href="#DejaVuSans-30" x="159.033203"/>
      </g>
     </g>
    </g>
    <g id="text_13">
     <!-- Probabilité -->
     <g transform="translate(18.674688 161.890094) rotate(-90) scale(0.1 -0.1)">
      <defs>
       <path id="DejaVuSans-50" d="M 1259 4147 
L 1259 2394 
L 2053 2394 
Q 2494 2394 2734 2622 
Q 2975 2850 2975 3272 
Q 2975 3691 2734 3919 
Q 2494 4147 2053 4147 
L 1259 4147 
z
M 628 4666 
L 2053 4666 
Q 2838 4666 3239 4311 
Q 3641 3956 3641 3272 
Q 3641 2581 3239 2228 
Q 2838 1875 2053 1875 
L 1259 1875 
L 1259 0 
L 628 0 
L 628 4666 
z
" transform="scale(0.015625)"/>
       <path id="DejaVuSans-6c" d="M 603 4863 
L 1178 4863 
L 1178 0 
L 603 0 
L 603 4863 
z
" transform="scale(0.015625)"/>
      </defs>
      <use xlink:href="#DejaVuSans-50"/>
      <use xlink:href="#DejaVuSans-72" x="58.552734"/>
      <use xlink:href="#DejaVuSans-6f" x="97.416016"/>
      <use xlink:href="#DejaVuSans-62" x="158.597656"/>
      <use xlink:href="#DejaVuSans-61" x="222.074219"/>
      <use xlink:href="#DejaVuSans-62" x="283.353516"/>
      <use xlink:href="#DejaVuSans-69" x="346.830078"/>
      <use xlink:href="#DejaVuSans-6c" x="374.613281"/>
      <use xlink:href="#DejaVuSans-69" x="402.396484"/>
      <use xlink:href="#DejaVuSans-74" x="430.179688"/>
      <use xlink:href="#DejaVuSans-e9" x="469.388672"/>
     </g>
    </g>
   </g>
   <g id="line2d_12">
    <path d="M 54.02 212.306311 
L 66.697826 212.306311 
L 66.697826 211.312348 
L 92.053478 211.312348 
L 92.053478 204.913705 
L 117.40913 204.913705 
L 117.40913 190.376984 
L 142.764783 190.376984 
L 142.764783 165.279396 
L 168.120435 165.279396 
L 168.120435 137.013549 
L 193.476087 137.013549 
L 193.476087 98.621694 
L 218.831739 98.621694 
L 218.831739 62.528382 
L 244.187391 62.528382 
L 244.187391 48.612887 
L 269.543043 48.612887 
L 269.543043 39.294476 
L 294.898696 39.294476 
L 294.898696 49.731097 
L 320.254348 49.731097 
L 320.254348 71.78467 
L 345.61 71.78467 
L 345.61 95.950417 
L 370.965652 95.950417 
L 370.965652 123.284423 
L 396.321304 123.284423 
L 396.321304 143.971296 
L 421.676957 143.971296 
L 421.676957 165.217273 
L 447.032609 165.217273 
L 447.032609 184.599569 
L 472.388261 184.599569 
L 472.388261 196.899872 
L 497.743913 196.899872 
L 497.743913 209.635034 
L 523.099565 209.635034 
L 523.099565 215.785185 
L 548.455217 215.785185 
L 548.455217 222.742932 
L 573.81087 222.742932 
L 573.81087 226.283928 
L 599.166522 226.283928 
L 599.166522 230.756766 
L 624.522174 230.756766 
L 624.522174 227.277892 
L 637.2 227.277892 
" clip-path="url(#pfbe04d6952)" style="fill: none; stroke: #1f77b4; stroke-width: 1.2; stroke-linecap: square"/>
   </g>
   <g id="line2d_13">
    <path d="M 54.02 222.887775 
L 66.697826 222.887775 
L 66.697826 221.228903 
L 92.053478 221.228903 
L 92.053478 213.118864 
L 117.40913 213.118864 
L 117.40913 196.898787 
L 142.764783 196.898787 
L 142.764783 176.316491 
L 168.120435 176.316491 
L 168.120435 146.948321 
L 193.476087 146.948321 
L 193.476087 124.154197 
L 218.831739 124.154197 
L 218.831739 84.587038 
L 244.187391 84.587038 
L 244.187391 59.151007 
L 269.543043 59.151007 
L 269.543043 48.890579 
L 294.898696 48.890579 
L 294.898696 43.299568 
L 320.254348 43.299568 
L 320.254348 52.76128 
L 345.61 52.76128 
L 345.61 69.902953 
L 370.965652 69.902953 
L 370.965652 93.557232 
L 396.321304 93.557232 
L 396.321304 118.747504 
L 421.676957 118.747504 
L 421.676957 148.97583 
L 447.032609 148.97583 
L 447.032609 175.026258 
L 472.388261 175.026258 
L 472.388261 188.911627 
L 497.743913 188.911627 
L 497.743913 203.411394 
L 523.099565 203.411394 
L 523.099565 216.436607 
L 548.455217 216.436607 
L 548.455217 225.652561 
L 573.81087 225.652561 
L 573.81087 232.349487 
L 599.166522 232.349487 
L 599.166522 235.298592 
L 624.522174 235.298592 
L 624.522174 235.66723 
L 637.2 235.66723 
" clip-path="url(#pfbe04d6952)" style="fill: none; stroke: #d62728; stroke-width: 1.2; stroke-linecap: square"/>
   </g>
   <g id="patch_51">
    <path d="M 54.02 241.504 
L 54.02 29.184 
" style="fill: none; stroke: #000000; stroke-width: 0.8; stroke-linejoin: miter; stroke-linecap: square"/>
   </g>
   <g id="patch_52">
    <path d="M 637.2 241.504 
L 637.2 29.184 
" style="fill: none; stroke: #000000; stroke-width: 0.8; stroke-linejoin: miter; stroke-linecap: square"/>
   </g>
   <g id="patch_53">
    <path d="M 54.02 241.504 
L 637.2 241.504 
" style="fill: none; stroke: #000000; stroke-width: 0.8; stroke-linejoin: miter; stroke-linecap: square"/>
   </g>
   <g id="patch_54">
    <path d="M 54.02 29.184 
L 637.2 29.184 
" style="fill: none; stroke: #000000; stroke-width: 0.8; stroke-linejoin: miter; stroke-linecap: square"/>
   </g>
   <g id="text_14">
    <!-- Histogramme des discordances $K_{ij}$ issues de 200 lignées (120 réalisations et $d_*=10.0$) -->
    <g transform="translate(83.29 23.184) scale(0.12 -0.12)">
     <defs>
      <path id="DejaVuSans-48" d="M 628 4666 
L 1259 4666 
L 1259 2753 
L 3553 2753 
L 3553 4666 
L 4184 4666 
L 4184 0 
L 3553 0 
L 3553 2222 
L 1259 2222 
L 1259 0 
L 628 0 
L 628 4666 
z
" transform="scale(0.015625)"/>
      <path id="DejaVuSans-67" d="M 2906 1791 
Q 2906 2416 2648 2759 
Q 2391 3103 1925 3103 
Q 1463 3103 1205 2759 
Q 947 2416 947 1791 
Q 947 1169 1205 825 
Q 1463 481 1925 481 
Q 2391 481 2648 825 
Q 2906 1169 2906 1791 
z
M 3481 434 
Q 3481 -459 3084 -895 
Q 2688 -1331 1869 -1331 
Q 1566 -1331 1297 -1286 
Q 1028 -1241 775 -1147 
L 775 -588 
Q 1028 -725 1275 -790 
Q 1522 -856 1778 -856 
Q 2344 -856 2625 -561 
Q 2906 -266 2906 331 
L 2906 616 
Q 2728 306 2450 153 
Q 2172 0 1784 0 
Q 1141 0 747 490 
Q 353 981 353 1791 
Q 353 2603 747 3093 
Q 1141 3584 1784 3584 
Q 2172 3584 2450 3431 
Q 2728 3278 2906 2969 
L 2906 3500 
L 3481 3500 
L 3481 434 
z
" transform="scale(0.015625)"/>
      <path id="DejaVuSans-75" d="M 544 1381 
L 544 3500 
L 1119 3500 
L 1119 1403 
Q 1119 906 1312 657 
Q 1506 409 1894 409 
Q 2359 409 2629 706 
Q 2900 1003 2900 1516 
L 2900 3500 
L 3475 3500 
L 3475 0 
L 2900 0 
L 2900 538 
Q 2691 219 2414 64 
Q 2138 -91 1772 -91 
Q 1169 -91 856 284 
Q 544 659 544 1381 
z
M 1991 3584 
L 1991 3584 
z
" transform="scale(0.015625)"/>
      <path id="DejaVuSans-Oblique-64" d="M 2675 525 
Q 2444 222 2128 65 
Q 1813 -91 1428 -91 
Q 903 -91 598 267 
Q 294 625 294 1247 
Q 294 1766 478 2236 
Q 663 2706 1013 3078 
Q 1244 3325 1534 3454 
Q 1825 3584 2144 3584 
Q 2481 3584 2739 3421 
Q 2997 3259 3138 2956 
L 3513 4863 
L 4091 4863 
L 3144 0 
L 2566 0 
L 2675 525 
z
M 891 1350 
Q 891 897 1095 644 
Q 1300 391 1663 391 
Q 1931 391 2161 520 
Q 2391 650 2566 903 
Q 2750 1166 2856 1509 
Q 2963 1853 2963 2188 
Q 2963 2622 2758 2865 
Q 2553 3109 2194 3109 
Q 1922 3109 1687 2981 
Q 1453 2853 1288 2613 
Q 1106 2353 998 2009 
Q 891 1666 891 1350 
z
" transform="scale(0.015625)"/>
      <path id="DejaVuSans-2a" d="M 3009 3897 
L 1888 3291 
L 3009 2681 
L 2828 2375 
L 1778 3009 
L 1778 1831 
L 1422 1831 
L 1422 3009 
L 372 2375 
L 191 2681 
L 1313 3291 
L 191 3897 
L 372 4206 
L 1422 3572 
L 1422 4750 
L 1778 4750 
L 1778 3572 
L 2828 4206 
L 3009 3897 
z
" transform="scale(0.015625)"/>
      <path id="DejaVuSans-3d" d="M 678 2906 
L 4684 2906 
L 4684 2381 
L 678 2381 
L 678 2906 
z
M 678 1631 
L 4684 1631 
L 4684 1100 
L 678 1100 
L 678 1631 
z
" transform="scale(0.015625)"/>
     </defs>
     <use xlink:href="#DejaVuSans-48" transform="translate(0 0.015625)"/>
     <use xlink:href="#DejaVuSans-69" transform="translate(75.195312 0.015625)"/>
     <use xlink:href="#DejaVuSans-73" transform="translate(102.978516 0.015625)"/>
     <use xlink:href="#DejaVuSans-74" transform="translate(155.078125 0.015625)"/>
     <use xlink:href="#DejaVuSans-6f" transform="translate(194.287109 0.015625)"/>
     <use xlink:href="#DejaVuSans-67" transform="translate(255.46875 0.015625)"/>
     <use xlink:href="#DejaVuSans-72" transform="translate(318.945312 0.015625)"/>
     <use xlink:href="#DejaVuSans-61" transform="translate(360.058594 0.015625)"/>
     <use xlink:href="#DejaVuSans-6d" transform="translate(421.337891 0.015625)"/>
     <use xlink:href="#DejaVuSans-6d" transform="translate(518.75 0.015625)"/>
     <use xlink:href="#DejaVuSans-65" transform="translate(616.162109 0.015625)"/>
     <use xlink:href="#DejaVuSans-20" transform="translate(677.685547 0.015625)"/>
     <use xlink:href="#DejaVuSans-64" transform="translate(709.472656 0.015625)"/>
     <use xlink:href="#DejaVuSans-65" transform="translate(772.949219 0.015625)"/>
     <use xlink:href="#DejaVuSans-73" transform="translate(834.472656 0.015625)"/>
     <use xlink:href="#DejaVuSans-20" transform="translate(886.572266 0.015625)"/>
     <use xlink:href="#DejaVuSans-64" transform="translate(918.359375 0.015625)"/>
     <use xlink:href="#DejaVuSans-69" transform="translate(981.835938 0.015625)"/>
     <use xlink:href="#DejaVuSans-73" transform="translate(1009.619141 0.015625)"/>
     <use xlink:href="#DejaVuSans-63" transform="translate(1061.71875 0.015625)"/>
     <use xlink:href="#DejaVuSans-6f" transform="translate(1116.699219 0.015625)"/>
     <use xlink:href="#DejaVuSans-72" transform="translate(1177.880859 0.015625)"/>
     <use xlink:href="#DejaVuSans-64" transform="translate(1218.994141 0.015625)"/>
     <use xlink:href="#DejaVuSans-61" transform="translate(1282.470703 0.015625)"/>
     <use xlink:href="#DejaVuSans-6e" transform="translate(1343.75 0.015625)"/>
     <use xlink:href="#DejaVuSans-63" transform="translate(1407.128906 0.015625)"/>
     <use xlink:href="#DejaVuSans-65" transform="translate(1462.109375 0.015625)"/>
     <use xlink:href="#DejaVuSans-73" transform="translate(1523.632812 0.015625)"/>
     <use xlink:href="#DejaVuSans-20" transform="translate(1575.732422 0.015625)"/>
     <use xlink:href="#DejaVuSans-Oblique-4b" transform="translate(1607.519531 0.015625)"/>
     <use xlink:href="#DejaVuSans-Oblique-69" transform="translate(1673.095703 -16.390625) scale(0.7)"/>
     <use xlink:href="#DejaVuSans-Oblique-6a" transform="translate(1692.543945 -16.390625) scale(0.7)"/>
     <use xlink:href="#DejaVuSans-20" transform="translate(1714.726562 0.015625)"/>
     <use xlink:href="#DejaVuSans-69" transform="translate(1746.513672 0.015625)"/>
     <use xlink:href="#DejaVuSans-73" transform="translate(1774.296875 0.015625)"/>
     <use xlink:href="#DejaVuSans-73" transform="translate(1826.396484 0.015625)"/>
     <use xlink:href="#DejaVuSans-75" transform="translate(1878.496094 0.015625)"/>
     <use xlink:href="#DejaVuSans-65" transform="translate(1941.875 0.015625)"/>
     <use xlink:href="#DejaVuSans-73" transform="translate(2003.398438 0.015625)"/>
     <use xlink:href="#DejaVuSans-20" transform="translate(2055.498047 0.015625)"/>
     <use xlink:href="#DejaVuSans-64" transform="translate(2087.285156 0.015625)"/>
     <use xlink:href="#DejaVuSans-65" transform="translate(2150.761719 0.015625)"/>
     <use xlink:href="#DejaVuSans-20" transform="translate(2212.285156 0.015625)"/>
     <use xlink:href="#DejaVuSans-32" transform="translate(2244.072266 0.015625)"/>
     <use xlink:href="#DejaVuSans-30" transform="translate(2307.695312 0.015625)"/>
     <use xlink:href="#DejaVuSans-30" transform="translate(2371.318359 0.015625)"/>
     <use xlink:href="#DejaVuSans-20" transform="translate(2434.941406 0.015625)"/>
     <use xlink:href="#DejaVuSans-6c" transform="translate(2466.728516 0.015625)"/>
     <use xlink:href="#DejaVuSans-69" transform="translate(2494.511719 0.015625)"/>
     <use xlink:href="#DejaVuSans-67" transform="translate(2522.294922 0.015625)"/>
     <use xlink:href="#DejaVuSans-6e" transform="translate(2585.771484 0.015625)"/>
     <use xlink:href="#DejaVuSans-e9" transform="translate(2649.150391 0.015625)"/>
     <use xlink:href="#DejaVuSans-65" transform="translate(2710.673828 0.015625)"/>
     <use xlink:href="#DejaVuSans-73" transform="translate(2772.197266 0.015625)"/>
     <use xlink:href="#DejaVuSans-20" transform="translate(2824.296875 0.015625)"/>
     <use xlink:href="#DejaVuSans-28" transform="translate(2856.083984 0.015625)"/>
     <use xlink:href="#DejaVuSans-31" transform="translate(2895.097656 0.015625)"/>
     <use xlink:href="#DejaVuSans-32" transform="translate(2958.720703 0.015625)"/>
     <use xlink:href="#DejaVuSans-30" transform="translate(3022.34375 0.015625)"/>
     <use xlink:href="#DejaVuSans-20" transform="translate(3085.966797 0.015625)"/>
     <use xlink:href="#DejaVuSans-72" transform="translate(3117.753906 0.015625)"/>
     <use xlink:href="#DejaVuSans-e9" transform="translate(3158.867188 0.015625)"/>
     <use xlink:href="#DejaVuSans-61" transform="translate(3220.390625 0.015625)"/>
     <use xlink:href="#DejaVuSans-6c" transform="translate(3281.669922 0.015625)"/>
     <use xlink:href="#DejaVuSans-69" transform="translate(3309.453125 0.015625)"/>
     <use xlink:href="#DejaVuSans-73" transform="translate(3337.236328 0.015625)"/>
     <use xlink:href="#DejaVuSans-61" transform="translate(3389.335938 0.015625)"/>
     <use xlink:href="#DejaVuSans-74" transform="translate(3450.615234 0.015625)"/>
     <use xlink:href="#DejaVuSans-69" transform="translate(3489.824219 0.015625)"/>
     <use xlink:href="#DejaVuSans-6f" transform="translate(3517.607422 0.015625)"/>
     <use xlink:href="#DejaVuSans-6e" transform="translate(3578.789062 0.015625)"/>
     <use xlink:href="#DejaVuSans-73" transform="translate(3642.167969 0.015625)"/>
     <use xlink:href="#DejaVuSans-20" transform="translate(3694.267578 0.015625)"/>
     <use xlink:href="#DejaVuSans-65" transform="translate(3726.054688 0.015625)"/>
     <use xlink:href="#DejaVuSans-74" transform="translate(3787.578125 0.015625)"/>
     <use xlink:href="#DejaVuSans-20" transform="translate(3826.787109 0.015625)"/>
     <use xlink:href="#DejaVuSans-Oblique-64" transform="translate(3858.574219 0.015625)"/>
     <use xlink:href="#DejaVuSans-2a" transform="translate(3935.688477 -16.390625) scale(0.7)"/>
     <use xlink:href="#DejaVuSans-3d" transform="translate(4006.542969 0.015625)"/>
     <use xlink:href="#DejaVuSans-31" transform="translate(4109.814453 0.015625)"/>
     <use xlink:href="#DejaVuSans-30" transform="translate(4173.4375 0.015625)"/>
     <use xlink:href="#DejaVuSans-2e" transform="translate(4237.060547 0.015625)"/>
     <use xlink:href="#DejaVuSans-30" transform="translate(4268.847656 0.015625)"/>
     <use xlink:href="#DejaVuSans-29" transform="translate(4332.470703 0.015625)"/>
    </g>
   </g>
   <g id="legend_1">
    <g id="patch_55">
     <path d="M 401.6 59.4065 
L 631.6 59.4065 
Q 633.2 59.4065 633.2 57.8065 
L 633.2 34.784 
Q 633.2 33.184 631.6 33.184 
L 401.6 33.184 
Q 400 33.184 400 34.784 
L 400 57.8065 
Q 400 59.4065 401.6 59.4065 
z
" style="fill: #ffffff; opacity: 0.8; stroke: #cccccc; stroke-linejoin: miter"/>
    </g>
    <g id="patch_56">
     <path d="M 403.2 42.784 
L 419.2 42.784 
L 419.2 37.184 
L 403.2 37.184 
z
" style="fill: #1f77b4; opacity: 0.4"/>
    </g>
    <g id="text_15">
     <!-- Kingman 2 époques : $(c_0,c_1,\theta)$=(0.0141,0.306,7.2) -->
     <g transform="translate(425.6 42.784) scale(0.08 -0.08)">
      <defs>
       <path id="DejaVuSans-4b" d="M 628 4666 
L 1259 4666 
L 1259 2694 
L 3353 4666 
L 4166 4666 
L 1850 2491 
L 4331 0 
L 3500 0 
L 1259 2247 
L 1259 0 
L 628 0 
L 628 4666 
z
" transform="scale(0.015625)"/>
       <path id="DejaVuSans-71" d="M 947 1747 
Q 947 1113 1208 752 
Q 1469 391 1925 391 
Q 2381 391 2643 752 
Q 2906 1113 2906 1747 
Q 2906 2381 2643 2742 
Q 2381 3103 1925 3103 
Q 1469 3103 1208 2742 
Q 947 2381 947 1747 
z
M 2906 525 
Q 2725 213 2448 61 
Q 2172 -91 1784 -91 
Q 1150 -91 751 415 
Q 353 922 353 1747 
Q 353 2572 751 3078 
Q 1150 3584 1784 3584 
Q 2172 3584 2448 3432 
Q 2725 3281 2906 2969 
L 2906 3500 
L 3481 3500 
L 3481 -1331 
L 2906 -1331 
L 2906 525 
z
" transform="scale(0.015625)"/>
       <path id="DejaVuSans-3a" d="M 750 794 
L 1409 794 
L 1409 0 
L 750 0 
L 750 794 
z
M 750 3309 
L 1409 3309 
L 1409 2516 
L 750 2516 
L 750 3309 
z
" transform="scale(0.015625)"/>
       <path id="DejaVuSans-Oblique-63" d="M 3431 3366 
L 3316 2797 
Q 3109 2947 2876 3022 
Q 2644 3097 2394 3097 
Q 2119 3097 1870 3000 
Q 1622 2903 1453 2725 
Q 1184 2453 1037 2087 
Q 891 1722 891 1331 
Q 891 859 1127 628 
Q 1363 397 1844 397 
Q 2081 397 2348 469 
Q 2616 541 2906 684 
L 2797 116 
Q 2547 13 2283 -39 
Q 2019 -91 1741 -91 
Q 1044 -91 669 257 
Q 294 606 294 1253 
Q 294 1797 489 2255 
Q 684 2713 1069 3078 
Q 1331 3328 1684 3456 
Q 2038 3584 2456 3584 
Q 2700 3584 2940 3529 
Q 3181 3475 3431 3366 
z
" transform="scale(0.015625)"/>
       <path id="DejaVuSans-2c" d="M 750 794 
L 1409 794 
L 1409 256 
L 897 -744 
L 494 -744 
L 750 256 
L 750 794 
z
" transform="scale(0.015625)"/>
       <path id="DejaVuSans-Oblique-3b8" d="M 2913 2219 
L 925 2219 
Q 791 1284 928 888 
Q 1100 400 1566 400 
Q 2034 400 2391 891 
Q 2703 1322 2913 2219 
z
M 3009 2750 
Q 3094 3638 2984 3950 
Q 2813 4444 2353 4444 
Q 1875 4444 1525 3956 
Q 1250 3563 1034 2750 
L 3009 2750 
z
M 2444 4913 
Q 3194 4913 3494 4250 
Q 3794 3591 3566 2422 
Q 3341 1256 2781 594 
Q 2225 -72 1475 -72 
Q 722 -72 425 594 
Q 128 1256 353 2422 
Q 581 3591 1134 4250 
Q 1691 4913 2444 4913 
z
" transform="scale(0.015625)"/>
       <path id="DejaVuSans-33" d="M 2597 2516 
Q 3050 2419 3304 2112 
Q 3559 1806 3559 1356 
Q 3559 666 3084 287 
Q 2609 -91 1734 -91 
Q 1441 -91 1130 -33 
Q 819 25 488 141 
L 488 750 
Q 750 597 1062 519 
Q 1375 441 1716 441 
Q 2309 441 2620 675 
Q 2931 909 2931 1356 
Q 2931 1769 2642 2001 
Q 2353 2234 1838 2234 
L 1294 2234 
L 1294 2753 
L 1863 2753 
Q 2328 2753 2575 2939 
Q 2822 3125 2822 3475 
Q 2822 3834 2567 4026 
Q 2313 4219 1838 4219 
Q 1578 4219 1281 4162 
Q 984 4106 628 3988 
L 628 4550 
Q 988 4650 1302 4700 
Q 1616 4750 1894 4750 
Q 2613 4750 3031 4423 
Q 3450 4097 3450 3541 
Q 3450 3153 3228 2886 
Q 3006 2619 2597 2516 
z
" transform="scale(0.015625)"/>
       <path id="DejaVuSans-37" d="M 525 4666 
L 3525 4666 
L 3525 4397 
L 1831 0 
L 1172 0 
L 2766 4134 
L 525 4134 
L 525 4666 
z
" transform="scale(0.015625)"/>
      </defs>
      <use xlink:href="#DejaVuSans-4b" transform="translate(0 0.015625)"/>
      <use xlink:href="#DejaVuSans-69" transform="translate(65.576172 0.015625)"/>
      <use xlink:href="#DejaVuSans-6e" transform="translate(93.359375 0.015625)"/>
      <use xlink:href="#DejaVuSans-67" transform="translate(156.738281 0.015625)"/>
      <use xlink:href="#DejaVuSans-6d" transform="translate(220.214844 0.015625)"/>
      <use xlink:href="#DejaVuSans-61" transform="translate(317.626953 0.015625)"/>
      <use xlink:href="#DejaVuSans-6e" transform="translate(378.90625 0.015625)"/>
      <use xlink:href="#DejaVuSans-20" transform="translate(442.285156 0.015625)"/>
      <use xlink:href="#DejaVuSans-32" transform="translate(474.072266 0.015625)"/>
      <use xlink:href="#DejaVuSans-20" transform="translate(537.695312 0.015625)"/>
      <use xlink:href="#DejaVuSans-e9" transform="translate(569.482422 0.015625)"/>
      <use xlink:href="#DejaVuSans-70" transform="translate(631.005859 0.015625)"/>
      <use xlink:href="#DejaVuSans-6f" transform="translate(694.482422 0.015625)"/>
      <use xlink:href="#DejaVuSans-71" transform="translate(755.664062 0.015625)"/>
      <use xlink:href="#DejaVuSans-75" transform="translate(819.140625 0.015625)"/>
      <use xlink:href="#DejaVuSans-65" transform="translate(882.519531 0.015625)"/>
      <use xlink:href="#DejaVuSans-73" transform="translate(944.042969 0.015625)"/>
      <use xlink:href="#DejaVuSans-20" transform="translate(996.142578 0.015625)"/>
      <use xlink:href="#DejaVuSans-3a" transform="translate(1027.929688 0.015625)"/>
      <use xlink:href="#DejaVuSans-20" transform="translate(1061.621094 0.015625)"/>
      <use xlink:href="#DejaVuSans-28" transform="translate(1093.408203 0.015625)"/>
      <use xlink:href="#DejaVuSans-Oblique-63" transform="translate(1132.421875 0.015625)"/>
      <use xlink:href="#DejaVuSans-30" transform="translate(1187.402344 -16.390625) scale(0.7)"/>
      <use xlink:href="#DejaVuSans-2c" transform="translate(1234.672852 0.015625)"/>
      <use xlink:href="#DejaVuSans-Oblique-63" transform="translate(1285.942383 0.015625)"/>
      <use xlink:href="#DejaVuSans-31" transform="translate(1340.922852 -16.390625) scale(0.7)"/>
      <use xlink:href="#DejaVuSans-2c" transform="translate(1388.193359 0.015625)"/>
      <use xlink:href="#DejaVuSans-Oblique-3b8" transform="translate(1439.462891 0.015625)"/>
      <use xlink:href="#DejaVuSans-29" transform="translate(1500.644531 0.015625)"/>
      <use xlink:href="#DejaVuSans-3d" transform="translate(1539.658203 0.015625)"/>
      <use xlink:href="#DejaVuSans-28" transform="translate(1623.447266 0.015625)"/>
      <use xlink:href="#DejaVuSans-30" transform="translate(1662.460938 0.015625)"/>
      <use xlink:href="#DejaVuSans-2e" transform="translate(1726.083984 0.015625)"/>
      <use xlink:href="#DejaVuSans-30" transform="translate(1757.871094 0.015625)"/>
      <use xlink:href="#DejaVuSans-31" transform="translate(1821.494141 0.015625)"/>
      <use xlink:href="#DejaVuSans-34" transform="translate(1885.117188 0.015625)"/>
      <use xlink:href="#DejaVuSans-31" transform="translate(1948.740234 0.015625)"/>
      <use xlink:href="#DejaVuSans-2c" transform="translate(2012.363281 0.015625)"/>
      <use xlink:href="#DejaVuSans-30" transform="translate(2044.150391 0.015625)"/>
      <use xlink:href="#DejaVuSans-2e" transform="translate(2107.773438 0.015625)"/>
      <use xlink:href="#DejaVuSans-33" transform="translate(2139.560547 0.015625)"/>
      <use xlink:href="#DejaVuSans-30" transform="translate(2203.183594 0.015625)"/>
      <use xlink:href="#DejaVuSans-36" transform="translate(2266.806641 0.015625)"/>
      <use xlink:href="#DejaVuSans-2c" transform="translate(2330.429688 0.015625)"/>
      <use xlink:href="#DejaVuSans-37" transform="translate(2362.216797 0.015625)"/>
      <use xlink:href="#DejaVuSans-2e" transform="translate(2425.839844 0.015625)"/>
      <use xlink:href="#DejaVuSans-32" transform="translate(2452.126953 0.015625)"/>
      <use xlink:href="#DejaVuSans-29" transform="translate(2515.75 0.015625)"/>
     </g>
    </g>
    <g id="patch_57">
     <path d="M 403.2 54.54275 
L 419.2 54.54275 
L 419.2 48.94275 
L 403.2 48.94275 
z
" style="fill: #d62728; opacity: 0.4"/>
    </g>
    <g id="text_16">
     <!-- Beta : α=1.33 -->
     <g transform="translate(425.6 54.54275) scale(0.08 -0.08)">
      <defs>
       <path id="DejaVuSans-42" d="M 1259 2228 
L 1259 519 
L 2272 519 
Q 2781 519 3026 730 
Q 3272 941 3272 1375 
Q 3272 1813 3026 2020 
Q 2781 2228 2272 2228 
L 1259 2228 
z
M 1259 4147 
L 1259 2741 
L 2194 2741 
Q 2656 2741 2882 2914 
Q 3109 3088 3109 3444 
Q 3109 3797 2882 3972 
Q 2656 4147 2194 4147 
L 1259 4147 
z
M 628 4666 
L 2241 4666 
Q 2963 4666 3353 4366 
Q 3744 4066 3744 3513 
Q 3744 3084 3544 2831 
Q 3344 2578 2956 2516 
Q 3422 2416 3680 2098 
Q 3938 1781 3938 1306 
Q 3938 681 3513 340 
Q 3088 0 2303 0 
L 628 0 
L 628 4666 
z
" transform="scale(0.015625)"/>
       <path id="DejaVuSans-3b1" d="M 2644 1628 
L 2506 2350 
Q 2366 3091 1809 3091 
Q 1391 3091 1200 2747 
Q 959 2316 959 1747 
Q 959 1059 1194 731 
Q 1431 397 1809 397 
Q 2228 397 2453 1063 
L 2644 1628 
z
M 2966 2584 
L 3275 3500 
L 3788 3500 
L 3147 1603 
L 3272 919 
Q 3300 766 3409 638 
Q 3538 488 3638 488 
L 3913 488 
L 3913 0 
L 3569 0 
Q 3275 0 3013 263 
Q 2884 394 2831 669 
Q 2688 322 2394 50 
Q 2256 -78 1809 -78 
Q 1075 -78 719 397 
Q 353 888 353 1747 
Q 353 2666 750 3097 
Q 1191 3578 1809 3578 
Q 2781 3578 2966 2584 
z
" transform="scale(0.015625)"/>
      </defs>
      <use xlink:href="#DejaVuSans-42"/>
      <use xlink:href="#DejaVuSans-65" x="68.603516"/>
      <use xlink:href="#DejaVuSans-74" x="130.126953"/>
      <use xlink:href="#DejaVuSans-61" x="169.335938"/>
      <use xlink:href="#DejaVuSans-20" x="230.615234"/>
      <use xlink:href="#DejaVuSans-3a" x="262.402344"/>
      <use xlink:href="#DejaVuSans-20" x="296.09375"/>
      <use xlink:href="#DejaVuSans-3b1" x="327.880859"/>
      <use xlink:href="#DejaVuSans-3d" x="393.798828"/>
      <use xlink:href="#DejaVuSans-31" x="477.587891"/>
      <use xlink:href="#DejaVuSans-2e" x="541.210938"/>
      <use xlink:href="#DejaVuSans-33" x="572.998047"/>
      <use xlink:href="#DejaVuSans-33" x="636.621094"/>
     </g>
    </g>
   </g>
  </g>
 </g>
 <defs>
  <clipPath id="pfbe04d6952">
   <rect x="54.02" y="29.184" width="583.18" height="212.32"/>
  </clipPath>
 </defs>
</svg>
