<?xml version="1.0" encoding="utf-8" standalone="no"?>
<!DOCTYPE svg PUBLIC "-//W3C//DTD SVG 1.1//EN"
  "http://www.w3.org/Graphics/SVG/1.1/DTD/svg11.dtd">
<svg xmlns:xlink="http://www.w3.org/1999/xlink" width="648pt" height="288pt" viewBox="0 0 648 288" xmlns="http://www.w3.org/2000/svg" version="1.1">
 <metadata>
  <rdf:RDF xmlns:dc="http://purl.org/dc/elements/1.1/" xmlns:cc="http://creativecommons.org/ns#" xmlns:rdf="http://www.w3.org/1999/02/22-rdf-syntax-ns#">
   <cc:Work>
    <dc:type rdf:resource="http://purl.org/dc/dcmitype/StillImage"/>
    <dc:date>2025-11-28T21:26:43.475744</dc:date>
    <dc:format>image/svg+xml</dc:format>
    <dc:creator>
     <cc:Agent>
      <dc:title>Matplotlib v3.9.4, https://matplotlib.org/</dc:title>
     </cc:Agent>
    </dc:creator>
   </cc:Work>
  </rdf:RDF>
 </metadata>
 <defs>
  <style type="text/css">*{stroke-linejoin: round; stroke-linecap: butt}</style>
 </defs>
 <g id="figure_1">
  <g id="patch_1">
   <path d="M 0 288 
L 648 288 
L 648 0 
L 0 0 
z
" style="fill: #ffffff"/>
  </g>
  <g id="axes_1">
   <g id="patch_2">
    <path d="M 54.38 245.93875 
L 637.2 245.93875 
L 637.2 26.88 
L 54.38 26.88 
z
" style="fill: #ffffff"/>
   </g>
   <g id="patch_3">
    <path d="M 41.71 245.93875 
L 54.38 245.93875 
L 54.38 215.814366 
L 41.71 215.814366 
z
" clip-path="url(#p16bd8cacd2)" style="fill: #1f77b4; opacity: 0.4"/>
   </g>
   <g id="patch_4">
    <path d="M 67.05 245.93875 
L 79.72 245.93875 
L 79.72 214.788855 
L 67.05 214.788855 
z
" clip-path="url(#p16bd8cacd2)" style="fill: #1f77b4; opacity: 0.4"/>
   </g>
   <g id="patch_5">
    <path d="M 92.39 245.93875 
L 105.06 245.93875 
L 105.06 208.187129 
L 92.39 208.187129 
z
" clip-path="url(#p16bd8cacd2)" style="fill: #1f77b4; opacity: 0.4"/>
   </g>
   <g id="patch_6">
    <path d="M 117.73 245.93875 
L 130.4 245.93875 
L 130.4 193.189031 
L 117.73 193.189031 
z
" clip-path="url(#p16bd8cacd2)" style="fill: #1f77b4; opacity: 0.4"/>
   </g>
   <g id="patch_7">
    <path d="M 143.07 245.93875 
L 155.74 245.93875 
L 155.74 167.29488 
L 143.07 167.29488 
z
" clip-path="url(#p16bd8cacd2)" style="fill: #1f77b4; opacity: 0.4"/>
   </g>
   <g id="patch_8">
    <path d="M 168.41 245.93875 
L 181.08 245.93875 
L 181.08 138.131913 
L 168.41 138.131913 
z
" clip-path="url(#p16bd8cacd2)" style="fill: #1f77b4; opacity: 0.4"/>
   </g>
   <g id="patch_9">
    <path d="M 193.75 245.93875 
L 206.42 245.93875 
L 206.42 98.521553 
L 193.75 98.521553 
z
" clip-path="url(#p16bd8cacd2)" style="fill: #1f77b4; opacity: 0.4"/>
   </g>
   <g id="patch_10">
    <path d="M 219.09 245.93875 
L 231.76 245.93875 
L 231.76 61.282687 
L 219.09 61.282687 
z
" clip-path="url(#p16bd8cacd2)" style="fill: #1f77b4; opacity: 0.4"/>
   </g>
   <g id="patch_11">
    <path d="M 244.43 245.93875 
L 257.1 245.93875 
L 257.1 46.925534 
L 244.43 46.925534 
z
" clip-path="url(#p16bd8cacd2)" style="fill: #1f77b4; opacity: 0.4"/>
   </g>
   <g id="patch_12">
    <path d="M 269.77 245.93875 
L 282.44 245.93875 
L 282.44 37.311369 
L 269.77 37.311369 
z
" clip-path="url(#p16bd8cacd2)" style="fill: #1f77b4; opacity: 0.4"/>
   </g>
   <g id="patch_13">
    <path d="M 295.11 245.93875 
L 307.78 245.93875 
L 307.78 48.079234 
L 295.11 48.079234 
z
" clip-path="url(#p16bd8cacd2)" style="fill: #1f77b4; opacity: 0.4"/>
   </g>
   <g id="patch_14">
    <path d="M 320.45 245.93875 
L 333.12 245.93875 
L 333.12 70.832758 
L 320.45 70.832758 
z
" clip-path="url(#p16bd8cacd2)" style="fill: #1f77b4; opacity: 0.4"/>
   </g>
   <g id="patch_15">
    <path d="M 345.79 245.93875 
L 358.46 245.93875 
L 358.46 95.765492 
L 345.79 95.765492 
z
" clip-path="url(#p16bd8cacd2)" style="fill: #1f77b4; opacity: 0.4"/>
   </g>
   <g id="patch_16">
    <path d="M 371.13 245.93875 
L 383.8 245.93875 
L 383.8 123.967043 
L 371.13 123.967043 
z
" clip-path="url(#p16bd8cacd2)" style="fill: #1f77b4; opacity: 0.4"/>
   </g>
   <g id="patch_17">
    <path d="M 396.47 245.93875 
L 409.14 245.93875 
L 409.14 145.310489 
L 396.47 145.310489 
z
" clip-path="url(#p16bd8cacd2)" style="fill: #1f77b4; opacity: 0.4"/>
   </g>
   <g id="patch_18">
    <path d="M 421.81 245.93875 
L 434.48 245.93875 
L 434.48 167.230786 
L 421.81 167.230786 
z
" clip-path="url(#p16bd8cacd2)" style="fill: #1f77b4; opacity: 0.4"/>
   </g>
   <g id="patch_19">
    <path d="M 447.15 245.93875 
L 459.82 245.93875 
L 459.82 187.228249 
L 447.15 187.228249 
z
" clip-path="url(#p16bd8cacd2)" style="fill: #1f77b4; opacity: 0.4"/>
   </g>
   <g id="patch_20">
    <path d="M 472.49 245.93875 
L 485.16 245.93875 
L 485.16 199.918947 
L 472.49 199.918947 
z
" clip-path="url(#p16bd8cacd2)" style="fill: #1f77b4; opacity: 0.4"/>
   </g>
   <g id="patch_21">
    <path d="M 497.83 245.93875 
L 510.5 245.93875 
L 510.5 213.058306 
L 497.83 213.058306 
z
" clip-path="url(#p16bd8cacd2)" style="fill: #1f77b4; opacity: 0.4"/>
   </g>
   <g id="patch_22">
    <path d="M 523.17 245.93875 
L 535.84 245.93875 
L 535.84 219.403655 
L 523.17 219.403655 
z
" clip-path="url(#p16bd8cacd2)" style="fill: #1f77b4; opacity: 0.4"/>
   </g>
   <g id="patch_23">
    <path d="M 548.51 245.93875 
L 561.18 245.93875 
L 561.18 226.582231 
L 548.51 226.582231 
z
" clip-path="url(#p16bd8cacd2)" style="fill: #1f77b4; opacity: 0.4"/>
   </g>
   <g id="patch_24">
    <path d="M 573.85 245.93875 
L 586.52 245.93875 
L 586.52 230.235614 
L 573.85 230.235614 
z
" clip-path="url(#p16bd8cacd2)" style="fill: #1f77b4; opacity: 0.4"/>
   </g>
   <g id="patch_25">
    <path d="M 599.19 245.93875 
L 611.86 245.93875 
L 611.86 234.850413 
L 599.19 234.850413 
z
" clip-path="url(#p16bd8cacd2)" style="fill: #1f77b4; opacity: 0.4"/>
   </g>
   <g id="patch_26">
    <path d="M 624.53 245.93875 
L 637.2 245.93875 
L 637.2 231.261125 
L 624.53 231.261125 
z
" clip-path="url(#p16bd8cacd2)" style="fill: #1f77b4; opacity: 0.4"/>
   </g>
   <g id="patch_27">
    <path d="M 54.38 245.93875 
L 67.05 245.93875 
L 67.05 226.731671 
L 54.38 226.731671 
z
" clip-path="url(#p16bd8cacd2)" style="fill: #d62728; opacity: 0.4"/>
   </g>
   <g id="patch_28">
    <path d="M 79.72 245.93875 
L 92.39 245.93875 
L 92.39 225.020149 
L 79.72 225.020149 
z
" clip-path="url(#p16bd8cacd2)" style="fill: #d62728; opacity: 0.4"/>
   </g>
   <g id="patch_29">
    <path d="M 105.06 245.93875 
L 117.73 245.93875 
L 117.73 216.652708 
L 105.06 216.652708 
z
" clip-path="url(#p16bd8cacd2)" style="fill: #d62728; opacity: 0.4"/>
   </g>
   <g id="patch_30">
    <path d="M 130.4 245.93875 
L 143.07 245.93875 
L 143.07 199.917828 
L 130.4 199.917828 
z
" clip-path="url(#p16bd8cacd2)" style="fill: #d62728; opacity: 0.4"/>
   </g>
   <g id="patch_31">
    <path d="M 155.74 245.93875 
L 168.41 245.93875 
L 168.41 178.682278 
L 155.74 178.682278 
z
" clip-path="url(#p16bd8cacd2)" style="fill: #d62728; opacity: 0.4"/>
   </g>
   <g id="patch_32">
    <path d="M 181.08 245.93875 
L 193.75 245.93875 
L 193.75 148.382001 
L 181.08 148.382001 
z
" clip-path="url(#p16bd8cacd2)" style="fill: #d62728; opacity: 0.4"/>
   </g>
   <g id="patch_33">
    <path d="M 206.42 245.93875 
L 219.09 245.93875 
L 219.09 124.864422 
L 206.42 124.864422 
z
" clip-path="url(#p16bd8cacd2)" style="fill: #d62728; opacity: 0.4"/>
   </g>
   <g id="patch_34">
    <path d="M 231.76 245.93875 
L 244.43 245.93875 
L 244.43 84.041455 
L 231.76 84.041455 
z
" clip-path="url(#p16bd8cacd2)" style="fill: #d62728; opacity: 0.4"/>
   </g>
   <g id="patch_35">
    <path d="M 257.1 245.93875 
L 269.77 245.93875 
L 269.77 57.79812 
L 257.1 57.79812 
z
" clip-path="url(#p16bd8cacd2)" style="fill: #d62728; opacity: 0.4"/>
   </g>
   <g id="patch_36">
    <path d="M 282.44 245.93875 
L 295.11 245.93875 
L 295.11 47.21204 
L 282.44 47.21204 
z
" clip-path="url(#p16bd8cacd2)" style="fill: #d62728; opacity: 0.4"/>
   </g>
   <g id="patch_37">
    <path d="M 307.78 245.93875 
L 320.45 245.93875 
L 320.45 41.443577 
L 307.78 41.443577 
z
" clip-path="url(#p16bd8cacd2)" style="fill: #d62728; opacity: 0.4"/>
   </g>
   <g id="patch_38">
    <path d="M 333.12 245.93875 
L 345.79 245.93875 
L 345.79 51.205591 
L 333.12 51.205591 
z
" clip-path="url(#p16bd8cacd2)" style="fill: #d62728; opacity: 0.4"/>
   </g>
   <g id="patch_39">
    <path d="M 358.46 245.93875 
L 371.13 245.93875 
L 371.13 68.891317 
L 358.46 68.891317 
z
" clip-path="url(#p16bd8cacd2)" style="fill: #d62728; opacity: 0.4"/>
   </g>
   <g id="patch_40">
    <path d="M 383.8 245.93875 
L 396.47 245.93875 
L 396.47 93.296352 
L 383.8 93.296352 
z
" clip-path="url(#p16bd8cacd2)" style="fill: #d62728; opacity: 0.4"/>
   </g>
   <g id="patch_41">
    <path d="M 409.14 245.93875 
L 421.81 245.93875 
L 421.81 119.286129 
L 409.14 119.286129 
z
" clip-path="url(#p16bd8cacd2)" style="fill: #d62728; opacity: 0.4"/>
   </g>
   <g id="patch_42">
    <path d="M 434.48 245.93875 
L 447.15 245.93875 
L 447.15 150.473861 
L 434.48 150.473861 
z
" clip-path="url(#p16bd8cacd2)" style="fill: #d62728; opacity: 0.4"/>
   </g>
   <g id="patch_43">
    <path d="M 459.82 245.93875 
L 472.49 245.93875 
L 472.49 177.351094 
L 459.82 177.351094 
z
" clip-path="url(#p16bd8cacd2)" style="fill: #d62728; opacity: 0.4"/>
   </g>
   <g id="patch_44">
    <path d="M 485.16 245.93875 
L 497.83 245.93875 
L 497.83 191.677167 
L 485.16 191.677167 
z
" clip-path="url(#p16bd8cacd2)" style="fill: #d62728; opacity: 0.4"/>
   </g>
   <g id="patch_45">
    <path d="M 510.5 245.93875 
L 523.17 245.93875 
L 523.17 206.637136 
L 510.5 206.637136 
z
" clip-path="url(#p16bd8cacd2)" style="fill: #d62728; opacity: 0.4"/>
   </g>
   <g id="patch_46">
    <path d="M 535.84 245.93875 
L 548.51 245.93875 
L 548.51 220.075752 
L 535.84 220.075752 
z
" clip-path="url(#p16bd8cacd2)" style="fill: #d62728; opacity: 0.4"/>
   </g>
   <g id="patch_47">
    <path d="M 561.18 245.93875 
L 573.85 245.93875 
L 573.85 229.584207 
L 561.18 229.584207 
z
" clip-path="url(#p16bd8cacd2)" style="fill: #d62728; opacity: 0.4"/>
   </g>
   <g id="patch_48">
    <path d="M 586.52 245.93875 
L 599.19 245.93875 
L 599.19 236.493685 
L 586.52 236.493685 
z
" clip-path="url(#p16bd8cacd2)" style="fill: #d62728; opacity: 0.4"/>
   </g>
   <g id="patch_49">
    <path d="M 611.86 245.93875 
L 624.53 245.93875 
L 624.53 239.53639 
L 611.86 239.53639 
z
" clip-path="url(#p16bd8cacd2)" style="fill: #d62728; opacity: 0.4"/>
   </g>
   <g id="patch_50">
    <path d="M 637.2 245.93875 
L 649.87 245.93875 
L 649.87 239.916728 
L 637.2 239.916728 
z
" clip-path="url(#p16bd8cacd2)" style="fill: #d62728; opacity: 0.4"/>
   </g>
   <g id="matplotlib.axis_1">
    <g id="xtick_1">
     <g id="line2d_1">
      <defs>
       <path id="mf192d600cf" d="M 0 0 
L 0 3.5 
" style="stroke: #000000; stroke-width: 0.8"/>
      </defs>
      <g>
       <use xlink:href="#mf192d600cf" x="54.38" y="245.93875" style="stroke: #000000; stroke-width: 0.8"/>
      </g>
     </g>
     <g id="text_1">
      <!-- 0 -->
      <g transform="translate(51.19875 260.537188) scale(0.1 -0.1)">
       <defs>
        <path id="DejaVuSans-30" d="M 2034 4250 
Q 1547 4250 1301 3770 
Q 1056 3291 1056 2328 
Q 1056 1369 1301 889 
Q 1547 409 2034 409 
Q 2525 409 2770 889 
Q 3016 1369 3016 2328 
Q 3016 3291 2770 3770 
Q 2525 4250 2034 4250 
z
M 2034 4750 
Q 2819 4750 3233 4129 
Q 3647 3509 3647 2328 
Q 3647 1150 3233 529 
Q 2819 -91 2034 -91 
Q 1250 -91 836 529 
Q 422 1150 422 2328 
Q 422 3509 836 4129 
Q 1250 4750 2034 4750 
z
" transform="scale(0.015625)"/>
       </defs>
       <use xlink:href="#DejaVuSans-30"/>
      </g>
     </g>
    </g>
    <g id="xtick_2">
     <g id="line2d_2">
      <g>
       <use xlink:href="#mf192d600cf" x="181.08" y="245.93875" style="stroke: #000000; stroke-width: 0.8"/>
      </g>
     </g>
     <g id="text_2">
      <!-- 5 -->
      <g transform="translate(177.89875 260.537188) scale(0.1 -0.1)">
       <defs>
        <path id="DejaVuSans-35" d="M 691 4666 
L 3169 4666 
L 3169 4134 
L 1269 4134 
L 1269 2991 
Q 1406 3038 1543 3061 
Q 1681 3084 1819 3084 
Q 2600 3084 3056 2656 
Q 3513 2228 3513 1497 
Q 3513 744 3044 326 
Q 2575 -91 1722 -91 
Q 1428 -91 1123 -41 
Q 819 9 494 109 
L 494 744 
Q 775 591 1075 516 
Q 1375 441 1709 441 
Q 2250 441 2565 725 
Q 2881 1009 2881 1497 
Q 2881 1984 2565 2268 
Q 2250 2553 1709 2553 
Q 1456 2553 1204 2497 
Q 953 2441 691 2322 
L 691 4666 
z
" transform="scale(0.015625)"/>
       </defs>
       <use xlink:href="#DejaVuSans-35"/>
      </g>
     </g>
    </g>
    <g id="xtick_3">
     <g id="line2d_3">
      <g>
       <use xlink:href="#mf192d600cf" x="307.78" y="245.93875" style="stroke: #000000; stroke-width: 0.8"/>
      </g>
     </g>
     <g id="text_3">
      <!-- 10 -->
      <g transform="translate(301.4175 260.537188) scale(0.1 -0.1)">
       <defs>
        <path id="DejaVuSans-31" d="M 794 531 
L 1825 531 
L 1825 4091 
L 703 3866 
L 703 4441 
L 1819 4666 
L 2450 4666 
L 2450 531 
L 3481 531 
L 3481 0 
L 794 0 
L 794 531 
z
" transform="scale(0.015625)"/>
       </defs>
       <use xlink:href="#DejaVuSans-31"/>
       <use xlink:href="#DejaVuSans-30" x="63.623047"/>
      </g>
     </g>
    </g>
    <g id="xtick_4">
     <g id="line2d_4">
      <g>
       <use xlink:href="#mf192d600cf" x="434.48" y="245.93875" style="stroke: #000000; stroke-width: 0.8"/>
      </g>
     </g>
     <g id="text_4">
      <!-- 15 -->
      <g transform="translate(428.1175 260.537188) scale(0.1 -0.1)">
       <use xlink:href="#DejaVuSans-31"/>
       <use xlink:href="#DejaVuSans-35" x="63.623047"/>
      </g>
     </g>
    </g>
    <g id="xtick_5">
     <g id="line2d_5">
      <g>
       <use xlink:href="#mf192d600cf" x="561.18" y="245.93875" style="stroke: #000000; stroke-width: 0.8"/>
      </g>
     </g>
     <g id="text_5">
      <!-- 20 -->
      <g transform="translate(554.8175 260.537188) scale(0.1 -0.1)">
       <defs>
        <path id="DejaVuSans-32" d="M 1228 531 
L 3431 531 
L 3431 0 
L 469 0 
L 469 531 
Q 828 903 1448 1529 
Q 2069 2156 2228 2338 
Q 2531 2678 2651 2914 
Q 2772 3150 2772 3378 
Q 2772 3750 2511 3984 
Q 2250 4219 1831 4219 
Q 1534 4219 1204 4116 
Q 875 4013 500 3803 
L 500 4441 
Q 881 4594 1212 4672 
Q 1544 4750 1819 4750 
Q 2544 4750 2975 4387 
Q 3406 4025 3406 3419 
Q 3406 3131 3298 2873 
Q 3191 2616 2906 2266 
Q 2828 2175 2409 1742 
Q 1991 1309 1228 531 
z
" transform="scale(0.015625)"/>
       </defs>
       <use xlink:href="#DejaVuSans-32"/>
       <use xlink:href="#DejaVuSans-30" x="63.623047"/>
      </g>
     </g>
    </g>
    <g id="text_6">
     <!-- Discordances K_{ij} (sites) -->
     <g transform="translate(278.697812 274.215312) scale(0.1 -0.1)">
      <defs>
       <path id="DejaVuSans-44" d="M 1259 4147 
L 1259 519 
L 2022 519 
Q 2988 519 3436 956 
Q 3884 1394 3884 2338 
Q 3884 3275 3436 3711 
Q 2988 4147 2022 4147 
L 1259 4147 
z
M 628 4666 
L 1925 4666 
Q 3281 4666 3915 4102 
Q 4550 3538 4550 2338 
Q 4550 1131 3912 565 
Q 3275 0 1925 0 
L 628 0 
L 628 4666 
z
" transform="scale(0.015625)"/>
       <path id="DejaVuSans-69" d="M 603 3500 
L 1178 3500 
L 1178 0 
L 603 0 
L 603 3500 
z
M 603 4863 
L 1178 4863 
L 1178 4134 
L 603 4134 
L 603 4863 
z
" transform="scale(0.015625)"/>
       <path id="DejaVuSans-73" d="M 2834 3397 
L 2834 2853 
Q 2591 2978 2328 3040 
Q 2066 3103 1784 3103 
Q 1356 3103 1142 2972 
Q 928 2841 928 2578 
Q 928 2378 1081 2264 
Q 1234 2150 1697 2047 
L 1894 2003 
Q 2506 1872 2764 1633 
Q 3022 1394 3022 966 
Q 3022 478 2636 193 
Q 2250 -91 1575 -91 
Q 1294 -91 989 -36 
Q 684 19 347 128 
L 347 722 
Q 666 556 975 473 
Q 1284 391 1588 391 
Q 1994 391 2212 530 
Q 2431 669 2431 922 
Q 2431 1156 2273 1281 
Q 2116 1406 1581 1522 
L 1381 1569 
Q 847 1681 609 1914 
Q 372 2147 372 2553 
Q 372 3047 722 3315 
Q 1072 3584 1716 3584 
Q 2034 3584 2315 3537 
Q 2597 3491 2834 3397 
z
" transform="scale(0.015625)"/>
       <path id="DejaVuSans-63" d="M 3122 3366 
L 3122 2828 
Q 2878 2963 2633 3030 
Q 2388 3097 2138 3097 
Q 1578 3097 1268 2742 
Q 959 2388 959 1747 
Q 959 1106 1268 751 
Q 1578 397 2138 397 
Q 2388 397 2633 464 
Q 2878 531 3122 666 
L 3122 134 
Q 2881 22 2623 -34 
Q 2366 -91 2075 -91 
Q 1284 -91 818 406 
Q 353 903 353 1747 
Q 353 2603 823 3093 
Q 1294 3584 2113 3584 
Q 2378 3584 2631 3529 
Q 2884 3475 3122 3366 
z
" transform="scale(0.015625)"/>
       <path id="DejaVuSans-6f" d="M 1959 3097 
Q 1497 3097 1228 2736 
Q 959 2375 959 1747 
Q 959 1119 1226 758 
Q 1494 397 1959 397 
Q 2419 397 2687 759 
Q 2956 1122 2956 1747 
Q 2956 2369 2687 2733 
Q 2419 3097 1959 3097 
z
M 1959 3584 
Q 2709 3584 3137 3096 
Q 3566 2609 3566 1747 
Q 3566 888 3137 398 
Q 2709 -91 1959 -91 
Q 1206 -91 779 398 
Q 353 888 353 1747 
Q 353 2609 779 3096 
Q 1206 3584 1959 3584 
z
" transform="scale(0.015625)"/>
       <path id="DejaVuSans-72" d="M 2631 2963 
Q 2534 3019 2420 3045 
Q 2306 3072 2169 3072 
Q 1681 3072 1420 2755 
Q 1159 2438 1159 1844 
L 1159 0 
L 581 0 
L 581 3500 
L 1159 3500 
L 1159 2956 
Q 1341 3275 1631 3429 
Q 1922 3584 2338 3584 
Q 2397 3584 2469 3576 
Q 2541 3569 2628 3553 
L 2631 2963 
z
" transform="scale(0.015625)"/>
       <path id="DejaVuSans-64" d="M 2906 2969 
L 2906 4863 
L 3481 4863 
L 3481 0 
L 2906 0 
L 2906 525 
Q 2725 213 2448 61 
Q 2172 -91 1784 -91 
Q 1150 -91 751 415 
Q 353 922 353 1747 
Q 353 2572 751 3078 
Q 1150 3584 1784 3584 
Q 2172 3584 2448 3432 
Q 2725 3281 2906 2969 
z
M 947 1747 
Q 947 1113 1208 752 
Q 1469 391 1925 391 
Q 2381 391 2643 752 
Q 2906 1113 2906 1747 
Q 2906 2381 2643 2742 
Q 2381 3103 1925 3103 
Q 1469 3103 1208 2742 
Q 947 2381 947 1747 
z
" transform="scale(0.015625)"/>
       <path id="DejaVuSans-61" d="M 2194 1759 
Q 1497 1759 1228 1600 
Q 959 1441 959 1056 
Q 959 750 1161 570 
Q 1363 391 1709 391 
Q 2188 391 2477 730 
Q 2766 1069 2766 1631 
L 2766 1759 
L 2194 1759 
z
M 3341 1997 
L 3341 0 
L 2766 0 
L 2766 531 
Q 2569 213 2275 61 
Q 1981 -91 1556 -91 
Q 1019 -91 701 211 
Q 384 513 384 1019 
Q 384 1609 779 1909 
Q 1175 2209 1959 2209 
L 2766 2209 
L 2766 2266 
Q 2766 2663 2505 2880 
Q 2244 3097 1772 3097 
Q 1472 3097 1187 3025 
Q 903 2953 641 2809 
L 641 3341 
Q 956 3463 1253 3523 
Q 1550 3584 1831 3584 
Q 2591 3584 2966 3190 
Q 3341 2797 3341 1997 
z
" transform="scale(0.015625)"/>
       <path id="DejaVuSans-6e" d="M 3513 2113 
L 3513 0 
L 2938 0 
L 2938 2094 
Q 2938 2591 2744 2837 
Q 2550 3084 2163 3084 
Q 1697 3084 1428 2787 
Q 1159 2491 1159 1978 
L 1159 0 
L 581 0 
L 581 3500 
L 1159 3500 
L 1159 2956 
Q 1366 3272 1645 3428 
Q 1925 3584 2291 3584 
Q 2894 3584 3203 3211 
Q 3513 2838 3513 2113 
z
" transform="scale(0.015625)"/>
       <path id="DejaVuSans-65" d="M 3597 1894 
L 3597 1613 
L 953 1613 
Q 991 1019 1311 708 
Q 1631 397 2203 397 
Q 2534 397 2845 478 
Q 3156 559 3463 722 
L 3463 178 
Q 3153 47 2828 -22 
Q 2503 -91 2169 -91 
Q 1331 -91 842 396 
Q 353 884 353 1716 
Q 353 2575 817 3079 
Q 1281 3584 2069 3584 
Q 2775 3584 3186 3129 
Q 3597 2675 3597 1894 
z
M 3022 2063 
Q 3016 2534 2758 2815 
Q 2500 3097 2075 3097 
Q 1594 3097 1305 2825 
Q 1016 2553 972 2059 
L 3022 2063 
z
" transform="scale(0.015625)"/>
       <path id="DejaVuSans-20" transform="scale(0.015625)"/>
       <path id="DejaVuSans-4b" d="M 628 4666 
L 1259 4666 
L 1259 2694 
L 3353 4666 
L 4166 4666 
L 1850 2491 
L 4331 0 
L 3500 0 
L 1259 2247 
L 1259 0 
L 628 0 
L 628 4666 
z
" transform="scale(0.015625)"/>
       <path id="DejaVuSans-5f" d="M 3263 -1063 
L 3263 -1509 
L -63 -1509 
L -63 -1063 
L 3263 -1063 
z
" transform="scale(0.015625)"/>
       <path id="DejaVuSans-7b" d="M 3272 -594 
L 3272 -1044 
L 3078 -1044 
Q 2300 -1044 2036 -812 
Q 1772 -581 1772 109 
L 1772 856 
Q 1772 1328 1603 1509 
Q 1434 1691 991 1691 
L 800 1691 
L 800 2138 
L 991 2138 
Q 1438 2138 1605 2317 
Q 1772 2497 1772 2963 
L 1772 3713 
Q 1772 4403 2036 4633 
Q 2300 4863 3078 4863 
L 3272 4863 
L 3272 4416 
L 3059 4416 
Q 2619 4416 2484 4278 
Q 2350 4141 2350 3700 
L 2350 2925 
Q 2350 2434 2208 2212 
Q 2066 1991 1722 1913 
Q 2069 1828 2209 1606 
Q 2350 1384 2350 897 
L 2350 122 
Q 2350 -319 2484 -456 
Q 2619 -594 3059 -594 
L 3272 -594 
z
" transform="scale(0.015625)"/>
       <path id="DejaVuSans-6a" d="M 603 3500 
L 1178 3500 
L 1178 -63 
Q 1178 -731 923 -1031 
Q 669 -1331 103 -1331 
L -116 -1331 
L -116 -844 
L 38 -844 
Q 366 -844 484 -692 
Q 603 -541 603 -63 
L 603 3500 
z
M 603 4863 
L 1178 4863 
L 1178 4134 
L 603 4134 
L 603 4863 
z
" transform="scale(0.015625)"/>
       <path id="DejaVuSans-7d" d="M 800 -594 
L 1019 -594 
Q 1456 -594 1589 -459 
Q 1722 -325 1722 122 
L 1722 897 
Q 1722 1384 1862 1606 
Q 2003 1828 2350 1913 
Q 2003 1991 1862 2212 
Q 1722 2434 1722 2925 
L 1722 3700 
Q 1722 4144 1589 4280 
Q 1456 4416 1019 4416 
L 800 4416 
L 800 4863 
L 997 4863 
Q 1775 4863 2036 4633 
Q 2297 4403 2297 3713 
L 2297 2963 
Q 2297 2497 2465 2317 
Q 2634 2138 3078 2138 
L 3272 2138 
L 3272 1691 
L 3078 1691 
Q 2634 1691 2465 1509 
Q 2297 1328 2297 856 
L 2297 109 
Q 2297 -581 2036 -812 
Q 1775 -1044 997 -1044 
L 800 -1044 
L 800 -594 
z
" transform="scale(0.015625)"/>
       <path id="DejaVuSans-28" d="M 1984 4856 
Q 1566 4138 1362 3434 
Q 1159 2731 1159 2009 
Q 1159 1288 1364 580 
Q 1569 -128 1984 -844 
L 1484 -844 
Q 1016 -109 783 600 
Q 550 1309 550 2009 
Q 550 2706 781 3412 
Q 1013 4119 1484 4856 
L 1984 4856 
z
" transform="scale(0.015625)"/>
       <path id="DejaVuSans-74" d="M 1172 4494 
L 1172 3500 
L 2356 3500 
L 2356 3053 
L 1172 3053 
L 1172 1153 
Q 1172 725 1289 603 
Q 1406 481 1766 481 
L 2356 481 
L 2356 0 
L 1766 0 
Q 1100 0 847 248 
Q 594 497 594 1153 
L 594 3053 
L 172 3053 
L 172 3500 
L 594 3500 
L 594 4494 
L 1172 4494 
z
" transform="scale(0.015625)"/>
       <path id="DejaVuSans-29" d="M 513 4856 
L 1013 4856 
Q 1481 4119 1714 3412 
Q 1947 2706 1947 2009 
Q 1947 1309 1714 600 
Q 1481 -109 1013 -844 
L 513 -844 
Q 928 -128 1133 580 
Q 1338 1288 1338 2009 
Q 1338 2731 1133 3434 
Q 928 4138 513 4856 
z
" transform="scale(0.015625)"/>
      </defs>
      <use xlink:href="#DejaVuSans-44"/>
      <use xlink:href="#DejaVuSans-69" x="77.001953"/>
      <use xlink:href="#DejaVuSans-73" x="104.785156"/>
      <use xlink:href="#DejaVuSans-63" x="156.884766"/>
      <use xlink:href="#DejaVuSans-6f" x="211.865234"/>
      <use xlink:href="#DejaVuSans-72" x="273.046875"/>
      <use xlink:href="#DejaVuSans-64" x="312.410156"/>
      <use xlink:href="#DejaVuSans-61" x="375.886719"/>
      <use xlink:href="#DejaVuSans-6e" x="437.166016"/>
      <use xlink:href="#DejaVuSans-63" x="500.544922"/>
      <use xlink:href="#DejaVuSans-65" x="555.525391"/>
      <use xlink:href="#DejaVuSans-73" x="617.048828"/>
      <use xlink:href="#DejaVuSans-20" x="669.148438"/>
      <use xlink:href="#DejaVuSans-4b" x="700.935547"/>
      <use xlink:href="#DejaVuSans-5f" x="766.511719"/>
      <use xlink:href="#DejaVuSans-7b" x="816.511719"/>
      <use xlink:href="#DejaVuSans-69" x="880.134766"/>
      <use xlink:href="#DejaVuSans-6a" x="907.917969"/>
      <use xlink:href="#DejaVuSans-7d" x="935.701172"/>
      <use xlink:href="#DejaVuSans-20" x="999.324219"/>
      <use xlink:href="#DejaVuSans-28" x="1031.111328"/>
      <use xlink:href="#DejaVuSans-73" x="1070.125"/>
      <use xlink:href="#DejaVuSans-69" x="1122.224609"/>
      <use xlink:href="#DejaVuSans-74" x="1150.007812"/>
      <use xlink:href="#DejaVuSans-65" x="1189.216797"/>
      <use xlink:href="#DejaVuSans-73" x="1250.740234"/>
      <use xlink:href="#DejaVuSans-29" x="1302.839844"/>
     </g>
    </g>
   </g>
   <g id="matplotlib.axis_2">
    <g id="ytick_1">
     <g id="line2d_6">
      <defs>
       <path id="m982cee8ad3" d="M 0 0 
L -3.5 0 
" style="stroke: #000000; stroke-width: 0.8"/>
      </defs>
      <g>
       <use xlink:href="#m982cee8ad3" x="54.38" y="245.93875" style="stroke: #000000; stroke-width: 0.8"/>
      </g>
     </g>
     <g id="text_7">
      <!-- 0.00 -->
      <g transform="translate(25.114375 249.737969) scale(0.1 -0.1)">
       <defs>
        <path id="DejaVuSans-2e" d="M 684 794 
L 1344 794 
L 1344 0 
L 684 0 
L 684 794 
z
" transform="scale(0.015625)"/>
       </defs>
       <use xlink:href="#DejaVuSans-30"/>
       <use xlink:href="#DejaVuSans-2e" x="63.623047"/>
       <use xlink:href="#DejaVuSans-30" x="95.410156"/>
       <use xlink:href="#DejaVuSans-30" x="159.033203"/>
      </g>
     </g>
    </g>
    <g id="ytick_2">
     <g id="line2d_7">
      <g>
       <use xlink:href="#m982cee8ad3" x="54.38" y="203.391583" style="stroke: #000000; stroke-width: 0.8"/>
      </g>
     </g>
     <g id="text_8">
      <!-- 0.02 -->
      <g transform="translate(25.114375 207.190802) scale(0.1 -0.1)">
       <use xlink:href="#DejaVuSans-30"/>
       <use xlink:href="#DejaVuSans-2e" x="63.623047"/>
       <use xlink:href="#DejaVuSans-30" x="95.410156"/>
       <use xlink:href="#DejaVuSans-32" x="159.033203"/>
      </g>
     </g>
    </g>
    <g id="ytick_3">
     <g id="line2d_8">
      <g>
       <use xlink:href="#m982cee8ad3" x="54.38" y="160.844416" style="stroke: #000000; stroke-width: 0.8"/>
      </g>
     </g>
     <g id="text_9">
      <!-- 0.04 -->
      <g transform="translate(25.114375 164.643635) scale(0.1 -0.1)">
       <defs>
        <path id="DejaVuSans-34" d="M 2419 4116 
L 825 1625 
L 2419 1625 
L 2419 4116 
z
M 2253 4666 
L 3047 4666 
L 3047 1625 
L 3713 1625 
L 3713 1100 
L 3047 1100 
L 3047 0 
L 2419 0 
L 2419 1100 
L 313 1100 
L 313 1709 
L 2253 4666 
z
" transform="scale(0.015625)"/>
       </defs>
       <use xlink:href="#DejaVuSans-30"/>
       <use xlink:href="#DejaVuSans-2e" x="63.623047"/>
       <use xlink:href="#DejaVuSans-30" x="95.410156"/>
       <use xlink:href="#DejaVuSans-34" x="159.033203"/>
      </g>
     </g>
    </g>
    <g id="ytick_4">
     <g id="line2d_9">
      <g>
       <use xlink:href="#m982cee8ad3" x="54.38" y="118.29725" style="stroke: #000000; stroke-width: 0.8"/>
      </g>
     </g>
     <g id="text_10">
      <!-- 0.06 -->
      <g transform="translate(25.114375 122.096468) scale(0.1 -0.1)">
       <defs>
        <path id="DejaVuSans-36" d="M 2113 2584 
Q 1688 2584 1439 2293 
Q 1191 2003 1191 1497 
Q 1191 994 1439 701 
Q 1688 409 2113 409 
Q 2538 409 2786 701 
Q 3034 994 3034 1497 
Q 3034 2003 2786 2293 
Q 2538 2584 2113 2584 
z
M 3366 4563 
L 3366 3988 
Q 3128 4100 2886 4159 
Q 2644 4219 2406 4219 
Q 1781 4219 1451 3797 
Q 1122 3375 1075 2522 
Q 1259 2794 1537 2939 
Q 1816 3084 2150 3084 
Q 2853 3084 3261 2657 
Q 3669 2231 3669 1497 
Q 3669 778 3244 343 
Q 2819 -91 2113 -91 
Q 1303 -91 875 529 
Q 447 1150 447 2328 
Q 447 3434 972 4092 
Q 1497 4750 2381 4750 
Q 2619 4750 2861 4703 
Q 3103 4656 3366 4563 
z
" transform="scale(0.015625)"/>
       </defs>
       <use xlink:href="#DejaVuSans-30"/>
       <use xlink:href="#DejaVuSans-2e" x="63.623047"/>
       <use xlink:href="#DejaVuSans-30" x="95.410156"/>
       <use xlink:href="#DejaVuSans-36" x="159.033203"/>
      </g>
     </g>
    </g>
    <g id="ytick_5">
     <g id="line2d_10">
      <g>
       <use xlink:href="#m982cee8ad3" x="54.38" y="75.750083" style="stroke: #000000; stroke-width: 0.8"/>
      </g>
     </g>
     <g id="text_11">
      <!-- 0.08 -->
      <g transform="translate(25.114375 79.549301) scale(0.1 -0.1)">
       <defs>
        <path id="DejaVuSans-38" d="M 2034 2216 
Q 1584 2216 1326 1975 
Q 1069 1734 1069 1313 
Q 1069 891 1326 650 
Q 1584 409 2034 409 
Q 2484 409 2743 651 
Q 3003 894 3003 1313 
Q 3003 1734 2745 1975 
Q 2488 2216 2034 2216 
z
M 1403 2484 
Q 997 2584 770 2862 
Q 544 3141 544 3541 
Q 544 4100 942 4425 
Q 1341 4750 2034 4750 
Q 2731 4750 3128 4425 
Q 3525 4100 3525 3541 
Q 3525 3141 3298 2862 
Q 3072 2584 2669 2484 
Q 3125 2378 3379 2068 
Q 3634 1759 3634 1313 
Q 3634 634 3220 271 
Q 2806 -91 2034 -91 
Q 1263 -91 848 271 
Q 434 634 434 1313 
Q 434 1759 690 2068 
Q 947 2378 1403 2484 
z
M 1172 3481 
Q 1172 3119 1398 2916 
Q 1625 2713 2034 2713 
Q 2441 2713 2670 2916 
Q 2900 3119 2900 3481 
Q 2900 3844 2670 4047 
Q 2441 4250 2034 4250 
Q 1625 4250 1398 4047 
Q 1172 3844 1172 3481 
z
" transform="scale(0.015625)"/>
       </defs>
       <use xlink:href="#DejaVuSans-30"/>
       <use xlink:href="#DejaVuSans-2e" x="63.623047"/>
       <use xlink:href="#DejaVuSans-30" x="95.410156"/>
       <use xlink:href="#DejaVuSans-38" x="159.033203"/>
      </g>
     </g>
    </g>
    <g id="ytick_6">
     <g id="line2d_11">
      <g>
       <use xlink:href="#m982cee8ad3" x="54.38" y="33.202916" style="stroke: #000000; stroke-width: 0.8"/>
      </g>
     </g>
     <g id="text_12">
      <!-- 0.10 -->
      <g transform="translate(25.114375 37.002135) scale(0.1 -0.1)">
       <use xlink:href="#DejaVuSans-30"/>
       <use xlink:href="#DejaVuSans-2e" x="63.623047"/>
       <use xlink:href="#DejaVuSans-31" x="95.410156"/>
       <use xlink:href="#DejaVuSans-30" x="159.033203"/>
      </g>
     </g>
    </g>
    <g id="text_13">
     <!-- Fréquence relative -->
     <g transform="translate(19.034688 182.803125) rotate(-90) scale(0.1 -0.1)">
      <defs>
       <path id="DejaVuSans-46" d="M 628 4666 
L 3309 4666 
L 3309 4134 
L 1259 4134 
L 1259 2759 
L 3109 2759 
L 3109 2228 
L 1259 2228 
L 1259 0 
L 628 0 
L 628 4666 
z
" transform="scale(0.015625)"/>
       <path id="DejaVuSans-e9" d="M 3597 1894 
L 3597 1613 
L 953 1613 
Q 991 1019 1311 708 
Q 1631 397 2203 397 
Q 2534 397 2845 478 
Q 3156 559 3463 722 
L 3463 178 
Q 3153 47 2828 -22 
Q 2503 -91 2169 -91 
Q 1331 -91 842 396 
Q 353 884 353 1716 
Q 353 2575 817 3079 
Q 1281 3584 2069 3584 
Q 2775 3584 3186 3129 
Q 3597 2675 3597 1894 
z
M 3022 2063 
Q 3016 2534 2758 2815 
Q 2500 3097 2075 3097 
Q 1594 3097 1305 2825 
Q 1016 2553 972 2059 
L 3022 2063 
z
M 2466 5119 
L 3088 5119 
L 2070 3944 
L 1591 3944 
L 2466 5119 
z
" transform="scale(0.015625)"/>
       <path id="DejaVuSans-71" d="M 947 1747 
Q 947 1113 1208 752 
Q 1469 391 1925 391 
Q 2381 391 2643 752 
Q 2906 1113 2906 1747 
Q 2906 2381 2643 2742 
Q 2381 3103 1925 3103 
Q 1469 3103 1208 2742 
Q 947 2381 947 1747 
z
M 2906 525 
Q 2725 213 2448 61 
Q 2172 -91 1784 -91 
Q 1150 -91 751 415 
Q 353 922 353 1747 
Q 353 2572 751 3078 
Q 1150 3584 1784 3584 
Q 2172 3584 2448 3432 
Q 2725 3281 2906 2969 
L 2906 3500 
L 3481 3500 
L 3481 -1331 
L 2906 -1331 
L 2906 525 
z
" transform="scale(0.015625)"/>
       <path id="DejaVuSans-75" d="M 544 1381 
L 544 3500 
L 1119 3500 
L 1119 1403 
Q 1119 906 1312 657 
Q 1506 409 1894 409 
Q 2359 409 2629 706 
Q 2900 1003 2900 1516 
L 2900 3500 
L 3475 3500 
L 3475 0 
L 2900 0 
L 2900 538 
Q 2691 219 2414 64 
Q 2138 -91 1772 -91 
Q 1169 -91 856 284 
Q 544 659 544 1381 
z
M 1991 3584 
L 1991 3584 
z
" transform="scale(0.015625)"/>
       <path id="DejaVuSans-6c" d="M 603 4863 
L 1178 4863 
L 1178 0 
L 603 0 
L 603 4863 
z
" transform="scale(0.015625)"/>
       <path id="DejaVuSans-76" d="M 191 3500 
L 800 3500 
L 1894 563 
L 2988 3500 
L 3597 3500 
L 2284 0 
L 1503 0 
L 191 3500 
z
" transform="scale(0.015625)"/>
      </defs>
      <use xlink:href="#DejaVuSans-46"/>
      <use xlink:href="#DejaVuSans-72" x="50.269531"/>
      <use xlink:href="#DejaVuSans-e9" x="89.132812"/>
      <use xlink:href="#DejaVuSans-71" x="150.65625"/>
      <use xlink:href="#DejaVuSans-75" x="214.132812"/>
      <use xlink:href="#DejaVuSans-65" x="277.511719"/>
      <use xlink:href="#DejaVuSans-6e" x="339.035156"/>
      <use xlink:href="#DejaVuSans-63" x="402.414062"/>
      <use xlink:href="#DejaVuSans-65" x="457.394531"/>
      <use xlink:href="#DejaVuSans-20" x="518.917969"/>
      <use xlink:href="#DejaVuSans-72" x="550.705078"/>
      <use xlink:href="#DejaVuSans-65" x="589.568359"/>
      <use xlink:href="#DejaVuSans-6c" x="651.091797"/>
      <use xlink:href="#DejaVuSans-61" x="678.875"/>
      <use xlink:href="#DejaVuSans-74" x="740.154297"/>
      <use xlink:href="#DejaVuSans-69" x="779.363281"/>
      <use xlink:href="#DejaVuSans-76" x="807.146484"/>
      <use xlink:href="#DejaVuSans-65" x="866.326172"/>
     </g>
    </g>
   </g>
   <g id="line2d_12">
    <path d="M 54.38 215.814366 
L 67.05 215.814366 
L 67.05 214.788855 
L 92.39 214.788855 
L 92.39 208.187129 
L 117.73 208.187129 
L 117.73 193.189031 
L 143.07 193.189031 
L 143.07 167.29488 
L 168.41 167.29488 
L 168.41 138.131913 
L 193.75 138.131913 
L 193.75 98.521553 
L 219.09 98.521553 
L 219.09 61.282687 
L 244.43 61.282687 
L 244.43 46.925534 
L 269.77 46.925534 
L 269.77 37.311369 
L 295.11 37.311369 
L 295.11 48.079234 
L 320.45 48.079234 
L 320.45 70.832758 
L 345.79 70.832758 
L 345.79 95.765492 
L 371.13 95.765492 
L 371.13 123.967043 
L 396.47 123.967043 
L 396.47 145.310489 
L 421.81 145.310489 
L 421.81 167.230786 
L 447.15 167.230786 
L 447.15 187.228249 
L 472.49 187.228249 
L 472.49 199.918947 
L 497.83 199.918947 
L 497.83 213.058306 
L 523.17 213.058306 
L 523.17 219.403655 
L 548.51 219.403655 
L 548.51 226.582231 
L 573.85 226.582231 
L 573.85 230.235614 
L 599.19 230.235614 
L 599.19 234.850413 
L 624.53 234.850413 
L 624.53 231.261125 
L 637.2 231.261125 
" clip-path="url(#p16bd8cacd2)" style="fill: none; stroke: #1f77b4; stroke-width: 1.2; stroke-linecap: square"/>
   </g>
   <g id="line2d_13">
    <path d="M 54.38 226.731671 
L 67.05 226.731671 
L 67.05 225.020149 
L 92.39 225.020149 
L 92.39 216.652708 
L 117.73 216.652708 
L 117.73 199.917828 
L 143.07 199.917828 
L 143.07 178.682278 
L 168.41 178.682278 
L 168.41 148.382001 
L 193.75 148.382001 
L 193.75 124.864422 
L 219.09 124.864422 
L 219.09 84.041455 
L 244.43 84.041455 
L 244.43 57.79812 
L 269.77 57.79812 
L 269.77 47.21204 
L 295.11 47.21204 
L 295.11 41.443577 
L 320.45 41.443577 
L 320.45 51.205591 
L 345.79 51.205591 
L 345.79 68.891317 
L 371.13 68.891317 
L 371.13 93.296352 
L 396.47 93.296352 
L 396.47 119.286129 
L 421.81 119.286129 
L 421.81 150.473861 
L 447.15 150.473861 
L 447.15 177.351094 
L 472.49 177.351094 
L 472.49 191.677167 
L 497.83 191.677167 
L 497.83 206.637136 
L 523.17 206.637136 
L 523.17 220.075752 
L 548.51 220.075752 
L 548.51 229.584207 
L 573.85 229.584207 
L 573.85 236.493685 
L 599.19 236.493685 
L 599.19 239.53639 
L 624.53 239.53639 
L 624.53 239.916728 
L 637.2 239.916728 
" clip-path="url(#p16bd8cacd2)" style="fill: none; stroke: #d62728; stroke-width: 1.2; stroke-linecap: square"/>
   </g>
   <g id="patch_51">
    <path d="M 54.38 245.93875 
L 54.38 26.88 
" style="fill: none; stroke: #000000; stroke-width: 0.8; stroke-linejoin: miter; stroke-linecap: square"/>
   </g>
   <g id="patch_52">
    <path d="M 637.2 245.93875 
L 637.2 26.88 
" style="fill: none; stroke: #000000; stroke-width: 0.8; stroke-linejoin: miter; stroke-linecap: square"/>
   </g>
   <g id="patch_53">
    <path d="M 54.38 245.93875 
L 637.2 245.93875 
" style="fill: none; stroke: #000000; stroke-width: 0.8; stroke-linejoin: miter; stroke-linecap: square"/>
   </g>
   <g id="patch_54">
    <path d="M 54.38 26.88 
L 637.2 26.88 
" style="fill: none; stroke: #000000; stroke-width: 0.8; stroke-linejoin: miter; stroke-linecap: square"/>
   </g>
   <g id="text_14">
    <g id="patch_55">
     <path d="M 66.0364 44.595244 
L 114.642025 44.595244 
Q 117.342025 44.595244 117.342025 41.895244 
L 117.342025 33.184931 
Q 117.342025 30.484931 114.642025 30.484931 
L 66.0364 30.484931 
Q 63.3364 30.484931 63.3364 33.184931 
L 63.3364 41.895244 
Q 63.3364 44.595244 66.0364 44.595244 
z
" style="fill: #ffffff; opacity: 0.65; stroke: #808080; stroke-linejoin: miter"/>
    </g>
    <!-- JSD≈0.004 -->
    <g transform="translate(66.0364 40.023525) scale(0.09 -0.09)">
     <defs>
      <path id="DejaVuSans-4a" d="M 628 4666 
L 1259 4666 
L 1259 325 
Q 1259 -519 939 -900 
Q 619 -1281 -91 -1281 
L -331 -1281 
L -331 -750 
L -134 -750 
Q 284 -750 456 -515 
Q 628 -281 628 325 
L 628 4666 
z
" transform="scale(0.015625)"/>
      <path id="DejaVuSans-53" d="M 3425 4513 
L 3425 3897 
Q 3066 4069 2747 4153 
Q 2428 4238 2131 4238 
Q 1616 4238 1336 4038 
Q 1056 3838 1056 3469 
Q 1056 3159 1242 3001 
Q 1428 2844 1947 2747 
L 2328 2669 
Q 3034 2534 3370 2195 
Q 3706 1856 3706 1288 
Q 3706 609 3251 259 
Q 2797 -91 1919 -91 
Q 1588 -91 1214 -16 
Q 841 59 441 206 
L 441 856 
Q 825 641 1194 531 
Q 1563 422 1919 422 
Q 2459 422 2753 634 
Q 3047 847 3047 1241 
Q 3047 1584 2836 1778 
Q 2625 1972 2144 2069 
L 1759 2144 
Q 1053 2284 737 2584 
Q 422 2884 422 3419 
Q 422 4038 858 4394 
Q 1294 4750 2059 4750 
Q 2388 4750 2728 4690 
Q 3069 4631 3425 4513 
z
" transform="scale(0.015625)"/>
      <path id="DejaVuSans-2248" d="M 4684 1947 
L 4684 1388 
Q 4356 1144 4076 1036 
Q 3797 928 3494 928 
Q 3150 928 2694 1113 
Q 2663 1125 2641 1134 
Q 2622 1141 2575 1159 
Q 2091 1350 1797 1350 
Q 1522 1350 1253 1231 
Q 984 1113 678 850 
L 678 1409 
Q 1006 1653 1286 1761 
Q 1566 1869 1869 1869 
Q 2213 1869 2672 1684 
Q 2706 1669 2722 1663 
Q 2741 1656 2788 1638 
Q 3272 1447 3566 1447 
Q 3834 1447 4098 1564 
Q 4363 1681 4684 1947 
z
M 4684 3163 
L 4684 2606 
Q 4356 2359 4076 2251 
Q 3797 2144 3494 2144 
Q 3150 2144 2694 2328 
Q 2663 2341 2641 2350 
Q 2622 2356 2575 2375 
Q 2091 2566 1797 2566 
Q 1522 2566 1253 2447 
Q 984 2328 678 2069 
L 678 2625 
Q 1006 2869 1286 2976 
Q 1566 3084 1869 3084 
Q 2213 3084 2672 2900 
Q 2703 2888 2719 2881 
Q 2741 2872 2788 2853 
Q 3272 2663 3566 2663 
Q 3834 2663 4098 2780 
Q 4363 2897 4684 3163 
z
" transform="scale(0.015625)"/>
     </defs>
     <use xlink:href="#DejaVuSans-4a"/>
     <use xlink:href="#DejaVuSans-53" x="29.492188"/>
     <use xlink:href="#DejaVuSans-44" x="92.96875"/>
     <use xlink:href="#DejaVuSans-2248" x="169.970703"/>
     <use xlink:href="#DejaVuSans-30" x="253.759766"/>
     <use xlink:href="#DejaVuSans-2e" x="317.382812"/>
     <use xlink:href="#DejaVuSans-30" x="349.169922"/>
     <use xlink:href="#DejaVuSans-30" x="412.792969"/>
     <use xlink:href="#DejaVuSans-34" x="476.416016"/>
    </g>
   </g>
   <g id="text_15">
    <!-- Overlap quasi complet (d*=10.0, α=1.33) -->
    <g transform="translate(220.03375 20.88) scale(0.12 -0.12)">
     <defs>
      <path id="DejaVuSans-4f" d="M 2522 4238 
Q 1834 4238 1429 3725 
Q 1025 3213 1025 2328 
Q 1025 1447 1429 934 
Q 1834 422 2522 422 
Q 3209 422 3611 934 
Q 4013 1447 4013 2328 
Q 4013 3213 3611 3725 
Q 3209 4238 2522 4238 
z
M 2522 4750 
Q 3503 4750 4090 4092 
Q 4678 3434 4678 2328 
Q 4678 1225 4090 567 
Q 3503 -91 2522 -91 
Q 1538 -91 948 565 
Q 359 1222 359 2328 
Q 359 3434 948 4092 
Q 1538 4750 2522 4750 
z
" transform="scale(0.015625)"/>
      <path id="DejaVuSans-70" d="M 1159 525 
L 1159 -1331 
L 581 -1331 
L 581 3500 
L 1159 3500 
L 1159 2969 
Q 1341 3281 1617 3432 
Q 1894 3584 2278 3584 
Q 2916 3584 3314 3078 
Q 3713 2572 3713 1747 
Q 3713 922 3314 415 
Q 2916 -91 2278 -91 
Q 1894 -91 1617 61 
Q 1341 213 1159 525 
z
M 3116 1747 
Q 3116 2381 2855 2742 
Q 2594 3103 2138 3103 
Q 1681 3103 1420 2742 
Q 1159 2381 1159 1747 
Q 1159 1113 1420 752 
Q 1681 391 2138 391 
Q 2594 391 2855 752 
Q 3116 1113 3116 1747 
z
" transform="scale(0.015625)"/>
      <path id="DejaVuSans-6d" d="M 3328 2828 
Q 3544 3216 3844 3400 
Q 4144 3584 4550 3584 
Q 5097 3584 5394 3201 
Q 5691 2819 5691 2113 
L 5691 0 
L 5113 0 
L 5113 2094 
Q 5113 2597 4934 2840 
Q 4756 3084 4391 3084 
Q 3944 3084 3684 2787 
Q 3425 2491 3425 1978 
L 3425 0 
L 2847 0 
L 2847 2094 
Q 2847 2600 2669 2842 
Q 2491 3084 2119 3084 
Q 1678 3084 1418 2786 
Q 1159 2488 1159 1978 
L 1159 0 
L 581 0 
L 581 3500 
L 1159 3500 
L 1159 2956 
Q 1356 3278 1631 3431 
Q 1906 3584 2284 3584 
Q 2666 3584 2933 3390 
Q 3200 3197 3328 2828 
z
" transform="scale(0.015625)"/>
      <path id="DejaVuSans-2a" d="M 3009 3897 
L 1888 3291 
L 3009 2681 
L 2828 2375 
L 1778 3009 
L 1778 1831 
L 1422 1831 
L 1422 3009 
L 372 2375 
L 191 2681 
L 1313 3291 
L 191 3897 
L 372 4206 
L 1422 3572 
L 1422 4750 
L 1778 4750 
L 1778 3572 
L 2828 4206 
L 3009 3897 
z
" transform="scale(0.015625)"/>
      <path id="DejaVuSans-3d" d="M 678 2906 
L 4684 2906 
L 4684 2381 
L 678 2381 
L 678 2906 
z
M 678 1631 
L 4684 1631 
L 4684 1100 
L 678 1100 
L 678 1631 
z
" transform="scale(0.015625)"/>
      <path id="DejaVuSans-2c" d="M 750 794 
L 1409 794 
L 1409 256 
L 897 -744 
L 494 -744 
L 750 256 
L 750 794 
z
" transform="scale(0.015625)"/>
      <path id="DejaVuSans-3b1" d="M 2644 1628 
L 2506 2350 
Q 2366 3091 1809 3091 
Q 1391 3091 1200 2747 
Q 959 2316 959 1747 
Q 959 1059 1194 731 
Q 1431 397 1809 397 
Q 2228 397 2453 1063 
L 2644 1628 
z
M 2966 2584 
L 3275 3500 
L 3788 3500 
L 3147 1603 
L 3272 919 
Q 3300 766 3409 638 
Q 3538 488 3638 488 
L 3913 488 
L 3913 0 
L 3569 0 
Q 3275 0 3013 263 
Q 2884 394 2831 669 
Q 2688 322 2394 50 
Q 2256 -78 1809 -78 
Q 1075 -78 719 397 
Q 353 888 353 1747 
Q 353 2666 750 3097 
Q 1191 3578 1809 3578 
Q 2781 3578 2966 2584 
z
" transform="scale(0.015625)"/>
      <path id="DejaVuSans-33" d="M 2597 2516 
Q 3050 2419 3304 2112 
Q 3559 1806 3559 1356 
Q 3559 666 3084 287 
Q 2609 -91 1734 -91 
Q 1441 -91 1130 -33 
Q 819 25 488 141 
L 488 750 
Q 750 597 1062 519 
Q 1375 441 1716 441 
Q 2309 441 2620 675 
Q 2931 909 2931 1356 
Q 2931 1769 2642 2001 
Q 2353 2234 1838 2234 
L 1294 2234 
L 1294 2753 
L 1863 2753 
Q 2328 2753 2575 2939 
Q 2822 3125 2822 3475 
Q 2822 3834 2567 4026 
Q 2313 4219 1838 4219 
Q 1578 4219 1281 4162 
Q 984 4106 628 3988 
L 628 4550 
Q 988 4650 1302 4700 
Q 1616 4750 1894 4750 
Q 2613 4750 3031 4423 
Q 3450 4097 3450 3541 
Q 3450 3153 3228 2886 
Q 3006 2619 2597 2516 
z
" transform="scale(0.015625)"/>
     </defs>
     <use xlink:href="#DejaVuSans-4f"/>
     <use xlink:href="#DejaVuSans-76" x="78.710938"/>
     <use xlink:href="#DejaVuSans-65" x="137.890625"/>
     <use xlink:href="#DejaVuSans-72" x="199.414062"/>
     <use xlink:href="#DejaVuSans-6c" x="240.527344"/>
     <use xlink:href="#DejaVuSans-61" x="268.310547"/>
     <use xlink:href="#DejaVuSans-70" x="329.589844"/>
     <use xlink:href="#DejaVuSans-20" x="393.066406"/>
     <use xlink:href="#DejaVuSans-71" x="424.853516"/>
     <use xlink:href="#DejaVuSans-75" x="488.330078"/>
     <use xlink:href="#DejaVuSans-61" x="551.708984"/>
     <use xlink:href="#DejaVuSans-73" x="612.988281"/>
     <use xlink:href="#DejaVuSans-69" x="665.087891"/>
     <use xlink:href="#DejaVuSans-20" x="692.871094"/>
     <use xlink:href="#DejaVuSans-63" x="724.658203"/>
     <use xlink:href="#DejaVuSans-6f" x="779.638672"/>
     <use xlink:href="#DejaVuSans-6d" x="840.820312"/>
     <use xlink:href="#DejaVuSans-70" x="938.232422"/>
     <use xlink:href="#DejaVuSans-6c" x="1001.708984"/>
     <use xlink:href="#DejaVuSans-65" x="1029.492188"/>
     <use xlink:href="#DejaVuSans-74" x="1091.015625"/>
     <use xlink:href="#DejaVuSans-20" x="1130.224609"/>
     <use xlink:href="#DejaVuSans-28" x="1162.011719"/>
     <use xlink:href="#DejaVuSans-64" x="1201.025391"/>
     <use xlink:href="#DejaVuSans-2a" x="1264.501953"/>
     <use xlink:href="#DejaVuSans-3d" x="1314.501953"/>
     <use xlink:href="#DejaVuSans-31" x="1398.291016"/>
     <use xlink:href="#DejaVuSans-30" x="1461.914062"/>
     <use xlink:href="#DejaVuSans-2e" x="1525.537109"/>
     <use xlink:href="#DejaVuSans-30" x="1557.324219"/>
     <use xlink:href="#DejaVuSans-2c" x="1620.947266"/>
     <use xlink:href="#DejaVuSans-20" x="1652.734375"/>
     <use xlink:href="#DejaVuSans-3b1" x="1684.521484"/>
     <use xlink:href="#DejaVuSans-3d" x="1750.439453"/>
     <use xlink:href="#DejaVuSans-31" x="1834.228516"/>
     <use xlink:href="#DejaVuSans-2e" x="1897.851562"/>
     <use xlink:href="#DejaVuSans-33" x="1929.638672"/>
     <use xlink:href="#DejaVuSans-33" x="1993.261719"/>
     <use xlink:href="#DejaVuSans-29" x="2056.884766"/>
    </g>
   </g>
   <g id="legend_1">
    <g id="patch_56">
     <path d="M 537.41125 57.085 
L 631.6 57.085 
Q 633.2 57.085 633.2 55.485 
L 633.2 32.48 
Q 633.2 30.88 631.6 30.88 
L 537.41125 30.88 
Q 535.81125 30.88 535.81125 32.48 
L 535.81125 55.485 
Q 535.81125 57.085 537.41125 57.085 
z
" style="fill: #ffffff; opacity: 0.8; stroke: #cccccc; stroke-linejoin: miter"/>
    </g>
    <g id="patch_57">
     <path d="M 539.01125 40.47875 
L 555.01125 40.47875 
L 555.01125 34.87875 
L 539.01125 34.87875 
z
" style="fill: #1f77b4; opacity: 0.4"/>
    </g>
    <g id="text_16">
     <!-- Kingman (ajusté) -->
     <g transform="translate(561.41125 40.47875) scale(0.08 -0.08)">
      <defs>
       <path id="DejaVuSans-67" d="M 2906 1791 
Q 2906 2416 2648 2759 
Q 2391 3103 1925 3103 
Q 1463 3103 1205 2759 
Q 947 2416 947 1791 
Q 947 1169 1205 825 
Q 1463 481 1925 481 
Q 2391 481 2648 825 
Q 2906 1169 2906 1791 
z
M 3481 434 
Q 3481 -459 3084 -895 
Q 2688 -1331 1869 -1331 
Q 1566 -1331 1297 -1286 
Q 1028 -1241 775 -1147 
L 775 -588 
Q 1028 -725 1275 -790 
Q 1522 -856 1778 -856 
Q 2344 -856 2625 -561 
Q 2906 -266 2906 331 
L 2906 616 
Q 2728 306 2450 153 
Q 2172 0 1784 0 
Q 1141 0 747 490 
Q 353 981 353 1791 
Q 353 2603 747 3093 
Q 1141 3584 1784 3584 
Q 2172 3584 2450 3431 
Q 2728 3278 2906 2969 
L 2906 3500 
L 3481 3500 
L 3481 434 
z
" transform="scale(0.015625)"/>
      </defs>
      <use xlink:href="#DejaVuSans-4b"/>
      <use xlink:href="#DejaVuSans-69" x="65.576172"/>
      <use xlink:href="#DejaVuSans-6e" x="93.359375"/>
      <use xlink:href="#DejaVuSans-67" x="156.738281"/>
      <use xlink:href="#DejaVuSans-6d" x="220.214844"/>
      <use xlink:href="#DejaVuSans-61" x="317.626953"/>
      <use xlink:href="#DejaVuSans-6e" x="378.90625"/>
      <use xlink:href="#DejaVuSans-20" x="442.285156"/>
      <use xlink:href="#DejaVuSans-28" x="474.072266"/>
      <use xlink:href="#DejaVuSans-61" x="513.085938"/>
      <use xlink:href="#DejaVuSans-6a" x="574.365234"/>
      <use xlink:href="#DejaVuSans-75" x="602.148438"/>
      <use xlink:href="#DejaVuSans-73" x="665.527344"/>
      <use xlink:href="#DejaVuSans-74" x="717.626953"/>
      <use xlink:href="#DejaVuSans-e9" x="756.835938"/>
      <use xlink:href="#DejaVuSans-29" x="818.359375"/>
     </g>
    </g>
    <g id="patch_58">
     <path d="M 539.01125 52.22125 
L 555.01125 52.22125 
L 555.01125 46.62125 
L 539.01125 46.62125 
z
" style="fill: #d62728; opacity: 0.4"/>
    </g>
    <g id="text_17">
     <!-- Λ-Beta -->
     <g transform="translate(561.41125 52.22125) scale(0.08 -0.08)">
      <defs>
       <path id="DejaVuSans-39b" d="M 716 0 
L 50 0 
L 1831 4666 
L 2547 4666 
L 4325 0 
L 3669 0 
L 2188 4044 
L 716 0 
z
" transform="scale(0.015625)"/>
       <path id="DejaVuSans-2d" d="M 313 2009 
L 1997 2009 
L 1997 1497 
L 313 1497 
L 313 2009 
z
" transform="scale(0.015625)"/>
       <path id="DejaVuSans-42" d="M 1259 2228 
L 1259 519 
L 2272 519 
Q 2781 519 3026 730 
Q 3272 941 3272 1375 
Q 3272 1813 3026 2020 
Q 2781 2228 2272 2228 
L 1259 2228 
z
M 1259 4147 
L 1259 2741 
L 2194 2741 
Q 2656 2741 2882 2914 
Q 3109 3088 3109 3444 
Q 3109 3797 2882 3972 
Q 2656 4147 2194 4147 
L 1259 4147 
z
M 628 4666 
L 2241 4666 
Q 2963 4666 3353 4366 
Q 3744 4066 3744 3513 
Q 3744 3084 3544 2831 
Q 3344 2578 2956 2516 
Q 3422 2416 3680 2098 
Q 3938 1781 3938 1306 
Q 3938 681 3513 340 
Q 3088 0 2303 0 
L 628 0 
L 628 4666 
z
" transform="scale(0.015625)"/>
      </defs>
      <use xlink:href="#DejaVuSans-39b"/>
      <use xlink:href="#DejaVuSans-2d" x="68.408203"/>
      <use xlink:href="#DejaVuSans-42" x="100.867188"/>
      <use xlink:href="#DejaVuSans-65" x="169.470703"/>
      <use xlink:href="#DejaVuSans-74" x="230.994141"/>
      <use xlink:href="#DejaVuSans-61" x="270.203125"/>
     </g>
    </g>
   </g>
  </g>
 </g>
 <defs>
  <clipPath id="p16bd8cacd2">
   <rect x="54.38" y="26.88" width="582.82" height="219.05875"/>
  </clipPath>
 </defs>
</svg>
