<?xml version="1.0" encoding="utf-8" standalone="no"?>
<!DOCTYPE svg PUBLIC "-//W3C//DTD SVG 1.1//EN"
  "http://www.w3.org/Graphics/SVG/1.1/DTD/svg11.dtd">
<svg xmlns:xlink="http://www.w3.org/1999/xlink" width="648pt" height="216pt" viewBox="0 0 648 216" xmlns="http://www.w3.org/2000/svg" version="1.1">
 <metadata>
  <rdf:RDF xmlns:dc="http://purl.org/dc/elements/1.1/" xmlns:cc="http://creativecommons.org/ns#" xmlns:rdf="http://www.w3.org/1999/02/22-rdf-syntax-ns#">
   <cc:Work>
    <dc:type rdf:resource="http://purl.org/dc/dcmitype/StillImage"/>
    <dc:date>2025-11-17T20:05:42.708524</dc:date>
    <dc:format>image/svg+xml</dc:format>
    <dc:creator>
     <cc:Agent>
      <dc:title>Matplotlib v3.9.4, https://matplotlib.org/</dc:title>
     </cc:Agent>
    </dc:creator>
   </cc:Work>
  </rdf:RDF>
 </metadata>
 <defs>
  <style type="text/css">*{stroke-linejoin: round; stroke-linecap: butt}</style>
 </defs>
 <g id="figure_1">
  <g id="patch_1">
   <path d="M 0 216 
L 648 216 
L 648 0 
L 0 0 
z
" style="fill: #ffffff"/>
  </g>
  <g id="axes_1">
   <g id="patch_2">
    <path d="M 50.168 173.68 
L 282.652 173.68 
L 282.652 29.04 
L 50.168 29.04 
z
" style="fill: #ffffff"/>
   </g>
   <g id="matplotlib.axis_1">
    <g id="xtick_1">
     <g id="line2d_1">
      <defs>
       <path id="md22b1f1f79" d="M 0 0 
L 0 3.5 
" style="stroke: #000000; stroke-width: 0.8"/>
      </defs>
      <g>
       <use xlink:href="#md22b1f1f79" x="50.168" y="173.68" style="stroke: #000000; stroke-width: 0.8"/>
      </g>
     </g>
     <g id="text_1">
      <!-- 0.0 -->
      <g transform="translate(42.216438 188.278437) scale(0.1 -0.1)">
       <defs>
        <path id="DejaVuSans-30" d="M 2034 4250 
Q 1547 4250 1301 3770 
Q 1056 3291 1056 2328 
Q 1056 1369 1301 889 
Q 1547 409 2034 409 
Q 2525 409 2770 889 
Q 3016 1369 3016 2328 
Q 3016 3291 2770 3770 
Q 2525 4250 2034 4250 
z
M 2034 4750 
Q 2819 4750 3233 4129 
Q 3647 3509 3647 2328 
Q 3647 1150 3233 529 
Q 2819 -91 2034 -91 
Q 1250 -91 836 529 
Q 422 1150 422 2328 
Q 422 3509 836 4129 
Q 1250 4750 2034 4750 
z
" transform="scale(0.015625)"/>
        <path id="DejaVuSans-2e" d="M 684 794 
L 1344 794 
L 1344 0 
L 684 0 
L 684 794 
z
" transform="scale(0.015625)"/>
       </defs>
       <use xlink:href="#DejaVuSans-30"/>
       <use xlink:href="#DejaVuSans-2e" x="63.623047"/>
       <use xlink:href="#DejaVuSans-30" x="95.410156"/>
      </g>
     </g>
    </g>
    <g id="xtick_2">
     <g id="line2d_2">
      <g>
       <use xlink:href="#md22b1f1f79" x="96.6648" y="173.68" style="stroke: #000000; stroke-width: 0.8"/>
      </g>
     </g>
     <g id="text_2">
      <!-- 0.2 -->
      <g transform="translate(88.713238 188.278437) scale(0.1 -0.1)">
       <defs>
        <path id="DejaVuSans-32" d="M 1228 531 
L 3431 531 
L 3431 0 
L 469 0 
L 469 531 
Q 828 903 1448 1529 
Q 2069 2156 2228 2338 
Q 2531 2678 2651 2914 
Q 2772 3150 2772 3378 
Q 2772 3750 2511 3984 
Q 2250 4219 1831 4219 
Q 1534 4219 1204 4116 
Q 875 4013 500 3803 
L 500 4441 
Q 881 4594 1212 4672 
Q 1544 4750 1819 4750 
Q 2544 4750 2975 4387 
Q 3406 4025 3406 3419 
Q 3406 3131 3298 2873 
Q 3191 2616 2906 2266 
Q 2828 2175 2409 1742 
Q 1991 1309 1228 531 
z
" transform="scale(0.015625)"/>
       </defs>
       <use xlink:href="#DejaVuSans-30"/>
       <use xlink:href="#DejaVuSans-2e" x="63.623047"/>
       <use xlink:href="#DejaVuSans-32" x="95.410156"/>
      </g>
     </g>
    </g>
    <g id="xtick_3">
     <g id="line2d_3">
      <g>
       <use xlink:href="#md22b1f1f79" x="143.1616" y="173.68" style="stroke: #000000; stroke-width: 0.8"/>
      </g>
     </g>
     <g id="text_3">
      <!-- 0.4 -->
      <g transform="translate(135.210038 188.278437) scale(0.1 -0.1)">
       <defs>
        <path id="DejaVuSans-34" d="M 2419 4116 
L 825 1625 
L 2419 1625 
L 2419 4116 
z
M 2253 4666 
L 3047 4666 
L 3047 1625 
L 3713 1625 
L 3713 1100 
L 3047 1100 
L 3047 0 
L 2419 0 
L 2419 1100 
L 313 1100 
L 313 1709 
L 2253 4666 
z
" transform="scale(0.015625)"/>
       </defs>
       <use xlink:href="#DejaVuSans-30"/>
       <use xlink:href="#DejaVuSans-2e" x="63.623047"/>
       <use xlink:href="#DejaVuSans-34" x="95.410156"/>
      </g>
     </g>
    </g>
    <g id="xtick_4">
     <g id="line2d_4">
      <g>
       <use xlink:href="#md22b1f1f79" x="189.6584" y="173.68" style="stroke: #000000; stroke-width: 0.8"/>
      </g>
     </g>
     <g id="text_4">
      <!-- 0.6 -->
      <g transform="translate(181.706838 188.278437) scale(0.1 -0.1)">
       <defs>
        <path id="DejaVuSans-36" d="M 2113 2584 
Q 1688 2584 1439 2293 
Q 1191 2003 1191 1497 
Q 1191 994 1439 701 
Q 1688 409 2113 409 
Q 2538 409 2786 701 
Q 3034 994 3034 1497 
Q 3034 2003 2786 2293 
Q 2538 2584 2113 2584 
z
M 3366 4563 
L 3366 3988 
Q 3128 4100 2886 4159 
Q 2644 4219 2406 4219 
Q 1781 4219 1451 3797 
Q 1122 3375 1075 2522 
Q 1259 2794 1537 2939 
Q 1816 3084 2150 3084 
Q 2853 3084 3261 2657 
Q 3669 2231 3669 1497 
Q 3669 778 3244 343 
Q 2819 -91 2113 -91 
Q 1303 -91 875 529 
Q 447 1150 447 2328 
Q 447 3434 972 4092 
Q 1497 4750 2381 4750 
Q 2619 4750 2861 4703 
Q 3103 4656 3366 4563 
z
" transform="scale(0.015625)"/>
       </defs>
       <use xlink:href="#DejaVuSans-30"/>
       <use xlink:href="#DejaVuSans-2e" x="63.623047"/>
       <use xlink:href="#DejaVuSans-36" x="95.410156"/>
      </g>
     </g>
    </g>
    <g id="xtick_5">
     <g id="line2d_5">
      <g>
       <use xlink:href="#md22b1f1f79" x="236.1552" y="173.68" style="stroke: #000000; stroke-width: 0.8"/>
      </g>
     </g>
     <g id="text_5">
      <!-- 0.8 -->
      <g transform="translate(228.203638 188.278437) scale(0.1 -0.1)">
       <defs>
        <path id="DejaVuSans-38" d="M 2034 2216 
Q 1584 2216 1326 1975 
Q 1069 1734 1069 1313 
Q 1069 891 1326 650 
Q 1584 409 2034 409 
Q 2484 409 2743 651 
Q 3003 894 3003 1313 
Q 3003 1734 2745 1975 
Q 2488 2216 2034 2216 
z
M 1403 2484 
Q 997 2584 770 2862 
Q 544 3141 544 3541 
Q 544 4100 942 4425 
Q 1341 4750 2034 4750 
Q 2731 4750 3128 4425 
Q 3525 4100 3525 3541 
Q 3525 3141 3298 2862 
Q 3072 2584 2669 2484 
Q 3125 2378 3379 2068 
Q 3634 1759 3634 1313 
Q 3634 634 3220 271 
Q 2806 -91 2034 -91 
Q 1263 -91 848 271 
Q 434 634 434 1313 
Q 434 1759 690 2068 
Q 947 2378 1403 2484 
z
M 1172 3481 
Q 1172 3119 1398 2916 
Q 1625 2713 2034 2713 
Q 2441 2713 2670 2916 
Q 2900 3119 2900 3481 
Q 2900 3844 2670 4047 
Q 2441 4250 2034 4250 
Q 1625 4250 1398 4047 
Q 1172 3844 1172 3481 
z
" transform="scale(0.015625)"/>
       </defs>
       <use xlink:href="#DejaVuSans-30"/>
       <use xlink:href="#DejaVuSans-2e" x="63.623047"/>
       <use xlink:href="#DejaVuSans-38" x="95.410156"/>
      </g>
     </g>
    </g>
    <g id="xtick_6">
     <g id="line2d_6">
      <g>
       <use xlink:href="#md22b1f1f79" x="282.652" y="173.68" style="stroke: #000000; stroke-width: 0.8"/>
      </g>
     </g>
     <g id="text_6">
      <!-- 1.0 -->
      <g transform="translate(274.700437 188.278437) scale(0.1 -0.1)">
       <defs>
        <path id="DejaVuSans-31" d="M 794 531 
L 1825 531 
L 1825 4091 
L 703 3866 
L 703 4441 
L 1819 4666 
L 2450 4666 
L 2450 531 
L 3481 531 
L 3481 0 
L 794 0 
L 794 531 
z
" transform="scale(0.015625)"/>
       </defs>
       <use xlink:href="#DejaVuSans-31"/>
       <use xlink:href="#DejaVuSans-2e" x="63.623047"/>
       <use xlink:href="#DejaVuSans-30" x="95.410156"/>
      </g>
     </g>
    </g>
    <g id="text_7">
     <!-- x -->
     <g transform="translate(163.450625 201.956562) scale(0.1 -0.1)">
      <defs>
       <path id="DejaVuSans-78" d="M 3513 3500 
L 2247 1797 
L 3578 0 
L 2900 0 
L 1881 1375 
L 863 0 
L 184 0 
L 1544 1831 
L 300 3500 
L 978 3500 
L 1906 2253 
L 2834 3500 
L 3513 3500 
z
" transform="scale(0.015625)"/>
      </defs>
      <use xlink:href="#DejaVuSans-78"/>
     </g>
    </g>
   </g>
   <g id="matplotlib.axis_2">
    <g id="ytick_1">
     <g id="line2d_7">
      <defs>
       <path id="maa3684a706" d="M 0 0 
L -3.5 0 
" style="stroke: #000000; stroke-width: 0.8"/>
      </defs>
      <g>
       <use xlink:href="#maa3684a706" x="50.168" y="159.216" style="stroke: #000000; stroke-width: 0.8"/>
      </g>
     </g>
     <g id="text_8">
      <!-- 0.6 -->
      <g transform="translate(27.264875 163.015219) scale(0.1 -0.1)">
       <use xlink:href="#DejaVuSans-30"/>
       <use xlink:href="#DejaVuSans-2e" x="63.623047"/>
       <use xlink:href="#DejaVuSans-36" x="95.410156"/>
      </g>
     </g>
    </g>
    <g id="ytick_2">
     <g id="line2d_8">
      <g>
       <use xlink:href="#maa3684a706" x="50.168" y="130.288" style="stroke: #000000; stroke-width: 0.8"/>
      </g>
     </g>
     <g id="text_9">
      <!-- 0.8 -->
      <g transform="translate(27.264875 134.087219) scale(0.1 -0.1)">
       <use xlink:href="#DejaVuSans-30"/>
       <use xlink:href="#DejaVuSans-2e" x="63.623047"/>
       <use xlink:href="#DejaVuSans-38" x="95.410156"/>
      </g>
     </g>
    </g>
    <g id="ytick_3">
     <g id="line2d_9">
      <g>
       <use xlink:href="#maa3684a706" x="50.168" y="101.36" style="stroke: #000000; stroke-width: 0.8"/>
      </g>
     </g>
     <g id="text_10">
      <!-- 1.0 -->
      <g transform="translate(27.264875 105.159219) scale(0.1 -0.1)">
       <use xlink:href="#DejaVuSans-31"/>
       <use xlink:href="#DejaVuSans-2e" x="63.623047"/>
       <use xlink:href="#DejaVuSans-30" x="95.410156"/>
      </g>
     </g>
    </g>
    <g id="ytick_4">
     <g id="line2d_10">
      <g>
       <use xlink:href="#maa3684a706" x="50.168" y="72.432" style="stroke: #000000; stroke-width: 0.8"/>
      </g>
     </g>
     <g id="text_11">
      <!-- 1.2 -->
      <g transform="translate(27.264875 76.231219) scale(0.1 -0.1)">
       <use xlink:href="#DejaVuSans-31"/>
       <use xlink:href="#DejaVuSans-2e" x="63.623047"/>
       <use xlink:href="#DejaVuSans-32" x="95.410156"/>
      </g>
     </g>
    </g>
    <g id="ytick_5">
     <g id="line2d_11">
      <g>
       <use xlink:href="#maa3684a706" x="50.168" y="43.504" style="stroke: #000000; stroke-width: 0.8"/>
      </g>
     </g>
     <g id="text_12">
      <!-- 1.4 -->
      <g transform="translate(27.264875 47.303219) scale(0.1 -0.1)">
       <use xlink:href="#DejaVuSans-31"/>
       <use xlink:href="#DejaVuSans-2e" x="63.623047"/>
       <use xlink:href="#DejaVuSans-34" x="95.410156"/>
      </g>
     </g>
    </g>
    <g id="text_13">
     <!-- $f_\varepsilon(x)$ -->
     <g transform="translate(21.185188 112.01) rotate(-90) scale(0.1 -0.1)">
      <defs>
       <path id="DejaVuSans-Oblique-66" d="M 3059 4863 
L 2969 4384 
L 2419 4384 
Q 2106 4384 1964 4261 
Q 1822 4138 1753 3809 
L 1691 3500 
L 2638 3500 
L 2553 3053 
L 1606 3053 
L 1013 0 
L 434 0 
L 1031 3053 
L 481 3053 
L 563 3500 
L 1113 3500 
L 1159 3744 
Q 1278 4363 1576 4613 
Q 1875 4863 2516 4863 
L 3059 4863 
z
" transform="scale(0.015625)"/>
       <path id="DejaVuSans-Oblique-3b5" d="M 1263 1888 
Q 925 1963 778 2166 
Q 669 2309 669 2503 
Q 669 3034 1175 3344 
Q 1575 3588 2188 3588 
Q 2425 3588 2684 3550 
Q 2944 3513 3234 3438 
L 3134 2916 
Q 2847 3006 2606 3047 
Q 2359 3088 2138 3088 
Q 1766 3088 1522 2944 
Q 1228 2772 1228 2522 
Q 1228 2356 1381 2241 
Q 1563 2103 1925 2103 
L 2409 2103 
L 2319 1628 
L 1856 1628 
Q 1425 1628 1172 1469 
Q 828 1253 828 916 
Q 828 703 1013 563 
Q 1244 388 1716 388 
Q 2006 388 2284 444 
Q 2563 503 2806 619 
L 2700 84 
Q 2403 -3 2131 -47 
Q 1859 -91 1609 -91 
Q 866 -91 516 194 
Q 250 413 250 781 
Q 250 1278 600 1584 
Q 859 1813 1263 1888 
z
" transform="scale(0.015625)"/>
       <path id="DejaVuSans-28" d="M 1984 4856 
Q 1566 4138 1362 3434 
Q 1159 2731 1159 2009 
Q 1159 1288 1364 580 
Q 1569 -128 1984 -844 
L 1484 -844 
Q 1016 -109 783 600 
Q 550 1309 550 2009 
Q 550 2706 781 3412 
Q 1013 4119 1484 4856 
L 1984 4856 
z
" transform="scale(0.015625)"/>
       <path id="DejaVuSans-Oblique-78" d="M 3841 3500 
L 2234 1784 
L 3219 0 
L 2559 0 
L 1819 1388 
L 531 0 
L -166 0 
L 1556 1844 
L 641 3500 
L 1300 3500 
L 1972 2234 
L 3144 3500 
L 3841 3500 
z
" transform="scale(0.015625)"/>
       <path id="DejaVuSans-29" d="M 513 4856 
L 1013 4856 
Q 1481 4119 1714 3412 
Q 1947 2706 1947 2009 
Q 1947 1309 1714 600 
Q 1481 -109 1013 -844 
L 513 -844 
Q 928 -128 1133 580 
Q 1338 1288 1338 2009 
Q 1338 2731 1133 3434 
Q 928 4138 513 4856 
z
" transform="scale(0.015625)"/>
      </defs>
      <use xlink:href="#DejaVuSans-Oblique-66" transform="translate(0 0.015625)"/>
      <use xlink:href="#DejaVuSans-Oblique-3b5" transform="translate(35.205078 -16.390625) scale(0.7)"/>
      <use xlink:href="#DejaVuSans-28" transform="translate(75.776367 0.015625)"/>
      <use xlink:href="#DejaVuSans-Oblique-78" transform="translate(114.790039 0.015625)"/>
      <use xlink:href="#DejaVuSans-29" transform="translate(173.969727 0.015625)"/>
     </g>
    </g>
   </g>
   <g id="line2d_12">
    <path d="M 50.168 101.36 
L 282.652 101.36 
L 282.652 101.36 
" clip-path="url(#p3ef6d31df1)" style="fill: none; stroke: #ffa500; stroke-width: 2; stroke-linecap: square"/>
   </g>
   <g id="line2d_13">
    <path d="M 50.168 173.68 
L 51.331875 144.520424 
L 52.49575 121.58794 
L 53.368656 107.950205 
L 54.241562 96.991594 
L 55.114468 88.403504 
L 55.987374 81.901435 
L 56.86028 77.223656 
L 57.442218 74.999141 
L 58.024155 73.412091 
L 58.606093 72.400212 
L 59.18803 71.904898 
L 59.769967 71.871086 
L 60.351905 72.247109 
L 60.933842 72.984557 
L 61.806748 74.670149 
L 62.679655 76.927362 
L 63.843529 80.609938 
L 65.589342 87.056594 
L 70.826778 107.120922 
L 72.572591 112.632082 
L 74.027434 116.466091 
L 75.191309 118.98654 
L 76.355184 121.001259 
L 77.519059 122.505359 
L 78.391965 123.301476 
L 79.264871 123.819322 
L 80.137777 124.067289 
L 81.010683 124.055956 
L 81.883589 123.797776 
L 82.756496 123.306793 
L 83.629402 122.598366 
L 84.793277 121.344067 
L 85.957151 119.773652 
L 87.411995 117.431556 
L 89.157807 114.178327 
L 91.485557 109.332094 
L 98.759775 93.805397 
L 100.796556 90.140653 
L 102.542368 87.434621 
L 103.997212 85.530816 
L 105.452055 83.972678 
L 106.906899 82.777001 
L 108.070773 82.088056 
L 109.234648 81.638956 
L 110.398523 81.42864 
L 111.562398 81.453491 
L 112.726273 81.707494 
L 113.890148 82.182411 
L 115.054023 82.867969 
L 116.508866 84.002507 
L 117.96371 85.419872 
L 119.709522 87.450673 
L 121.746303 90.200836 
L 124.074053 93.723742 
L 127.856646 99.923717 
L 132.512145 107.493375 
L 135.130864 111.319077 
L 137.167645 113.932754 
L 138.913457 115.862779 
L 140.659269 117.468196 
L 142.114113 118.537169 
L 143.568956 119.348079 
L 145.0238 119.892056 
L 146.478643 120.163985 
L 147.933487 120.162502 
L 149.38833 119.889939 
L 150.843174 119.352235 
L 152.298018 118.558803 
L 153.752861 117.52237 
L 155.498673 115.980389 
L 157.244486 114.144231 
L 159.281267 111.681337 
L 161.899985 108.113603 
L 165.39161 102.917476 
L 171.501952 93.78162 
L 174.120671 90.303272 
L 176.157452 87.93328 
L 177.903264 86.191196 
L 179.649076 84.754843 
L 181.10392 83.813879 
L 182.558763 83.121393 
L 184.013607 82.688806 
L 185.468451 82.524163 
L 186.923294 82.63197 
L 188.378138 83.013091 
L 189.832981 83.664666 
L 191.287825 84.580075 
L 192.742668 85.748952 
L 194.488481 87.466123 
L 196.234293 89.496717 
L 198.271074 92.210504 
L 200.598824 95.677475 
L 204.090448 101.340998 
L 209.618854 110.355787 
L 211.946603 113.742343 
L 213.983384 116.326582 
L 215.729196 118.18284 
L 217.18404 119.433982 
L 218.638884 120.385504 
L 219.802758 120.91412 
L 220.966633 121.224206 
L 222.130508 121.306998 
L 223.294383 121.155911 
L 224.458258 120.766708 
L 225.622133 120.137678 
L 226.786008 119.26978 
L 228.240851 117.855026 
L 229.695695 116.086995 
L 231.150538 113.986982 
L 232.89635 111.070069 
L 234.933131 107.203351 
L 237.55185 101.703604 
L 243.953161 87.97167 
L 245.698974 84.789977 
L 247.153817 82.526432 
L 248.317692 81.031078 
L 249.481567 79.862326 
L 250.354473 79.224603 
L 251.227379 78.809574 
L 252.100285 78.632189 
L 252.973191 78.705991 
L 253.846098 79.042844 
L 254.719004 79.652633 
L 255.59191 80.542946 
L 256.464816 81.718741 
L 257.628691 83.73346 
L 258.792566 86.253909 
L 259.956441 89.262759 
L 261.411284 93.660883 
L 263.157096 99.737339 
L 265.484846 108.744739 
L 268.685502 121.09714 
L 270.140345 125.792638 
L 271.013252 128.049851 
L 271.886158 129.735443 
L 272.468095 130.472891 
L 273.050033 130.848914 
L 273.63197 130.815102 
L 274.213907 130.319788 
L 274.795845 129.307909 
L 275.377782 127.720859 
L 275.95972 125.496344 
L 276.541657 122.568229 
L 277.414563 116.702251 
L 278.287469 108.839961 
L 279.160375 98.704595 
L 280.033282 85.995735 
L 280.906188 70.387938 
L 281.779094 51.529306 
L 282.652 29.04 
L 282.652 29.04 
" clip-path="url(#p3ef6d31df1)" style="fill: none; stroke: #87cefa; stroke-width: 1.6; stroke-linecap: square"/>
   </g>
   <g id="patch_3">
    <path d="M 50.168 173.68 
L 50.168 29.04 
" style="fill: none; stroke: #000000; stroke-width: 0.8; stroke-linejoin: miter; stroke-linecap: square"/>
   </g>
   <g id="patch_4">
    <path d="M 282.652 173.68 
L 282.652 29.04 
" style="fill: none; stroke: #000000; stroke-width: 0.8; stroke-linejoin: miter; stroke-linecap: square"/>
   </g>
   <g id="patch_5">
    <path d="M 50.168 173.68 
L 282.652 173.68 
" style="fill: none; stroke: #000000; stroke-width: 0.8; stroke-linejoin: miter; stroke-linecap: square"/>
   </g>
   <g id="patch_6">
    <path d="M 50.168 29.04 
L 282.652 29.04 
" style="fill: none; stroke: #000000; stroke-width: 0.8; stroke-linejoin: miter; stroke-linecap: square"/>
   </g>
   <g id="text_14">
    <!-- Comparaisons de densités $\Lambda_\varepsilon$ ($n=10$) -->
    <g transform="translate(53.19 23.04) scale(0.12 -0.12)">
     <defs>
      <path id="DejaVuSans-43" d="M 4122 4306 
L 4122 3641 
Q 3803 3938 3442 4084 
Q 3081 4231 2675 4231 
Q 1875 4231 1450 3742 
Q 1025 3253 1025 2328 
Q 1025 1406 1450 917 
Q 1875 428 2675 428 
Q 3081 428 3442 575 
Q 3803 722 4122 1019 
L 4122 359 
Q 3791 134 3420 21 
Q 3050 -91 2638 -91 
Q 1578 -91 968 557 
Q 359 1206 359 2328 
Q 359 3453 968 4101 
Q 1578 4750 2638 4750 
Q 3056 4750 3426 4639 
Q 3797 4528 4122 4306 
z
" transform="scale(0.015625)"/>
      <path id="DejaVuSans-6f" d="M 1959 3097 
Q 1497 3097 1228 2736 
Q 959 2375 959 1747 
Q 959 1119 1226 758 
Q 1494 397 1959 397 
Q 2419 397 2687 759 
Q 2956 1122 2956 1747 
Q 2956 2369 2687 2733 
Q 2419 3097 1959 3097 
z
M 1959 3584 
Q 2709 3584 3137 3096 
Q 3566 2609 3566 1747 
Q 3566 888 3137 398 
Q 2709 -91 1959 -91 
Q 1206 -91 779 398 
Q 353 888 353 1747 
Q 353 2609 779 3096 
Q 1206 3584 1959 3584 
z
" transform="scale(0.015625)"/>
      <path id="DejaVuSans-6d" d="M 3328 2828 
Q 3544 3216 3844 3400 
Q 4144 3584 4550 3584 
Q 5097 3584 5394 3201 
Q 5691 2819 5691 2113 
L 5691 0 
L 5113 0 
L 5113 2094 
Q 5113 2597 4934 2840 
Q 4756 3084 4391 3084 
Q 3944 3084 3684 2787 
Q 3425 2491 3425 1978 
L 3425 0 
L 2847 0 
L 2847 2094 
Q 2847 2600 2669 2842 
Q 2491 3084 2119 3084 
Q 1678 3084 1418 2786 
Q 1159 2488 1159 1978 
L 1159 0 
L 581 0 
L 581 3500 
L 1159 3500 
L 1159 2956 
Q 1356 3278 1631 3431 
Q 1906 3584 2284 3584 
Q 2666 3584 2933 3390 
Q 3200 3197 3328 2828 
z
" transform="scale(0.015625)"/>
      <path id="DejaVuSans-70" d="M 1159 525 
L 1159 -1331 
L 581 -1331 
L 581 3500 
L 1159 3500 
L 1159 2969 
Q 1341 3281 1617 3432 
Q 1894 3584 2278 3584 
Q 2916 3584 3314 3078 
Q 3713 2572 3713 1747 
Q 3713 922 3314 415 
Q 2916 -91 2278 -91 
Q 1894 -91 1617 61 
Q 1341 213 1159 525 
z
M 3116 1747 
Q 3116 2381 2855 2742 
Q 2594 3103 2138 3103 
Q 1681 3103 1420 2742 
Q 1159 2381 1159 1747 
Q 1159 1113 1420 752 
Q 1681 391 2138 391 
Q 2594 391 2855 752 
Q 3116 1113 3116 1747 
z
" transform="scale(0.015625)"/>
      <path id="DejaVuSans-61" d="M 2194 1759 
Q 1497 1759 1228 1600 
Q 959 1441 959 1056 
Q 959 750 1161 570 
Q 1363 391 1709 391 
Q 2188 391 2477 730 
Q 2766 1069 2766 1631 
L 2766 1759 
L 2194 1759 
z
M 3341 1997 
L 3341 0 
L 2766 0 
L 2766 531 
Q 2569 213 2275 61 
Q 1981 -91 1556 -91 
Q 1019 -91 701 211 
Q 384 513 384 1019 
Q 384 1609 779 1909 
Q 1175 2209 1959 2209 
L 2766 2209 
L 2766 2266 
Q 2766 2663 2505 2880 
Q 2244 3097 1772 3097 
Q 1472 3097 1187 3025 
Q 903 2953 641 2809 
L 641 3341 
Q 956 3463 1253 3523 
Q 1550 3584 1831 3584 
Q 2591 3584 2966 3190 
Q 3341 2797 3341 1997 
z
" transform="scale(0.015625)"/>
      <path id="DejaVuSans-72" d="M 2631 2963 
Q 2534 3019 2420 3045 
Q 2306 3072 2169 3072 
Q 1681 3072 1420 2755 
Q 1159 2438 1159 1844 
L 1159 0 
L 581 0 
L 581 3500 
L 1159 3500 
L 1159 2956 
Q 1341 3275 1631 3429 
Q 1922 3584 2338 3584 
Q 2397 3584 2469 3576 
Q 2541 3569 2628 3553 
L 2631 2963 
z
" transform="scale(0.015625)"/>
      <path id="DejaVuSans-69" d="M 603 3500 
L 1178 3500 
L 1178 0 
L 603 0 
L 603 3500 
z
M 603 4863 
L 1178 4863 
L 1178 4134 
L 603 4134 
L 603 4863 
z
" transform="scale(0.015625)"/>
      <path id="DejaVuSans-73" d="M 2834 3397 
L 2834 2853 
Q 2591 2978 2328 3040 
Q 2066 3103 1784 3103 
Q 1356 3103 1142 2972 
Q 928 2841 928 2578 
Q 928 2378 1081 2264 
Q 1234 2150 1697 2047 
L 1894 2003 
Q 2506 1872 2764 1633 
Q 3022 1394 3022 966 
Q 3022 478 2636 193 
Q 2250 -91 1575 -91 
Q 1294 -91 989 -36 
Q 684 19 347 128 
L 347 722 
Q 666 556 975 473 
Q 1284 391 1588 391 
Q 1994 391 2212 530 
Q 2431 669 2431 922 
Q 2431 1156 2273 1281 
Q 2116 1406 1581 1522 
L 1381 1569 
Q 847 1681 609 1914 
Q 372 2147 372 2553 
Q 372 3047 722 3315 
Q 1072 3584 1716 3584 
Q 2034 3584 2315 3537 
Q 2597 3491 2834 3397 
z
" transform="scale(0.015625)"/>
      <path id="DejaVuSans-6e" d="M 3513 2113 
L 3513 0 
L 2938 0 
L 2938 2094 
Q 2938 2591 2744 2837 
Q 2550 3084 2163 3084 
Q 1697 3084 1428 2787 
Q 1159 2491 1159 1978 
L 1159 0 
L 581 0 
L 581 3500 
L 1159 3500 
L 1159 2956 
Q 1366 3272 1645 3428 
Q 1925 3584 2291 3584 
Q 2894 3584 3203 3211 
Q 3513 2838 3513 2113 
z
" transform="scale(0.015625)"/>
      <path id="DejaVuSans-20" transform="scale(0.015625)"/>
      <path id="DejaVuSans-64" d="M 2906 2969 
L 2906 4863 
L 3481 4863 
L 3481 0 
L 2906 0 
L 2906 525 
Q 2725 213 2448 61 
Q 2172 -91 1784 -91 
Q 1150 -91 751 415 
Q 353 922 353 1747 
Q 353 2572 751 3078 
Q 1150 3584 1784 3584 
Q 2172 3584 2448 3432 
Q 2725 3281 2906 2969 
z
M 947 1747 
Q 947 1113 1208 752 
Q 1469 391 1925 391 
Q 2381 391 2643 752 
Q 2906 1113 2906 1747 
Q 2906 2381 2643 2742 
Q 2381 3103 1925 3103 
Q 1469 3103 1208 2742 
Q 947 2381 947 1747 
z
" transform="scale(0.015625)"/>
      <path id="DejaVuSans-65" d="M 3597 1894 
L 3597 1613 
L 953 1613 
Q 991 1019 1311 708 
Q 1631 397 2203 397 
Q 2534 397 2845 478 
Q 3156 559 3463 722 
L 3463 178 
Q 3153 47 2828 -22 
Q 2503 -91 2169 -91 
Q 1331 -91 842 396 
Q 353 884 353 1716 
Q 353 2575 817 3079 
Q 1281 3584 2069 3584 
Q 2775 3584 3186 3129 
Q 3597 2675 3597 1894 
z
M 3022 2063 
Q 3016 2534 2758 2815 
Q 2500 3097 2075 3097 
Q 1594 3097 1305 2825 
Q 1016 2553 972 2059 
L 3022 2063 
z
" transform="scale(0.015625)"/>
      <path id="DejaVuSans-74" d="M 1172 4494 
L 1172 3500 
L 2356 3500 
L 2356 3053 
L 1172 3053 
L 1172 1153 
Q 1172 725 1289 603 
Q 1406 481 1766 481 
L 2356 481 
L 2356 0 
L 1766 0 
Q 1100 0 847 248 
Q 594 497 594 1153 
L 594 3053 
L 172 3053 
L 172 3500 
L 594 3500 
L 594 4494 
L 1172 4494 
z
" transform="scale(0.015625)"/>
      <path id="DejaVuSans-e9" d="M 3597 1894 
L 3597 1613 
L 953 1613 
Q 991 1019 1311 708 
Q 1631 397 2203 397 
Q 2534 397 2845 478 
Q 3156 559 3463 722 
L 3463 178 
Q 3153 47 2828 -22 
Q 2503 -91 2169 -91 
Q 1331 -91 842 396 
Q 353 884 353 1716 
Q 353 2575 817 3079 
Q 1281 3584 2069 3584 
Q 2775 3584 3186 3129 
Q 3597 2675 3597 1894 
z
M 3022 2063 
Q 3016 2534 2758 2815 
Q 2500 3097 2075 3097 
Q 1594 3097 1305 2825 
Q 1016 2553 972 2059 
L 3022 2063 
z
M 2466 5119 
L 3088 5119 
L 2070 3944 
L 1591 3944 
L 2466 5119 
z
" transform="scale(0.015625)"/>
      <path id="DejaVuSans-39b" d="M 716 0 
L 50 0 
L 1831 4666 
L 2547 4666 
L 4325 0 
L 3669 0 
L 2188 4044 
L 716 0 
z
" transform="scale(0.015625)"/>
      <path id="DejaVuSans-Oblique-6e" d="M 3566 2113 
L 3156 0 
L 2578 0 
L 2988 2091 
Q 3016 2238 3031 2350 
Q 3047 2463 3047 2528 
Q 3047 2791 2881 2937 
Q 2716 3084 2419 3084 
Q 1956 3084 1622 2776 
Q 1288 2469 1184 1941 
L 800 0 
L 225 0 
L 903 3500 
L 1478 3500 
L 1363 2950 
Q 1603 3253 1940 3418 
Q 2278 3584 2650 3584 
Q 3113 3584 3367 3334 
Q 3622 3084 3622 2631 
Q 3622 2519 3608 2391 
Q 3594 2263 3566 2113 
z
" transform="scale(0.015625)"/>
      <path id="DejaVuSans-3d" d="M 678 2906 
L 4684 2906 
L 4684 2381 
L 678 2381 
L 678 2906 
z
M 678 1631 
L 4684 1631 
L 4684 1100 
L 678 1100 
L 678 1631 
z
" transform="scale(0.015625)"/>
     </defs>
     <use xlink:href="#DejaVuSans-43" transform="translate(0 0.015625)"/>
     <use xlink:href="#DejaVuSans-6f" transform="translate(69.824219 0.015625)"/>
     <use xlink:href="#DejaVuSans-6d" transform="translate(131.005859 0.015625)"/>
     <use xlink:href="#DejaVuSans-70" transform="translate(228.417969 0.015625)"/>
     <use xlink:href="#DejaVuSans-61" transform="translate(291.894531 0.015625)"/>
     <use xlink:href="#DejaVuSans-72" transform="translate(353.173828 0.015625)"/>
     <use xlink:href="#DejaVuSans-61" transform="translate(394.287109 0.015625)"/>
     <use xlink:href="#DejaVuSans-69" transform="translate(455.566406 0.015625)"/>
     <use xlink:href="#DejaVuSans-73" transform="translate(483.349609 0.015625)"/>
     <use xlink:href="#DejaVuSans-6f" transform="translate(535.449219 0.015625)"/>
     <use xlink:href="#DejaVuSans-6e" transform="translate(596.630859 0.015625)"/>
     <use xlink:href="#DejaVuSans-73" transform="translate(660.009766 0.015625)"/>
     <use xlink:href="#DejaVuSans-20" transform="translate(712.109375 0.015625)"/>
     <use xlink:href="#DejaVuSans-64" transform="translate(743.896484 0.015625)"/>
     <use xlink:href="#DejaVuSans-65" transform="translate(807.373047 0.015625)"/>
     <use xlink:href="#DejaVuSans-20" transform="translate(868.896484 0.015625)"/>
     <use xlink:href="#DejaVuSans-64" transform="translate(900.683594 0.015625)"/>
     <use xlink:href="#DejaVuSans-65" transform="translate(964.160156 0.015625)"/>
     <use xlink:href="#DejaVuSans-6e" transform="translate(1025.683594 0.015625)"/>
     <use xlink:href="#DejaVuSans-73" transform="translate(1089.0625 0.015625)"/>
     <use xlink:href="#DejaVuSans-69" transform="translate(1141.162109 0.015625)"/>
     <use xlink:href="#DejaVuSans-74" transform="translate(1168.945312 0.015625)"/>
     <use xlink:href="#DejaVuSans-e9" transform="translate(1208.154297 0.015625)"/>
     <use xlink:href="#DejaVuSans-73" transform="translate(1269.677734 0.015625)"/>
     <use xlink:href="#DejaVuSans-20" transform="translate(1321.777344 0.015625)"/>
     <use xlink:href="#DejaVuSans-39b" transform="translate(1353.564453 0.015625)"/>
     <use xlink:href="#DejaVuSans-Oblique-3b5" transform="translate(1422.929688 -16.390625) scale(0.7)"/>
     <use xlink:href="#DejaVuSans-20" transform="translate(1463.500977 0.015625)"/>
     <use xlink:href="#DejaVuSans-28" transform="translate(1495.288086 0.015625)"/>
     <use xlink:href="#DejaVuSans-Oblique-6e" transform="translate(1534.301758 0.015625)"/>
     <use xlink:href="#DejaVuSans-3d" transform="translate(1617.163086 0.015625)"/>
     <use xlink:href="#DejaVuSans-31" transform="translate(1720.43457 0.015625)"/>
     <use xlink:href="#DejaVuSans-30" transform="translate(1784.057617 0.015625)"/>
     <use xlink:href="#DejaVuSans-29" transform="translate(1847.680664 0.015625)"/>
    </g>
   </g>
   <g id="legend_1">
    <g id="patch_7">
     <path d="M 151.852 66.418125 
L 275.652 66.418125 
Q 277.652 66.418125 277.652 64.418125 
L 277.652 36.04 
Q 277.652 34.04 275.652 34.04 
L 151.852 34.04 
Q 149.852 34.04 149.852 36.04 
L 149.852 64.418125 
Q 149.852 66.418125 151.852 66.418125 
z
" style="fill: #ffffff; opacity: 0.8; stroke: #cccccc; stroke-linejoin: miter"/>
    </g>
    <g id="line2d_14">
     <path d="M 153.852 42.138438 
L 163.852 42.138438 
L 173.852 42.138438 
" style="fill: none; stroke: #ffa500; stroke-width: 2; stroke-linecap: square"/>
    </g>
    <g id="text_15">
     <!-- Uniforme ($\varepsilon=0.0$) -->
     <g transform="translate(181.852 45.638438) scale(0.1 -0.1)">
      <defs>
       <path id="DejaVuSans-55" d="M 556 4666 
L 1191 4666 
L 1191 1831 
Q 1191 1081 1462 751 
Q 1734 422 2344 422 
Q 2950 422 3222 751 
Q 3494 1081 3494 1831 
L 3494 4666 
L 4128 4666 
L 4128 1753 
Q 4128 841 3676 375 
Q 3225 -91 2344 -91 
Q 1459 -91 1007 375 
Q 556 841 556 1753 
L 556 4666 
z
" transform="scale(0.015625)"/>
       <path id="DejaVuSans-66" d="M 2375 4863 
L 2375 4384 
L 1825 4384 
Q 1516 4384 1395 4259 
Q 1275 4134 1275 3809 
L 1275 3500 
L 2222 3500 
L 2222 3053 
L 1275 3053 
L 1275 0 
L 697 0 
L 697 3053 
L 147 3053 
L 147 3500 
L 697 3500 
L 697 3744 
Q 697 4328 969 4595 
Q 1241 4863 1831 4863 
L 2375 4863 
z
" transform="scale(0.015625)"/>
      </defs>
      <use xlink:href="#DejaVuSans-55" transform="translate(0 0.015625)"/>
      <use xlink:href="#DejaVuSans-6e" transform="translate(73.193359 0.015625)"/>
      <use xlink:href="#DejaVuSans-69" transform="translate(136.572266 0.015625)"/>
      <use xlink:href="#DejaVuSans-66" transform="translate(164.355469 0.015625)"/>
      <use xlink:href="#DejaVuSans-6f" transform="translate(199.560547 0.015625)"/>
      <use xlink:href="#DejaVuSans-72" transform="translate(260.742188 0.015625)"/>
      <use xlink:href="#DejaVuSans-6d" transform="translate(301.855469 0.015625)"/>
      <use xlink:href="#DejaVuSans-65" transform="translate(399.267578 0.015625)"/>
      <use xlink:href="#DejaVuSans-20" transform="translate(460.791016 0.015625)"/>
      <use xlink:href="#DejaVuSans-28" transform="translate(492.578125 0.015625)"/>
      <use xlink:href="#DejaVuSans-Oblique-3b5" transform="translate(531.591797 0.015625)"/>
      <use xlink:href="#DejaVuSans-3d" transform="translate(605.126953 0.015625)"/>
      <use xlink:href="#DejaVuSans-30" transform="translate(708.398438 0.015625)"/>
      <use xlink:href="#DejaVuSans-2e" transform="translate(772.021484 0.015625)"/>
      <use xlink:href="#DejaVuSans-30" transform="translate(803.808594 0.015625)"/>
      <use xlink:href="#DejaVuSans-29" transform="translate(867.431641 0.015625)"/>
     </g>
    </g>
    <g id="line2d_15">
     <path d="M 153.852 56.818125 
L 163.852 56.818125 
L 173.852 56.818125 
" style="fill: none; stroke: #87cefa; stroke-width: 1.6; stroke-linecap: square"/>
    </g>
    <g id="text_16">
     <!-- Legendre ($\varepsilon=0.5$) -->
     <g transform="translate(181.852 60.318125) scale(0.1 -0.1)">
      <defs>
       <path id="DejaVuSans-4c" d="M 628 4666 
L 1259 4666 
L 1259 531 
L 3531 531 
L 3531 0 
L 628 0 
L 628 4666 
z
" transform="scale(0.015625)"/>
       <path id="DejaVuSans-67" d="M 2906 1791 
Q 2906 2416 2648 2759 
Q 2391 3103 1925 3103 
Q 1463 3103 1205 2759 
Q 947 2416 947 1791 
Q 947 1169 1205 825 
Q 1463 481 1925 481 
Q 2391 481 2648 825 
Q 2906 1169 2906 1791 
z
M 3481 434 
Q 3481 -459 3084 -895 
Q 2688 -1331 1869 -1331 
Q 1566 -1331 1297 -1286 
Q 1028 -1241 775 -1147 
L 775 -588 
Q 1028 -725 1275 -790 
Q 1522 -856 1778 -856 
Q 2344 -856 2625 -561 
Q 2906 -266 2906 331 
L 2906 616 
Q 2728 306 2450 153 
Q 2172 0 1784 0 
Q 1141 0 747 490 
Q 353 981 353 1791 
Q 353 2603 747 3093 
Q 1141 3584 1784 3584 
Q 2172 3584 2450 3431 
Q 2728 3278 2906 2969 
L 2906 3500 
L 3481 3500 
L 3481 434 
z
" transform="scale(0.015625)"/>
       <path id="DejaVuSans-35" d="M 691 4666 
L 3169 4666 
L 3169 4134 
L 1269 4134 
L 1269 2991 
Q 1406 3038 1543 3061 
Q 1681 3084 1819 3084 
Q 2600 3084 3056 2656 
Q 3513 2228 3513 1497 
Q 3513 744 3044 326 
Q 2575 -91 1722 -91 
Q 1428 -91 1123 -41 
Q 819 9 494 109 
L 494 744 
Q 775 591 1075 516 
Q 1375 441 1709 441 
Q 2250 441 2565 725 
Q 2881 1009 2881 1497 
Q 2881 1984 2565 2268 
Q 2250 2553 1709 2553 
Q 1456 2553 1204 2497 
Q 953 2441 691 2322 
L 691 4666 
z
" transform="scale(0.015625)"/>
      </defs>
      <use xlink:href="#DejaVuSans-4c" transform="translate(0 0.015625)"/>
      <use xlink:href="#DejaVuSans-65" transform="translate(55.712891 0.015625)"/>
      <use xlink:href="#DejaVuSans-67" transform="translate(117.236328 0.015625)"/>
      <use xlink:href="#DejaVuSans-65" transform="translate(180.712891 0.015625)"/>
      <use xlink:href="#DejaVuSans-6e" transform="translate(242.236328 0.015625)"/>
      <use xlink:href="#DejaVuSans-64" transform="translate(305.615234 0.015625)"/>
      <use xlink:href="#DejaVuSans-72" transform="translate(369.091797 0.015625)"/>
      <use xlink:href="#DejaVuSans-65" transform="translate(410.205078 0.015625)"/>
      <use xlink:href="#DejaVuSans-20" transform="translate(471.728516 0.015625)"/>
      <use xlink:href="#DejaVuSans-28" transform="translate(503.515625 0.015625)"/>
      <use xlink:href="#DejaVuSans-Oblique-3b5" transform="translate(542.529297 0.015625)"/>
      <use xlink:href="#DejaVuSans-3d" transform="translate(616.064453 0.015625)"/>
      <use xlink:href="#DejaVuSans-30" transform="translate(719.335938 0.015625)"/>
      <use xlink:href="#DejaVuSans-2e" transform="translate(782.958984 0.015625)"/>
      <use xlink:href="#DejaVuSans-35" transform="translate(814.746094 0.015625)"/>
      <use xlink:href="#DejaVuSans-29" transform="translate(878.369141 0.015625)"/>
     </g>
    </g>
   </g>
  </g>
  <g id="axes_2">
   <g id="patch_8">
    <path d="M 338.292 173.68 
L 637.2 173.68 
L 637.2 29.04 
L 338.292 29.04 
z
" style="fill: #ffffff"/>
   </g>
   <g id="patch_9">
    <path d="M 351.878727 173.68 
L 358.84628 173.68 
L 358.84628 125.564699 
L 351.878727 125.564699 
z
" clip-path="url(#p88e1e0d23d)" style="fill: #ffa500; opacity: 0.35"/>
   </g>
   <g id="patch_10">
    <path d="M 358.84628 173.68 
L 365.813832 173.68 
L 365.813832 89.72371 
L 358.84628 89.72371 
z
" clip-path="url(#p88e1e0d23d)" style="fill: #ffa500; opacity: 0.35"/>
   </g>
   <g id="patch_11">
    <path d="M 365.813832 173.68 
L 372.781385 173.68 
L 372.781385 73.276133 
L 365.813832 73.276133 
z
" clip-path="url(#p88e1e0d23d)" style="fill: #ffa500; opacity: 0.35"/>
   </g>
   <g id="patch_12">
    <path d="M 372.781385 173.68 
L 379.748937 173.68 
L 379.748937 64.193142 
L 372.781385 64.193142 
z
" clip-path="url(#p88e1e0d23d)" style="fill: #ffa500; opacity: 0.35"/>
   </g>
   <g id="patch_13">
    <path d="M 379.748937 173.68 
L 386.71649 173.68 
L 386.71649 46.027161 
L 379.748937 46.027161 
z
" clip-path="url(#p88e1e0d23d)" style="fill: #ffa500; opacity: 0.35"/>
   </g>
   <g id="patch_14">
    <path d="M 386.71649 173.68 
L 393.684042 173.68 
L 393.684042 44.79973 
L 386.71649 44.79973 
z
" clip-path="url(#p88e1e0d23d)" style="fill: #ffa500; opacity: 0.35"/>
   </g>
   <g id="patch_15">
    <path d="M 393.684042 173.68 
L 400.651594 173.68 
L 400.651594 40.626464 
L 393.684042 40.626464 
z
" clip-path="url(#p88e1e0d23d)" style="fill: #ffa500; opacity: 0.35"/>
   </g>
   <g id="patch_16">
    <path d="M 400.651594 173.68 
L 407.619147 173.68 
L 407.619147 42.099382 
L 400.651594 42.099382 
z
" clip-path="url(#p88e1e0d23d)" style="fill: #ffa500; opacity: 0.35"/>
   </g>
   <g id="patch_17">
    <path d="M 407.619147 173.68 
L 414.586699 173.68 
L 414.586699 43.817785 
L 407.619147 43.817785 
z
" clip-path="url(#p88e1e0d23d)" style="fill: #ffa500; opacity: 0.35"/>
   </g>
   <g id="patch_18">
    <path d="M 414.586699 173.68 
L 421.554252 173.68 
L 421.554252 63.456683 
L 414.586699 63.456683 
z
" clip-path="url(#p88e1e0d23d)" style="fill: #ffa500; opacity: 0.35"/>
   </g>
   <g id="patch_19">
    <path d="M 421.554252 173.68 
L 428.521804 173.68 
L 428.521804 65.666059 
L 421.554252 65.666059 
z
" clip-path="url(#p88e1e0d23d)" style="fill: #ffa500; opacity: 0.35"/>
   </g>
   <g id="patch_20">
    <path d="M 428.521804 173.68 
L 435.489357 173.68 
L 435.489357 76.71294 
L 428.521804 76.71294 
z
" clip-path="url(#p88e1e0d23d)" style="fill: #ffa500; opacity: 0.35"/>
   </g>
   <g id="patch_21">
    <path d="M 435.489357 173.68 
L 442.456909 173.68 
L 442.456909 92.178572 
L 435.489357 92.178572 
z
" clip-path="url(#p88e1e0d23d)" style="fill: #ffa500; opacity: 0.35"/>
   </g>
   <g id="patch_22">
    <path d="M 442.456909 173.68 
L 449.424462 173.68 
L 449.424462 96.351838 
L 442.456909 96.351838 
z
" clip-path="url(#p88e1e0d23d)" style="fill: #ffa500; opacity: 0.35"/>
   </g>
   <g id="patch_23">
    <path d="M 449.424462 173.68 
L 456.392014 173.68 
L 456.392014 107.889691 
L 449.424462 107.889691 
z
" clip-path="url(#p88e1e0d23d)" style="fill: #ffa500; opacity: 0.35"/>
   </g>
   <g id="patch_24">
    <path d="M 456.392014 173.68 
L 463.359566 173.68 
L 463.359566 109.853581 
L 456.392014 109.853581 
z
" clip-path="url(#p88e1e0d23d)" style="fill: #ffa500; opacity: 0.35"/>
   </g>
   <g id="patch_25">
    <path d="M 463.359566 173.68 
L 470.327119 173.68 
L 470.327119 118.691085 
L 463.359566 118.691085 
z
" clip-path="url(#p88e1e0d23d)" style="fill: #ffa500; opacity: 0.35"/>
   </g>
   <g id="patch_26">
    <path d="M 470.327119 173.68 
L 477.294671 173.68 
L 477.294671 129.737965 
L 470.327119 129.737965 
z
" clip-path="url(#p88e1e0d23d)" style="fill: #ffa500; opacity: 0.35"/>
   </g>
   <g id="patch_27">
    <path d="M 477.294671 173.68 
L 484.262224 173.68 
L 484.262224 134.156717 
L 477.294671 134.156717 
z
" clip-path="url(#p88e1e0d23d)" style="fill: #ffa500; opacity: 0.35"/>
   </g>
   <g id="patch_28">
    <path d="M 484.262224 173.68 
L 491.229776 173.68 
L 491.229776 140.293873 
L 484.262224 140.293873 
z
" clip-path="url(#p88e1e0d23d)" style="fill: #ffa500; opacity: 0.35"/>
   </g>
   <g id="patch_29">
    <path d="M 491.229776 173.68 
L 498.197329 173.68 
L 498.197329 146.185542 
L 491.229776 146.185542 
z
" clip-path="url(#p88e1e0d23d)" style="fill: #ffa500; opacity: 0.35"/>
   </g>
   <g id="patch_30">
    <path d="M 498.197329 173.68 
L 505.164881 173.68 
L 505.164881 151.095267 
L 498.197329 151.095267 
z
" clip-path="url(#p88e1e0d23d)" style="fill: #ffa500; opacity: 0.35"/>
   </g>
   <g id="patch_31">
    <path d="M 505.164881 173.68 
L 512.132434 173.68 
L 512.132434 152.077212 
L 505.164881 152.077212 
z
" clip-path="url(#p88e1e0d23d)" style="fill: #ffa500; opacity: 0.35"/>
   </g>
   <g id="patch_32">
    <path d="M 512.132434 173.68 
L 519.099986 173.68 
L 519.099986 155.268533 
L 512.132434 155.268533 
z
" clip-path="url(#p88e1e0d23d)" style="fill: #ffa500; opacity: 0.35"/>
   </g>
   <g id="patch_33">
    <path d="M 519.099986 173.68 
L 526.067538 173.68 
L 526.067538 158.214368 
L 519.099986 158.214368 
z
" clip-path="url(#p88e1e0d23d)" style="fill: #ffa500; opacity: 0.35"/>
   </g>
   <g id="patch_34">
    <path d="M 526.067538 173.68 
L 533.035091 173.68 
L 533.035091 162.142147 
L 526.067538 162.142147 
z
" clip-path="url(#p88e1e0d23d)" style="fill: #ffa500; opacity: 0.35"/>
   </g>
   <g id="patch_35">
    <path d="M 533.035091 173.68 
L 540.002643 173.68 
L 540.002643 162.63312 
L 533.035091 162.63312 
z
" clip-path="url(#p88e1e0d23d)" style="fill: #ffa500; opacity: 0.35"/>
   </g>
   <g id="patch_36">
    <path d="M 540.002643 173.68 
L 546.970196 173.68 
L 546.970196 164.842496 
L 540.002643 164.842496 
z
" clip-path="url(#p88e1e0d23d)" style="fill: #ffa500; opacity: 0.35"/>
   </g>
   <g id="patch_37">
    <path d="M 546.970196 173.68 
L 553.937748 173.68 
L 553.937748 166.806386 
L 546.970196 166.806386 
z
" clip-path="url(#p88e1e0d23d)" style="fill: #ffa500; opacity: 0.35"/>
   </g>
   <g id="patch_38">
    <path d="M 553.937748 173.68 
L 560.905301 173.68 
L 560.905301 166.069927 
L 553.937748 166.069927 
z
" clip-path="url(#p88e1e0d23d)" style="fill: #ffa500; opacity: 0.35"/>
   </g>
   <g id="patch_39">
    <path d="M 560.905301 173.68 
L 567.872853 173.68 
L 567.872853 167.051872 
L 560.905301 167.051872 
z
" clip-path="url(#p88e1e0d23d)" style="fill: #ffa500; opacity: 0.35"/>
   </g>
   <g id="patch_40">
    <path d="M 567.872853 173.68 
L 574.840406 173.68 
L 574.840406 168.033817 
L 567.872853 168.033817 
z
" clip-path="url(#p88e1e0d23d)" style="fill: #ffa500; opacity: 0.35"/>
   </g>
   <g id="patch_41">
    <path d="M 574.840406 173.68 
L 581.807958 173.68 
L 581.807958 169.015762 
L 574.840406 169.015762 
z
" clip-path="url(#p88e1e0d23d)" style="fill: #ffa500; opacity: 0.35"/>
   </g>
   <g id="patch_42">
    <path d="M 581.807958 173.68 
L 588.77551 173.68 
L 588.77551 168.770275 
L 581.807958 168.770275 
z
" clip-path="url(#p88e1e0d23d)" style="fill: #ffa500; opacity: 0.35"/>
   </g>
   <g id="patch_43">
    <path d="M 588.77551 173.68 
L 595.743063 173.68 
L 595.743063 169.261248 
L 588.77551 169.261248 
z
" clip-path="url(#p88e1e0d23d)" style="fill: #ffa500; opacity: 0.35"/>
   </g>
   <g id="patch_44">
    <path d="M 595.743063 173.68 
L 602.710615 173.68 
L 602.710615 171.71611 
L 595.743063 171.71611 
z
" clip-path="url(#p88e1e0d23d)" style="fill: #ffa500; opacity: 0.35"/>
   </g>
   <g id="patch_45">
    <path d="M 602.710615 173.68 
L 609.678168 173.68 
L 609.678168 171.71611 
L 602.710615 171.71611 
z
" clip-path="url(#p88e1e0d23d)" style="fill: #ffa500; opacity: 0.35"/>
   </g>
   <g id="patch_46">
    <path d="M 609.678168 173.68 
L 616.64572 173.68 
L 616.64572 171.225138 
L 609.678168 171.225138 
z
" clip-path="url(#p88e1e0d23d)" style="fill: #ffa500; opacity: 0.35"/>
   </g>
   <g id="patch_47">
    <path d="M 616.64572 173.68 
L 623.613273 173.68 
L 623.613273 171.961596 
L 616.64572 171.961596 
z
" clip-path="url(#p88e1e0d23d)" style="fill: #ffa500; opacity: 0.35"/>
   </g>
   <g id="matplotlib.axis_3">
    <g id="xtick_7">
     <g id="line2d_16">
      <g>
       <use xlink:href="#md22b1f1f79" x="351.878727" y="173.68" style="stroke: #000000; stroke-width: 0.8"/>
      </g>
     </g>
     <g id="text_17">
      <!-- 0 -->
      <g transform="translate(348.697477 188.278437) scale(0.1 -0.1)">
       <use xlink:href="#DejaVuSans-30"/>
      </g>
     </g>
    </g>
    <g id="xtick_8">
     <g id="line2d_17">
      <g>
       <use xlink:href="#md22b1f1f79" x="394.086089" y="173.68" style="stroke: #000000; stroke-width: 0.8"/>
      </g>
     </g>
     <g id="text_18">
      <!-- 1 -->
      <g transform="translate(390.904839 188.278437) scale(0.1 -0.1)">
       <use xlink:href="#DejaVuSans-31"/>
      </g>
     </g>
    </g>
    <g id="xtick_9">
     <g id="line2d_18">
      <g>
       <use xlink:href="#md22b1f1f79" x="436.293451" y="173.68" style="stroke: #000000; stroke-width: 0.8"/>
      </g>
     </g>
     <g id="text_19">
      <!-- 2 -->
      <g transform="translate(433.112201 188.278437) scale(0.1 -0.1)">
       <use xlink:href="#DejaVuSans-32"/>
      </g>
     </g>
    </g>
    <g id="xtick_10">
     <g id="line2d_19">
      <g>
       <use xlink:href="#md22b1f1f79" x="478.500814" y="173.68" style="stroke: #000000; stroke-width: 0.8"/>
      </g>
     </g>
     <g id="text_20">
      <!-- 3 -->
      <g transform="translate(475.319564 188.278437) scale(0.1 -0.1)">
       <defs>
        <path id="DejaVuSans-33" d="M 2597 2516 
Q 3050 2419 3304 2112 
Q 3559 1806 3559 1356 
Q 3559 666 3084 287 
Q 2609 -91 1734 -91 
Q 1441 -91 1130 -33 
Q 819 25 488 141 
L 488 750 
Q 750 597 1062 519 
Q 1375 441 1716 441 
Q 2309 441 2620 675 
Q 2931 909 2931 1356 
Q 2931 1769 2642 2001 
Q 2353 2234 1838 2234 
L 1294 2234 
L 1294 2753 
L 1863 2753 
Q 2328 2753 2575 2939 
Q 2822 3125 2822 3475 
Q 2822 3834 2567 4026 
Q 2313 4219 1838 4219 
Q 1578 4219 1281 4162 
Q 984 4106 628 3988 
L 628 4550 
Q 988 4650 1302 4700 
Q 1616 4750 1894 4750 
Q 2613 4750 3031 4423 
Q 3450 4097 3450 3541 
Q 3450 3153 3228 2886 
Q 3006 2619 2597 2516 
z
" transform="scale(0.015625)"/>
       </defs>
       <use xlink:href="#DejaVuSans-33"/>
      </g>
     </g>
    </g>
    <g id="xtick_11">
     <g id="line2d_20">
      <g>
       <use xlink:href="#md22b1f1f79" x="520.708176" y="173.68" style="stroke: #000000; stroke-width: 0.8"/>
      </g>
     </g>
     <g id="text_21">
      <!-- 4 -->
      <g transform="translate(517.526926 188.278437) scale(0.1 -0.1)">
       <use xlink:href="#DejaVuSans-34"/>
      </g>
     </g>
    </g>
    <g id="xtick_12">
     <g id="line2d_21">
      <g>
       <use xlink:href="#md22b1f1f79" x="562.915538" y="173.68" style="stroke: #000000; stroke-width: 0.8"/>
      </g>
     </g>
     <g id="text_22">
      <!-- 5 -->
      <g transform="translate(559.734288 188.278437) scale(0.1 -0.1)">
       <use xlink:href="#DejaVuSans-35"/>
      </g>
     </g>
    </g>
    <g id="xtick_13">
     <g id="line2d_22">
      <g>
       <use xlink:href="#md22b1f1f79" x="605.1229" y="173.68" style="stroke: #000000; stroke-width: 0.8"/>
      </g>
     </g>
     <g id="text_23">
      <!-- 6 -->
      <g transform="translate(601.94165 188.278437) scale(0.1 -0.1)">
       <use xlink:href="#DejaVuSans-36"/>
      </g>
     </g>
    </g>
    <g id="text_24">
     <!-- TMRCA (unités de temps) -->
     <g transform="translate(424.268656 202.356562) scale(0.1 -0.1)">
      <defs>
       <path id="DejaVuSans-54" d="M -19 4666 
L 3928 4666 
L 3928 4134 
L 2272 4134 
L 2272 0 
L 1638 0 
L 1638 4134 
L -19 4134 
L -19 4666 
z
" transform="scale(0.015625)"/>
       <path id="DejaVuSans-4d" d="M 628 4666 
L 1569 4666 
L 2759 1491 
L 3956 4666 
L 4897 4666 
L 4897 0 
L 4281 0 
L 4281 4097 
L 3078 897 
L 2444 897 
L 1241 4097 
L 1241 0 
L 628 0 
L 628 4666 
z
" transform="scale(0.015625)"/>
       <path id="DejaVuSans-52" d="M 2841 2188 
Q 3044 2119 3236 1894 
Q 3428 1669 3622 1275 
L 4263 0 
L 3584 0 
L 2988 1197 
Q 2756 1666 2539 1819 
Q 2322 1972 1947 1972 
L 1259 1972 
L 1259 0 
L 628 0 
L 628 4666 
L 2053 4666 
Q 2853 4666 3247 4331 
Q 3641 3997 3641 3322 
Q 3641 2881 3436 2590 
Q 3231 2300 2841 2188 
z
M 1259 4147 
L 1259 2491 
L 2053 2491 
Q 2509 2491 2742 2702 
Q 2975 2913 2975 3322 
Q 2975 3731 2742 3939 
Q 2509 4147 2053 4147 
L 1259 4147 
z
" transform="scale(0.015625)"/>
       <path id="DejaVuSans-41" d="M 2188 4044 
L 1331 1722 
L 3047 1722 
L 2188 4044 
z
M 1831 4666 
L 2547 4666 
L 4325 0 
L 3669 0 
L 3244 1197 
L 1141 1197 
L 716 0 
L 50 0 
L 1831 4666 
z
" transform="scale(0.015625)"/>
       <path id="DejaVuSans-75" d="M 544 1381 
L 544 3500 
L 1119 3500 
L 1119 1403 
Q 1119 906 1312 657 
Q 1506 409 1894 409 
Q 2359 409 2629 706 
Q 2900 1003 2900 1516 
L 2900 3500 
L 3475 3500 
L 3475 0 
L 2900 0 
L 2900 538 
Q 2691 219 2414 64 
Q 2138 -91 1772 -91 
Q 1169 -91 856 284 
Q 544 659 544 1381 
z
M 1991 3584 
L 1991 3584 
z
" transform="scale(0.015625)"/>
      </defs>
      <use xlink:href="#DejaVuSans-54"/>
      <use xlink:href="#DejaVuSans-4d" x="61.083984"/>
      <use xlink:href="#DejaVuSans-52" x="147.363281"/>
      <use xlink:href="#DejaVuSans-43" x="211.845703"/>
      <use xlink:href="#DejaVuSans-41" x="281.669922"/>
      <use xlink:href="#DejaVuSans-20" x="350.078125"/>
      <use xlink:href="#DejaVuSans-28" x="381.865234"/>
      <use xlink:href="#DejaVuSans-75" x="420.878906"/>
      <use xlink:href="#DejaVuSans-6e" x="484.257812"/>
      <use xlink:href="#DejaVuSans-69" x="547.636719"/>
      <use xlink:href="#DejaVuSans-74" x="575.419922"/>
      <use xlink:href="#DejaVuSans-e9" x="614.628906"/>
      <use xlink:href="#DejaVuSans-73" x="676.152344"/>
      <use xlink:href="#DejaVuSans-20" x="728.251953"/>
      <use xlink:href="#DejaVuSans-64" x="760.039062"/>
      <use xlink:href="#DejaVuSans-65" x="823.515625"/>
      <use xlink:href="#DejaVuSans-20" x="885.039062"/>
      <use xlink:href="#DejaVuSans-74" x="916.826172"/>
      <use xlink:href="#DejaVuSans-65" x="956.035156"/>
      <use xlink:href="#DejaVuSans-6d" x="1017.558594"/>
      <use xlink:href="#DejaVuSans-70" x="1114.970703"/>
      <use xlink:href="#DejaVuSans-73" x="1178.447266"/>
      <use xlink:href="#DejaVuSans-29" x="1230.546875"/>
     </g>
    </g>
   </g>
   <g id="matplotlib.axis_4">
    <g id="ytick_6">
     <g id="line2d_23">
      <g>
       <use xlink:href="#maa3684a706" x="338.292" y="173.68" style="stroke: #000000; stroke-width: 0.8"/>
      </g>
     </g>
     <g id="text_25">
      <!-- 0.0 -->
      <g transform="translate(315.388875 177.479219) scale(0.1 -0.1)">
       <use xlink:href="#DejaVuSans-30"/>
       <use xlink:href="#DejaVuSans-2e" x="63.623047"/>
       <use xlink:href="#DejaVuSans-30" x="95.410156"/>
      </g>
     </g>
    </g>
    <g id="ytick_7">
     <g id="line2d_24">
      <g>
       <use xlink:href="#maa3684a706" x="338.292" y="141.418334" style="stroke: #000000; stroke-width: 0.8"/>
      </g>
     </g>
     <g id="text_26">
      <!-- 0.1 -->
      <g transform="translate(315.388875 145.217553) scale(0.1 -0.1)">
       <use xlink:href="#DejaVuSans-30"/>
       <use xlink:href="#DejaVuSans-2e" x="63.623047"/>
       <use xlink:href="#DejaVuSans-31" x="95.410156"/>
      </g>
     </g>
    </g>
    <g id="ytick_8">
     <g id="line2d_25">
      <g>
       <use xlink:href="#maa3684a706" x="338.292" y="109.156668" style="stroke: #000000; stroke-width: 0.8"/>
      </g>
     </g>
     <g id="text_27">
      <!-- 0.2 -->
      <g transform="translate(315.388875 112.955886) scale(0.1 -0.1)">
       <use xlink:href="#DejaVuSans-30"/>
       <use xlink:href="#DejaVuSans-2e" x="63.623047"/>
       <use xlink:href="#DejaVuSans-32" x="95.410156"/>
      </g>
     </g>
    </g>
    <g id="ytick_9">
     <g id="line2d_26">
      <g>
       <use xlink:href="#maa3684a706" x="338.292" y="76.895001" style="stroke: #000000; stroke-width: 0.8"/>
      </g>
     </g>
     <g id="text_28">
      <!-- 0.3 -->
      <g transform="translate(315.388875 80.69422) scale(0.1 -0.1)">
       <use xlink:href="#DejaVuSans-30"/>
       <use xlink:href="#DejaVuSans-2e" x="63.623047"/>
       <use xlink:href="#DejaVuSans-33" x="95.410156"/>
      </g>
     </g>
    </g>
    <g id="ytick_10">
     <g id="line2d_27">
      <g>
       <use xlink:href="#maa3684a706" x="338.292" y="44.633335" style="stroke: #000000; stroke-width: 0.8"/>
      </g>
     </g>
     <g id="text_29">
      <!-- 0.4 -->
      <g transform="translate(315.388875 48.432554) scale(0.1 -0.1)">
       <use xlink:href="#DejaVuSans-30"/>
       <use xlink:href="#DejaVuSans-2e" x="63.623047"/>
       <use xlink:href="#DejaVuSans-34" x="95.410156"/>
      </g>
     </g>
    </g>
    <g id="text_30">
     <!-- densité -->
     <g transform="translate(309.309188 119.81) rotate(-90) scale(0.1 -0.1)">
      <use xlink:href="#DejaVuSans-64"/>
      <use xlink:href="#DejaVuSans-65" x="63.476562"/>
      <use xlink:href="#DejaVuSans-6e" x="125"/>
      <use xlink:href="#DejaVuSans-73" x="188.378906"/>
      <use xlink:href="#DejaVuSans-69" x="240.478516"/>
      <use xlink:href="#DejaVuSans-74" x="268.261719"/>
      <use xlink:href="#DejaVuSans-e9" x="307.470703"/>
     </g>
    </g>
   </g>
   <g id="patch_48">
    <path d="M 351.878727 173.68 
L 351.878727 123.342677 
L 358.84628 123.342677 
L 358.84628 94.122475 
L 365.813832 94.122475 
L 365.813832 75.706381 
L 372.781385 75.706381 
L 372.781385 56.799192 
L 379.748937 56.799192 
L 379.748937 51.642686 
L 386.71649 51.642686 
L 386.71649 48.696111 
L 393.684042 48.696111 
L 393.684042 35.927619 
L 400.651594 35.927619 
L 400.651594 39.610838 
L 407.619147 39.610838 
L 407.619147 50.660494 
L 414.586699 50.660494 
L 414.586699 54.834809 
L 421.554252 54.834809 
L 421.554252 67.6033 
L 428.521804 67.6033 
L 428.521804 75.706381 
L 435.489357 75.706381 
L 435.489357 90.930352 
L 442.456909 90.930352 
L 442.456909 96.577954 
L 449.424462 96.577954 
L 449.424462 107.136515 
L 456.392014 107.136515 
L 456.392014 116.221788 
L 463.359566 116.221788 
L 463.359566 121.86939 
L 470.327119 121.86939 
L 470.327119 128.008088 
L 477.294671 128.008088 
L 477.294671 136.356717 
L 484.262224 136.356717 
L 484.262224 139.303292 
L 491.229776 139.303292 
L 491.229776 147.651921 
L 498.197329 147.651921 
L 498.197329 148.87966 
L 505.164881 148.87966 
L 505.164881 152.071783 
L 512.132434 152.071783 
L 512.132434 154.281715 
L 519.099986 154.281715 
L 519.099986 159.192673 
L 526.067538 159.192673 
L 526.067538 158.456029 
L 533.035091 158.456029 
L 533.035091 159.683769 
L 540.002643 159.683769 
L 540.002643 164.349179 
L 546.970196 164.349179 
L 546.970196 166.313563 
L 553.937748 166.313563 
L 553.937748 165.822467 
L 560.905301 165.822467 
L 560.905301 165.822467 
L 567.872853 165.822467 
L 567.872853 168.769042 
L 574.840406 168.769042 
L 574.840406 170.978973 
L 581.807958 170.978973 
L 581.807958 170.487877 
L 588.77551 170.487877 
L 588.77551 169.260138 
L 595.743063 169.260138 
L 595.743063 170.978973 
L 602.710615 170.978973 
L 602.710615 171.961165 
L 609.678168 171.961165 
L 609.678168 171.470069 
L 616.64572 171.470069 
L 616.64572 171.715617 
L 623.613273 171.715617 
L 623.613273 173.68 
" clip-path="url(#p88e1e0d23d)" style="fill: none; stroke: #87cefa; stroke-width: 1.6; stroke-linejoin: miter"/>
   </g>
   <g id="line2d_28">
    <path d="M 351.878727 137.833704 
L 363.693273 93.515702 
L 366.419706 84.339353 
L 369.14614 75.890888 
L 371.872573 68.266693 
L 374.599007 61.53215 
L 376.416629 57.556242 
L 378.234252 53.997781 
L 380.051874 50.857323 
L 381.869497 48.131554 
L 383.687119 45.813774 
L 385.504741 43.894358 
L 387.322364 42.361195 
L 389.139986 41.200109 
L 390.957608 40.395243 
L 392.775231 39.929414 
L 394.592853 39.784441 
L 396.410476 39.941441 
L 398.228098 40.381085 
L 400.04572 41.083834 
L 401.863343 42.030142 
L 403.680965 43.200632 
L 405.498587 44.576244 
L 408.225021 46.983695 
L 410.951455 49.7505 
L 413.677888 52.819618 
L 417.313133 57.290589 
L 421.857189 63.328777 
L 427.310056 70.980063 
L 443.668657 94.21479 
L 449.121524 101.50121 
L 454.574392 108.392794 
L 459.118448 113.797874 
L 463.662503 118.878509 
L 468.206559 123.628222 
L 472.750615 128.047695 
L 477.294671 132.143087 
L 481.838727 135.924626 
L 486.382783 139.405455 
L 490.926839 142.600687 
L 495.470895 145.526661 
L 500.014951 148.200342 
L 504.559007 150.638868 
L 509.103063 152.859194 
L 514.55593 155.25878 
L 520.008797 157.395244 
L 525.461664 159.294327 
L 530.914531 160.979997 
L 537.27621 162.706295 
L 543.637888 164.204103 
L 550.908378 165.672669 
L 558.178867 166.917787 
L 566.358168 168.092093 
L 575.44628 169.162135 
L 585.443203 170.106291 
L 596.348937 170.914343 
L 609.072294 171.630398 
L 623.613273 172.225536 
L 623.613273 172.225536 
" clip-path="url(#p88e1e0d23d)" style="fill: none; stroke-dasharray: 3.33,1.44; stroke-dashoffset: 0; stroke: #008000; stroke-width: 0.9"/>
   </g>
   <g id="patch_49">
    <path d="M 338.292 173.68 
L 338.292 29.04 
" style="fill: none; stroke: #000000; stroke-width: 0.8; stroke-linejoin: miter; stroke-linecap: square"/>
   </g>
   <g id="patch_50">
    <path d="M 637.2 173.68 
L 637.2 29.04 
" style="fill: none; stroke: #000000; stroke-width: 0.8; stroke-linejoin: miter; stroke-linecap: square"/>
   </g>
   <g id="patch_51">
    <path d="M 338.292 173.68 
L 637.2 173.68 
" style="fill: none; stroke: #000000; stroke-width: 0.8; stroke-linejoin: miter; stroke-linecap: square"/>
   </g>
   <g id="patch_52">
    <path d="M 338.292 29.04 
L 637.2 29.04 
" style="fill: none; stroke: #000000; stroke-width: 0.8; stroke-linejoin: miter; stroke-linecap: square"/>
   </g>
   <g id="text_31">
    <!-- TMRCA: histogrammes et densité théorique ($n=10$) -->
    <g transform="translate(331.146 23.04) scale(0.12 -0.12)">
     <defs>
      <path id="DejaVuSans-3a" d="M 750 794 
L 1409 794 
L 1409 0 
L 750 0 
L 750 794 
z
M 750 3309 
L 1409 3309 
L 1409 2516 
L 750 2516 
L 750 3309 
z
" transform="scale(0.015625)"/>
      <path id="DejaVuSans-68" d="M 3513 2113 
L 3513 0 
L 2938 0 
L 2938 2094 
Q 2938 2591 2744 2837 
Q 2550 3084 2163 3084 
Q 1697 3084 1428 2787 
Q 1159 2491 1159 1978 
L 1159 0 
L 581 0 
L 581 4863 
L 1159 4863 
L 1159 2956 
Q 1366 3272 1645 3428 
Q 1925 3584 2291 3584 
Q 2894 3584 3203 3211 
Q 3513 2838 3513 2113 
z
" transform="scale(0.015625)"/>
      <path id="DejaVuSans-71" d="M 947 1747 
Q 947 1113 1208 752 
Q 1469 391 1925 391 
Q 2381 391 2643 752 
Q 2906 1113 2906 1747 
Q 2906 2381 2643 2742 
Q 2381 3103 1925 3103 
Q 1469 3103 1208 2742 
Q 947 2381 947 1747 
z
M 2906 525 
Q 2725 213 2448 61 
Q 2172 -91 1784 -91 
Q 1150 -91 751 415 
Q 353 922 353 1747 
Q 353 2572 751 3078 
Q 1150 3584 1784 3584 
Q 2172 3584 2448 3432 
Q 2725 3281 2906 2969 
L 2906 3500 
L 3481 3500 
L 3481 -1331 
L 2906 -1331 
L 2906 525 
z
" transform="scale(0.015625)"/>
     </defs>
     <use xlink:href="#DejaVuSans-54" transform="translate(0 0.015625)"/>
     <use xlink:href="#DejaVuSans-4d" transform="translate(61.083984 0.015625)"/>
     <use xlink:href="#DejaVuSans-52" transform="translate(147.363281 0.015625)"/>
     <use xlink:href="#DejaVuSans-43" transform="translate(216.845703 0.015625)"/>
     <use xlink:href="#DejaVuSans-41" transform="translate(286.669922 0.015625)"/>
     <use xlink:href="#DejaVuSans-3a" transform="translate(355.078125 0.015625)"/>
     <use xlink:href="#DejaVuSans-20" transform="translate(388.769531 0.015625)"/>
     <use xlink:href="#DejaVuSans-68" transform="translate(420.556641 0.015625)"/>
     <use xlink:href="#DejaVuSans-69" transform="translate(483.935547 0.015625)"/>
     <use xlink:href="#DejaVuSans-73" transform="translate(511.71875 0.015625)"/>
     <use xlink:href="#DejaVuSans-74" transform="translate(563.818359 0.015625)"/>
     <use xlink:href="#DejaVuSans-6f" transform="translate(603.027344 0.015625)"/>
     <use xlink:href="#DejaVuSans-67" transform="translate(664.208984 0.015625)"/>
     <use xlink:href="#DejaVuSans-72" transform="translate(727.685547 0.015625)"/>
     <use xlink:href="#DejaVuSans-61" transform="translate(768.798828 0.015625)"/>
     <use xlink:href="#DejaVuSans-6d" transform="translate(830.078125 0.015625)"/>
     <use xlink:href="#DejaVuSans-6d" transform="translate(927.490234 0.015625)"/>
     <use xlink:href="#DejaVuSans-65" transform="translate(1024.902344 0.015625)"/>
     <use xlink:href="#DejaVuSans-73" transform="translate(1086.425781 0.015625)"/>
     <use xlink:href="#DejaVuSans-20" transform="translate(1138.525391 0.015625)"/>
     <use xlink:href="#DejaVuSans-65" transform="translate(1170.3125 0.015625)"/>
     <use xlink:href="#DejaVuSans-74" transform="translate(1231.835938 0.015625)"/>
     <use xlink:href="#DejaVuSans-20" transform="translate(1271.044922 0.015625)"/>
     <use xlink:href="#DejaVuSans-64" transform="translate(1302.832031 0.015625)"/>
     <use xlink:href="#DejaVuSans-65" transform="translate(1366.308594 0.015625)"/>
     <use xlink:href="#DejaVuSans-6e" transform="translate(1427.832031 0.015625)"/>
     <use xlink:href="#DejaVuSans-73" transform="translate(1491.210938 0.015625)"/>
     <use xlink:href="#DejaVuSans-69" transform="translate(1543.310547 0.015625)"/>
     <use xlink:href="#DejaVuSans-74" transform="translate(1571.09375 0.015625)"/>
     <use xlink:href="#DejaVuSans-e9" transform="translate(1610.302734 0.015625)"/>
     <use xlink:href="#DejaVuSans-20" transform="translate(1671.826172 0.015625)"/>
     <use xlink:href="#DejaVuSans-74" transform="translate(1703.613281 0.015625)"/>
     <use xlink:href="#DejaVuSans-68" transform="translate(1742.822266 0.015625)"/>
     <use xlink:href="#DejaVuSans-e9" transform="translate(1806.201172 0.015625)"/>
     <use xlink:href="#DejaVuSans-6f" transform="translate(1867.724609 0.015625)"/>
     <use xlink:href="#DejaVuSans-72" transform="translate(1928.90625 0.015625)"/>
     <use xlink:href="#DejaVuSans-69" transform="translate(1970.019531 0.015625)"/>
     <use xlink:href="#DejaVuSans-71" transform="translate(1997.802734 0.015625)"/>
     <use xlink:href="#DejaVuSans-75" transform="translate(2061.279297 0.015625)"/>
     <use xlink:href="#DejaVuSans-65" transform="translate(2124.658203 0.015625)"/>
     <use xlink:href="#DejaVuSans-20" transform="translate(2186.181641 0.015625)"/>
     <use xlink:href="#DejaVuSans-28" transform="translate(2217.96875 0.015625)"/>
     <use xlink:href="#DejaVuSans-Oblique-6e" transform="translate(2256.982422 0.015625)"/>
     <use xlink:href="#DejaVuSans-3d" transform="translate(2339.84375 0.015625)"/>
     <use xlink:href="#DejaVuSans-31" transform="translate(2443.115234 0.015625)"/>
     <use xlink:href="#DejaVuSans-30" transform="translate(2506.738281 0.015625)"/>
     <use xlink:href="#DejaVuSans-29" transform="translate(2570.361328 0.015625)"/>
    </g>
   </g>
   <g id="legend_2">
    <g id="patch_53">
     <path d="M 498.5675 70.9875 
L 631.6 70.9875 
Q 633.2 70.9875 633.2 69.3875 
L 633.2 34.64 
Q 633.2 33.04 631.6 33.04 
L 498.5675 33.04 
Q 496.9675 33.04 496.9675 34.64 
L 496.9675 69.3875 
Q 496.9675 70.9875 498.5675 70.9875 
z
" style="fill: #ffffff; opacity: 0.8; stroke: #cccccc; stroke-linejoin: miter"/>
    </g>
    <g id="patch_54">
     <path d="M 500.1675 42.31875 
L 516.1675 42.31875 
L 516.1675 36.71875 
L 500.1675 36.71875 
z
" style="fill: #ffa500; opacity: 0.35"/>
    </g>
    <g id="text_32">
     <!-- Hist. empirique (Uniforme) -->
     <g transform="translate(522.5675 42.31875) scale(0.08 -0.08)">
      <defs>
       <path id="DejaVuSans-48" d="M 628 4666 
L 1259 4666 
L 1259 2753 
L 3553 2753 
L 3553 4666 
L 4184 4666 
L 4184 0 
L 3553 0 
L 3553 2222 
L 1259 2222 
L 1259 0 
L 628 0 
L 628 4666 
z
" transform="scale(0.015625)"/>
      </defs>
      <use xlink:href="#DejaVuSans-48"/>
      <use xlink:href="#DejaVuSans-69" x="75.195312"/>
      <use xlink:href="#DejaVuSans-73" x="102.978516"/>
      <use xlink:href="#DejaVuSans-74" x="155.078125"/>
      <use xlink:href="#DejaVuSans-2e" x="194.287109"/>
      <use xlink:href="#DejaVuSans-20" x="226.074219"/>
      <use xlink:href="#DejaVuSans-65" x="257.861328"/>
      <use xlink:href="#DejaVuSans-6d" x="319.384766"/>
      <use xlink:href="#DejaVuSans-70" x="416.796875"/>
      <use xlink:href="#DejaVuSans-69" x="480.273438"/>
      <use xlink:href="#DejaVuSans-72" x="508.056641"/>
      <use xlink:href="#DejaVuSans-69" x="549.169922"/>
      <use xlink:href="#DejaVuSans-71" x="576.953125"/>
      <use xlink:href="#DejaVuSans-75" x="640.429688"/>
      <use xlink:href="#DejaVuSans-65" x="703.808594"/>
      <use xlink:href="#DejaVuSans-20" x="765.332031"/>
      <use xlink:href="#DejaVuSans-28" x="797.119141"/>
      <use xlink:href="#DejaVuSans-55" x="836.132812"/>
      <use xlink:href="#DejaVuSans-6e" x="909.326172"/>
      <use xlink:href="#DejaVuSans-69" x="972.705078"/>
      <use xlink:href="#DejaVuSans-66" x="1000.488281"/>
      <use xlink:href="#DejaVuSans-6f" x="1035.693359"/>
      <use xlink:href="#DejaVuSans-72" x="1096.875"/>
      <use xlink:href="#DejaVuSans-6d" x="1136.238281"/>
      <use xlink:href="#DejaVuSans-65" x="1233.650391"/>
      <use xlink:href="#DejaVuSans-29" x="1295.173828"/>
     </g>
    </g>
    <g id="patch_55">
     <path d="M 500.1675 54.06125 
L 516.1675 54.06125 
L 516.1675 48.46125 
L 500.1675 48.46125 
L 500.1675 54.06125 
z
" style="fill: none; stroke: #87cefa; stroke-width: 1.6; stroke-linejoin: miter"/>
    </g>
    <g id="text_33">
     <!-- Hist. empirique (Legendre) -->
     <g transform="translate(522.5675 54.06125) scale(0.08 -0.08)">
      <use xlink:href="#DejaVuSans-48"/>
      <use xlink:href="#DejaVuSans-69" x="75.195312"/>
      <use xlink:href="#DejaVuSans-73" x="102.978516"/>
      <use xlink:href="#DejaVuSans-74" x="155.078125"/>
      <use xlink:href="#DejaVuSans-2e" x="194.287109"/>
      <use xlink:href="#DejaVuSans-20" x="226.074219"/>
      <use xlink:href="#DejaVuSans-65" x="257.861328"/>
      <use xlink:href="#DejaVuSans-6d" x="319.384766"/>
      <use xlink:href="#DejaVuSans-70" x="416.796875"/>
      <use xlink:href="#DejaVuSans-69" x="480.273438"/>
      <use xlink:href="#DejaVuSans-72" x="508.056641"/>
      <use xlink:href="#DejaVuSans-69" x="549.169922"/>
      <use xlink:href="#DejaVuSans-71" x="576.953125"/>
      <use xlink:href="#DejaVuSans-75" x="640.429688"/>
      <use xlink:href="#DejaVuSans-65" x="703.808594"/>
      <use xlink:href="#DejaVuSans-20" x="765.332031"/>
      <use xlink:href="#DejaVuSans-28" x="797.119141"/>
      <use xlink:href="#DejaVuSans-4c" x="836.132812"/>
      <use xlink:href="#DejaVuSans-65" x="890.095703"/>
      <use xlink:href="#DejaVuSans-67" x="951.619141"/>
      <use xlink:href="#DejaVuSans-65" x="1015.095703"/>
      <use xlink:href="#DejaVuSans-6e" x="1076.619141"/>
      <use xlink:href="#DejaVuSans-64" x="1139.998047"/>
      <use xlink:href="#DejaVuSans-72" x="1203.474609"/>
      <use xlink:href="#DejaVuSans-65" x="1242.337891"/>
      <use xlink:href="#DejaVuSans-29" x="1303.861328"/>
     </g>
    </g>
    <g id="line2d_29">
     <path d="M 500.1675 63.32375 
L 508.1675 63.32375 
L 516.1675 63.32375 
" style="fill: none; stroke-dasharray: 3.33,1.44; stroke-dashoffset: 0; stroke: #008000; stroke-width: 0.9"/>
    </g>
    <g id="text_34">
     <!-- Densité théorique -->
     <g transform="translate(522.5675 66.12375) scale(0.08 -0.08)">
      <defs>
       <path id="DejaVuSans-44" d="M 1259 4147 
L 1259 519 
L 2022 519 
Q 2988 519 3436 956 
Q 3884 1394 3884 2338 
Q 3884 3275 3436 3711 
Q 2988 4147 2022 4147 
L 1259 4147 
z
M 628 4666 
L 1925 4666 
Q 3281 4666 3915 4102 
Q 4550 3538 4550 2338 
Q 4550 1131 3912 565 
Q 3275 0 1925 0 
L 628 0 
L 628 4666 
z
" transform="scale(0.015625)"/>
      </defs>
      <use xlink:href="#DejaVuSans-44"/>
      <use xlink:href="#DejaVuSans-65" x="77.001953"/>
      <use xlink:href="#DejaVuSans-6e" x="138.525391"/>
      <use xlink:href="#DejaVuSans-73" x="201.904297"/>
      <use xlink:href="#DejaVuSans-69" x="254.003906"/>
      <use xlink:href="#DejaVuSans-74" x="281.787109"/>
      <use xlink:href="#DejaVuSans-e9" x="320.996094"/>
      <use xlink:href="#DejaVuSans-20" x="382.519531"/>
      <use xlink:href="#DejaVuSans-74" x="414.306641"/>
      <use xlink:href="#DejaVuSans-68" x="453.515625"/>
      <use xlink:href="#DejaVuSans-e9" x="516.894531"/>
      <use xlink:href="#DejaVuSans-6f" x="578.417969"/>
      <use xlink:href="#DejaVuSans-72" x="639.599609"/>
      <use xlink:href="#DejaVuSans-69" x="680.712891"/>
      <use xlink:href="#DejaVuSans-71" x="708.496094"/>
      <use xlink:href="#DejaVuSans-75" x="771.972656"/>
      <use xlink:href="#DejaVuSans-65" x="835.351562"/>
     </g>
    </g>
   </g>
  </g>
 </g>
 <defs>
  <clipPath id="p3ef6d31df1">
   <rect x="50.168" y="29.04" width="232.484" height="144.64"/>
  </clipPath>
  <clipPath id="p88e1e0d23d">
   <rect x="338.292" y="29.04" width="298.908" height="144.64"/>
  </clipPath>
 </defs>
</svg>
